G04 #@! TF.FileFunction,Soldermask,Top*
%FSLAX46Y46*%
G04 Gerber Fmt 4.6, Leading zero omitted, Abs format (unit mm)*
G04 Created by KiCad (PCBNEW 4.0.4+e1-6308~48~ubuntu16.04.1-stable) date Tue Nov 15 20:45:07 2016*
%MOMM*%
%LPD*%
G01*
G04 APERTURE LIST*
%ADD10C,0.100000*%
%ADD11O,2.600000X2.166000*%
%ADD12R,2.600000X2.166000*%
%ADD13R,1.300000X1.600000*%
%ADD14R,1.900000X1.650000*%
%ADD15R,1.150000X1.600000*%
%ADD16R,1.600000X1.150000*%
%ADD17R,2.900000X2.400000*%
%ADD18R,1.900000X0.950000*%
%ADD19R,0.950000X1.900000*%
%ADD20R,2.432000X2.127200*%
%ADD21O,2.432000X2.127200*%
%ADD22R,2.127200X2.127200*%
%ADD23O,2.127200X2.127200*%
%ADD24R,1.200100X2.200860*%
%ADD25R,1.600000X1.300000*%
%ADD26R,5.899100X2.398980*%
%ADD27C,3.600000*%
%ADD28R,2.432000X2.432000*%
%ADD29O,2.432000X2.432000*%
%ADD30O,2.800000X2.166000*%
%ADD31R,2.800000X2.166000*%
G04 APERTURE END LIST*
D10*
D11*
X101600000Y-102870000D03*
X101600000Y-100330000D03*
X101600000Y-97790000D03*
X101600000Y-95250000D03*
X101600000Y-92710000D03*
X101600000Y-90170000D03*
X101600000Y-87630000D03*
X101600000Y-85090000D03*
X101600000Y-82550000D03*
X116840000Y-102870000D03*
X116840000Y-100330000D03*
X116840000Y-97790000D03*
X116840000Y-95250000D03*
X116840000Y-92710000D03*
X116840000Y-90170000D03*
X116840000Y-87630000D03*
X116840000Y-85090000D03*
D12*
X116840000Y-82550000D03*
D13*
X175260000Y-121328000D03*
X175260000Y-123528000D03*
D14*
X123718000Y-124460000D03*
X126218000Y-124460000D03*
X132314000Y-124460000D03*
X129814000Y-124460000D03*
D15*
X155702000Y-117414000D03*
X155702000Y-119314000D03*
X190500000Y-112715000D03*
X190500000Y-114615000D03*
D16*
X147635000Y-107950000D03*
X145735000Y-107950000D03*
D15*
X135890000Y-114620000D03*
X135890000Y-116520000D03*
D16*
X145100000Y-126365000D03*
X147000000Y-126365000D03*
D17*
X187325000Y-111665000D03*
X187325000Y-115665000D03*
D18*
X140350000Y-112840000D03*
X140350000Y-113640000D03*
X140350000Y-114440000D03*
X140350000Y-115240000D03*
X140350000Y-116040000D03*
X140350000Y-116840000D03*
X140350000Y-117640000D03*
X140350000Y-118440000D03*
X140350000Y-119240000D03*
X140350000Y-120040000D03*
X140350000Y-120840000D03*
D19*
X142050000Y-122540000D03*
X142850000Y-122540000D03*
X143650000Y-122540000D03*
X144450000Y-122540000D03*
X145250000Y-122540000D03*
X146050000Y-122540000D03*
X146850000Y-122540000D03*
X147650000Y-122540000D03*
X148450000Y-122540000D03*
X149250000Y-122540000D03*
X150050000Y-122540000D03*
D18*
X151750000Y-120840000D03*
X151750000Y-120040000D03*
X151750000Y-119240000D03*
X151750000Y-118440000D03*
X151750000Y-117640000D03*
X151750000Y-116840000D03*
X151750000Y-116040000D03*
X151750000Y-115240000D03*
X151750000Y-114440000D03*
X151750000Y-113640000D03*
X151750000Y-112840000D03*
D19*
X150050000Y-111140000D03*
X149250000Y-111140000D03*
X148450000Y-111140000D03*
X147650000Y-111140000D03*
X146850000Y-111140000D03*
X146050000Y-111140000D03*
X145250000Y-111140000D03*
X144450000Y-111140000D03*
X143650000Y-111140000D03*
X142850000Y-111140000D03*
X142050000Y-111140000D03*
D20*
X114300000Y-112395000D03*
D21*
X114300000Y-114935000D03*
X114300000Y-117475000D03*
X114300000Y-120015000D03*
X114300000Y-122555000D03*
X114300000Y-125095000D03*
D22*
X123190000Y-113665000D03*
D23*
X123190000Y-111125000D03*
X125730000Y-113665000D03*
X125730000Y-111125000D03*
X128270000Y-113665000D03*
X128270000Y-111125000D03*
D20*
X195580000Y-111125000D03*
D21*
X195580000Y-113665000D03*
X195580000Y-116205000D03*
X195580000Y-118745000D03*
D20*
X107950000Y-118745000D03*
D21*
X107950000Y-116205000D03*
X107950000Y-113665000D03*
X107950000Y-111125000D03*
D24*
X191775000Y-103101140D03*
X193675000Y-103101140D03*
X192725000Y-100098860D03*
X170185000Y-103101140D03*
X172085000Y-103101140D03*
X171135000Y-100098860D03*
X132085000Y-103101140D03*
X133985000Y-103101140D03*
X133035000Y-100098860D03*
X151770000Y-103101140D03*
X153670000Y-103101140D03*
X152720000Y-100098860D03*
X106365000Y-103101140D03*
X108265000Y-103101140D03*
X107315000Y-100098860D03*
D25*
X133520000Y-109728000D03*
X135720000Y-109728000D03*
D13*
X172720000Y-121328000D03*
X172720000Y-123528000D03*
X170180000Y-121328000D03*
X170180000Y-123528000D03*
X167640000Y-121328000D03*
X167640000Y-123528000D03*
X165100000Y-121328000D03*
X165100000Y-123528000D03*
X162560000Y-121328000D03*
X162560000Y-123528000D03*
X160020000Y-121328000D03*
X160020000Y-123528000D03*
X157480000Y-121328000D03*
X157480000Y-123528000D03*
X177800000Y-121328000D03*
X177800000Y-123528000D03*
X160020000Y-111676000D03*
X160020000Y-113876000D03*
X162560000Y-111676000D03*
X162560000Y-113876000D03*
X165100000Y-111676000D03*
X165100000Y-113876000D03*
X167640000Y-111676000D03*
X167640000Y-113876000D03*
X170180000Y-111676000D03*
X170180000Y-113876000D03*
X172720000Y-111676000D03*
X172720000Y-113876000D03*
X175260000Y-111676000D03*
X175260000Y-113876000D03*
X177800000Y-111676000D03*
X177800000Y-113876000D03*
X180340000Y-109050000D03*
X180340000Y-106850000D03*
D25*
X161755000Y-106680000D03*
X159555000Y-106680000D03*
X128735000Y-102870000D03*
X126535000Y-102870000D03*
X149055000Y-102870000D03*
X146855000Y-102870000D03*
X104564000Y-106553000D03*
X106764000Y-106553000D03*
D26*
X124206000Y-120015000D03*
X133604000Y-120015000D03*
D27*
X195580000Y-125730000D03*
X104140000Y-125730000D03*
X104140000Y-74295000D03*
X195580000Y-74295000D03*
D28*
X118745000Y-122555000D03*
D29*
X118745000Y-125095000D03*
D30*
X162560000Y-102870000D03*
X162560000Y-100330000D03*
X162560000Y-97790000D03*
X162560000Y-95250000D03*
X162560000Y-92710000D03*
X162560000Y-90170000D03*
X162560000Y-87630000D03*
X162560000Y-85090000D03*
X162560000Y-82550000D03*
X177800000Y-102870000D03*
X177800000Y-100330000D03*
X177800000Y-97790000D03*
X177800000Y-95250000D03*
X177800000Y-92710000D03*
X177800000Y-90170000D03*
X177800000Y-87630000D03*
X177800000Y-85090000D03*
D31*
X177800000Y-82550000D03*
D30*
X142240000Y-102870000D03*
X142240000Y-100330000D03*
X142240000Y-97790000D03*
X142240000Y-95250000D03*
X142240000Y-92710000D03*
X142240000Y-90170000D03*
X142240000Y-87630000D03*
X142240000Y-85090000D03*
X142240000Y-82550000D03*
X157480000Y-102870000D03*
X157480000Y-100330000D03*
X157480000Y-97790000D03*
X157480000Y-95250000D03*
X157480000Y-92710000D03*
X157480000Y-90170000D03*
X157480000Y-87630000D03*
X157480000Y-85090000D03*
D31*
X157480000Y-82550000D03*
D30*
X182880000Y-102870000D03*
X182880000Y-100330000D03*
X182880000Y-97790000D03*
X182880000Y-95250000D03*
X182880000Y-92710000D03*
X182880000Y-90170000D03*
X182880000Y-87630000D03*
X182880000Y-85090000D03*
X182880000Y-82550000D03*
X198120000Y-102870000D03*
X198120000Y-100330000D03*
X198120000Y-97790000D03*
X198120000Y-95250000D03*
X198120000Y-92710000D03*
X198120000Y-90170000D03*
X198120000Y-87630000D03*
X198120000Y-85090000D03*
D31*
X198120000Y-82550000D03*
D30*
X121920000Y-102870000D03*
X121920000Y-100330000D03*
X121920000Y-97790000D03*
X121920000Y-95250000D03*
X121920000Y-92710000D03*
X121920000Y-90170000D03*
X121920000Y-87630000D03*
X121920000Y-85090000D03*
X121920000Y-82550000D03*
X137160000Y-102870000D03*
X137160000Y-100330000D03*
X137160000Y-97790000D03*
X137160000Y-95250000D03*
X137160000Y-92710000D03*
X137160000Y-90170000D03*
X137160000Y-87630000D03*
X137160000Y-85090000D03*
D31*
X137160000Y-82550000D03*
M02*
