G04 #@! TF.FileFunction,Legend,Top*
%FSLAX46Y46*%
G04 Gerber Fmt 4.6, Leading zero omitted, Abs format (unit mm)*
G04 Created by KiCad (PCBNEW 4.0.4+e1-6308~48~ubuntu16.04.1-stable) date Tue Nov 15 20:45:06 2016*
%MOMM*%
%LPD*%
G01*
G04 APERTURE LIST*
%ADD10C,0.100000*%
%ADD11C,0.150000*%
%ADD12C,0.010000*%
G04 APERTURE END LIST*
D10*
D11*
X99060000Y-106680000D02*
X99060000Y-78740000D01*
X99060000Y-78740000D02*
X119380000Y-78740000D01*
X119380000Y-78740000D02*
X119380000Y-106680000D01*
X119380000Y-106680000D02*
X99060000Y-106680000D01*
X174585000Y-122928000D02*
X174585000Y-121928000D01*
X175935000Y-121928000D02*
X175935000Y-122928000D01*
X125468000Y-123610000D02*
X124468000Y-123610000D01*
X124468000Y-125310000D02*
X125468000Y-125310000D01*
X130564000Y-125310000D02*
X131564000Y-125310000D01*
X131564000Y-123610000D02*
X130564000Y-123610000D01*
X156302000Y-118014000D02*
X156302000Y-118714000D01*
X155102000Y-118714000D02*
X155102000Y-118014000D01*
X191100000Y-113315000D02*
X191100000Y-114015000D01*
X189900000Y-114015000D02*
X189900000Y-113315000D01*
X147035000Y-108550000D02*
X146335000Y-108550000D01*
X146335000Y-107350000D02*
X147035000Y-107350000D01*
X136490000Y-115220000D02*
X136490000Y-115920000D01*
X135290000Y-115920000D02*
X135290000Y-115220000D01*
X145700000Y-125765000D02*
X146400000Y-125765000D01*
X146400000Y-126965000D02*
X145700000Y-126965000D01*
X188800000Y-114665000D02*
X188800000Y-112665000D01*
X185850000Y-112665000D02*
X185850000Y-114665000D01*
X140875000Y-111665000D02*
X140875000Y-112240000D01*
X151225000Y-111665000D02*
X151225000Y-112340000D01*
X151225000Y-122015000D02*
X151225000Y-121340000D01*
X140875000Y-122015000D02*
X140875000Y-121340000D01*
X140875000Y-111665000D02*
X141550000Y-111665000D01*
X140875000Y-122015000D02*
X141550000Y-122015000D01*
X151225000Y-122015000D02*
X150550000Y-122015000D01*
X151225000Y-111665000D02*
X150550000Y-111665000D01*
X140875000Y-112240000D02*
X139600000Y-112240000D01*
X115570000Y-113665000D02*
X115570000Y-126365000D01*
X115570000Y-126365000D02*
X113030000Y-126365000D01*
X113030000Y-126365000D02*
X113030000Y-113665000D01*
X115850000Y-110845000D02*
X115850000Y-112395000D01*
X115570000Y-113665000D02*
X113030000Y-113665000D01*
X112750000Y-112395000D02*
X112750000Y-110845000D01*
X112750000Y-110845000D02*
X115850000Y-110845000D01*
X124460000Y-114935000D02*
X129540000Y-114935000D01*
X121640000Y-115215000D02*
X121640000Y-113665000D01*
X121920000Y-112395000D02*
X124460000Y-112395000D01*
X124460000Y-112395000D02*
X124460000Y-114935000D01*
X129540000Y-114935000D02*
X129540000Y-109855000D01*
X129540000Y-109855000D02*
X124460000Y-109855000D01*
X121640000Y-115215000D02*
X123190000Y-115215000D01*
X121920000Y-109855000D02*
X121920000Y-112395000D01*
X124460000Y-109855000D02*
X121920000Y-109855000D01*
X194280000Y-109575000D02*
X194280000Y-111125000D01*
X195580000Y-109575000D02*
X194280000Y-109575000D01*
X199771000Y-110998000D02*
X205613000Y-110998000D01*
X205613000Y-110998000D02*
X205613000Y-111252000D01*
X205613000Y-111252000D02*
X199771000Y-111252000D01*
X199771000Y-111252000D02*
X199771000Y-111125000D01*
X199771000Y-111125000D02*
X205613000Y-111125000D01*
X197104000Y-110871000D02*
X196723000Y-110871000D01*
X197104000Y-111379000D02*
X196723000Y-111379000D01*
X197104000Y-113411000D02*
X196723000Y-113411000D01*
X197104000Y-113919000D02*
X196723000Y-113919000D01*
X197104000Y-115951000D02*
X196723000Y-115951000D01*
X197104000Y-116459000D02*
X196723000Y-116459000D01*
X197104000Y-118999000D02*
X196723000Y-118999000D01*
X197104000Y-118491000D02*
X196723000Y-118491000D01*
X197104000Y-109855000D02*
X199644000Y-109855000D01*
X197104000Y-112395000D02*
X199644000Y-112395000D01*
X197104000Y-112395000D02*
X197104000Y-114935000D01*
X197104000Y-114935000D02*
X199644000Y-114935000D01*
X199644000Y-113411000D02*
X205740000Y-113411000D01*
X205740000Y-113411000D02*
X205740000Y-113919000D01*
X205740000Y-113919000D02*
X199644000Y-113919000D01*
X199644000Y-114935000D02*
X199644000Y-112395000D01*
X199644000Y-112395000D02*
X199644000Y-109855000D01*
X205740000Y-111379000D02*
X199644000Y-111379000D01*
X205740000Y-110871000D02*
X205740000Y-111379000D01*
X199644000Y-110871000D02*
X205740000Y-110871000D01*
X197104000Y-112395000D02*
X199644000Y-112395000D01*
X197104000Y-109855000D02*
X197104000Y-112395000D01*
X197104000Y-117475000D02*
X199644000Y-117475000D01*
X197104000Y-117475000D02*
X197104000Y-120015000D01*
X197104000Y-120015000D02*
X199644000Y-120015000D01*
X199644000Y-118491000D02*
X205740000Y-118491000D01*
X205740000Y-118491000D02*
X205740000Y-118999000D01*
X205740000Y-118999000D02*
X199644000Y-118999000D01*
X199644000Y-120015000D02*
X199644000Y-117475000D01*
X199644000Y-117475000D02*
X199644000Y-114935000D01*
X205740000Y-116459000D02*
X199644000Y-116459000D01*
X205740000Y-115951000D02*
X205740000Y-116459000D01*
X199644000Y-115951000D02*
X205740000Y-115951000D01*
X197104000Y-117475000D02*
X199644000Y-117475000D01*
X197104000Y-114935000D02*
X197104000Y-117475000D01*
X197104000Y-114935000D02*
X199644000Y-114935000D01*
X109250000Y-120295000D02*
X109250000Y-118745000D01*
X107950000Y-120295000D02*
X109250000Y-120295000D01*
X103759000Y-118872000D02*
X97917000Y-118872000D01*
X97917000Y-118872000D02*
X97917000Y-118618000D01*
X97917000Y-118618000D02*
X103759000Y-118618000D01*
X103759000Y-118618000D02*
X103759000Y-118745000D01*
X103759000Y-118745000D02*
X97917000Y-118745000D01*
X106426000Y-118999000D02*
X106807000Y-118999000D01*
X106426000Y-118491000D02*
X106807000Y-118491000D01*
X106426000Y-116459000D02*
X106807000Y-116459000D01*
X106426000Y-115951000D02*
X106807000Y-115951000D01*
X106426000Y-113919000D02*
X106807000Y-113919000D01*
X106426000Y-113411000D02*
X106807000Y-113411000D01*
X106426000Y-110871000D02*
X106807000Y-110871000D01*
X106426000Y-111379000D02*
X106807000Y-111379000D01*
X106426000Y-120015000D02*
X103886000Y-120015000D01*
X106426000Y-117475000D02*
X103886000Y-117475000D01*
X106426000Y-117475000D02*
X106426000Y-114935000D01*
X106426000Y-114935000D02*
X103886000Y-114935000D01*
X103886000Y-116459000D02*
X97790000Y-116459000D01*
X97790000Y-116459000D02*
X97790000Y-115951000D01*
X97790000Y-115951000D02*
X103886000Y-115951000D01*
X103886000Y-114935000D02*
X103886000Y-117475000D01*
X103886000Y-117475000D02*
X103886000Y-120015000D01*
X97790000Y-118491000D02*
X103886000Y-118491000D01*
X97790000Y-118999000D02*
X97790000Y-118491000D01*
X103886000Y-118999000D02*
X97790000Y-118999000D01*
X106426000Y-117475000D02*
X103886000Y-117475000D01*
X106426000Y-120015000D02*
X106426000Y-117475000D01*
X106426000Y-112395000D02*
X103886000Y-112395000D01*
X106426000Y-112395000D02*
X106426000Y-109855000D01*
X106426000Y-109855000D02*
X103886000Y-109855000D01*
X103886000Y-111379000D02*
X97790000Y-111379000D01*
X97790000Y-111379000D02*
X97790000Y-110871000D01*
X97790000Y-110871000D02*
X103886000Y-110871000D01*
X103886000Y-109855000D02*
X103886000Y-112395000D01*
X103886000Y-112395000D02*
X103886000Y-114935000D01*
X97790000Y-113411000D02*
X103886000Y-113411000D01*
X97790000Y-113919000D02*
X97790000Y-113411000D01*
X103886000Y-113919000D02*
X97790000Y-113919000D01*
X106426000Y-112395000D02*
X103886000Y-112395000D01*
X106426000Y-114935000D02*
X106426000Y-112395000D01*
X106426000Y-114935000D02*
X103886000Y-114935000D01*
X191225180Y-101650800D02*
X191225180Y-100949760D01*
X191225180Y-100949760D02*
X191474100Y-100949760D01*
X194024160Y-100949760D02*
X194224820Y-100949760D01*
X194224820Y-100949760D02*
X194224820Y-101650800D01*
X169635180Y-101650800D02*
X169635180Y-100949760D01*
X169635180Y-100949760D02*
X169884100Y-100949760D01*
X172434160Y-100949760D02*
X172634820Y-100949760D01*
X172634820Y-100949760D02*
X172634820Y-101650800D01*
X131535180Y-101650800D02*
X131535180Y-100949760D01*
X131535180Y-100949760D02*
X131784100Y-100949760D01*
X134334160Y-100949760D02*
X134534820Y-100949760D01*
X134534820Y-100949760D02*
X134534820Y-101650800D01*
X151220180Y-101650800D02*
X151220180Y-100949760D01*
X151220180Y-100949760D02*
X151469100Y-100949760D01*
X154019160Y-100949760D02*
X154219820Y-100949760D01*
X154219820Y-100949760D02*
X154219820Y-101650800D01*
X105815180Y-101650800D02*
X105815180Y-100949760D01*
X105815180Y-100949760D02*
X106064100Y-100949760D01*
X108614160Y-100949760D02*
X108814820Y-100949760D01*
X108814820Y-100949760D02*
X108814820Y-101650800D01*
X135120000Y-110403000D02*
X134120000Y-110403000D01*
X134120000Y-109053000D02*
X135120000Y-109053000D01*
X172045000Y-122928000D02*
X172045000Y-121928000D01*
X173395000Y-121928000D02*
X173395000Y-122928000D01*
X169505000Y-122928000D02*
X169505000Y-121928000D01*
X170855000Y-121928000D02*
X170855000Y-122928000D01*
X166965000Y-122928000D02*
X166965000Y-121928000D01*
X168315000Y-121928000D02*
X168315000Y-122928000D01*
X164425000Y-122928000D02*
X164425000Y-121928000D01*
X165775000Y-121928000D02*
X165775000Y-122928000D01*
X161885000Y-122928000D02*
X161885000Y-121928000D01*
X163235000Y-121928000D02*
X163235000Y-122928000D01*
X159345000Y-122928000D02*
X159345000Y-121928000D01*
X160695000Y-121928000D02*
X160695000Y-122928000D01*
X156805000Y-122928000D02*
X156805000Y-121928000D01*
X158155000Y-121928000D02*
X158155000Y-122928000D01*
X177125000Y-122928000D02*
X177125000Y-121928000D01*
X178475000Y-121928000D02*
X178475000Y-122928000D01*
X159345000Y-113276000D02*
X159345000Y-112276000D01*
X160695000Y-112276000D02*
X160695000Y-113276000D01*
X161885000Y-113276000D02*
X161885000Y-112276000D01*
X163235000Y-112276000D02*
X163235000Y-113276000D01*
X164425000Y-113276000D02*
X164425000Y-112276000D01*
X165775000Y-112276000D02*
X165775000Y-113276000D01*
X166965000Y-113276000D02*
X166965000Y-112276000D01*
X168315000Y-112276000D02*
X168315000Y-113276000D01*
X169505000Y-113276000D02*
X169505000Y-112276000D01*
X170855000Y-112276000D02*
X170855000Y-113276000D01*
X172045000Y-113276000D02*
X172045000Y-112276000D01*
X173395000Y-112276000D02*
X173395000Y-113276000D01*
X174585000Y-113276000D02*
X174585000Y-112276000D01*
X175935000Y-112276000D02*
X175935000Y-113276000D01*
X177125000Y-113276000D02*
X177125000Y-112276000D01*
X178475000Y-112276000D02*
X178475000Y-113276000D01*
X181015000Y-107450000D02*
X181015000Y-108450000D01*
X179665000Y-108450000D02*
X179665000Y-107450000D01*
X160155000Y-106005000D02*
X161155000Y-106005000D01*
X161155000Y-107355000D02*
X160155000Y-107355000D01*
X127135000Y-102195000D02*
X128135000Y-102195000D01*
X128135000Y-103545000D02*
X127135000Y-103545000D01*
X147455000Y-102195000D02*
X148455000Y-102195000D01*
X148455000Y-103545000D02*
X147455000Y-103545000D01*
X106164000Y-107228000D02*
X105164000Y-107228000D01*
X105164000Y-105878000D02*
X106164000Y-105878000D01*
X123952000Y-118364000D02*
X123952000Y-118745000D01*
X123952000Y-121666000D02*
X123952000Y-121285000D01*
X133858000Y-121666000D02*
X133858000Y-121285000D01*
X133858000Y-118364000D02*
X133858000Y-118745000D01*
X134620000Y-117475000D02*
X134620000Y-118745000D01*
X134620000Y-122555000D02*
X134620000Y-121285000D01*
X123190000Y-122555000D02*
X123190000Y-121285000D01*
X123190000Y-117475000D02*
X123190000Y-118745000D01*
X123952000Y-121666000D02*
X124587000Y-122301000D01*
X124587000Y-122301000D02*
X133223000Y-122301000D01*
X133223000Y-122301000D02*
X133858000Y-121666000D01*
X133858000Y-118364000D02*
X133223000Y-117729000D01*
X133223000Y-117729000D02*
X124587000Y-117729000D01*
X124587000Y-117729000D02*
X123952000Y-118364000D01*
X134620000Y-122555000D02*
X123190000Y-122555000D01*
X123190000Y-117475000D02*
X134620000Y-117475000D01*
X120015000Y-123825000D02*
X120015000Y-126365000D01*
X120295000Y-121005000D02*
X120295000Y-122555000D01*
X120015000Y-123825000D02*
X117475000Y-123825000D01*
X117195000Y-122555000D02*
X117195000Y-121005000D01*
X117195000Y-121005000D02*
X120295000Y-121005000D01*
X117475000Y-123825000D02*
X117475000Y-126365000D01*
X117475000Y-126365000D02*
X120015000Y-126365000D01*
D12*
G36*
X177393629Y-76564066D02*
X177433111Y-76564467D01*
X177548800Y-76567259D01*
X177645689Y-76575550D01*
X177727081Y-76590232D01*
X177796277Y-76612193D01*
X177856580Y-76642322D01*
X177911292Y-76681510D01*
X177930833Y-76698532D01*
X177963250Y-76738363D01*
X177992480Y-76792413D01*
X178015009Y-76852323D01*
X178027321Y-76909739D01*
X178028600Y-76930956D01*
X178020583Y-76989769D01*
X177999101Y-77054013D01*
X177968001Y-77114821D01*
X177931134Y-77163330D01*
X177925146Y-77169182D01*
X177874421Y-77210321D01*
X177818875Y-77242435D01*
X177755304Y-77266365D01*
X177680506Y-77282953D01*
X177591278Y-77293041D01*
X177484418Y-77297469D01*
X177435472Y-77297845D01*
X177373238Y-77297545D01*
X177329472Y-77296292D01*
X177300069Y-77293554D01*
X177280921Y-77288801D01*
X177267923Y-77281501D01*
X177260955Y-77275267D01*
X177254374Y-77267694D01*
X177249212Y-77257924D01*
X177245297Y-77243340D01*
X177242457Y-77221326D01*
X177240520Y-77189264D01*
X177239316Y-77144536D01*
X177238672Y-77084526D01*
X177238417Y-77006617D01*
X177238378Y-76930956D01*
X177238130Y-76830041D01*
X177238183Y-76749427D01*
X177239143Y-76710822D01*
X177385133Y-76710822D01*
X177385133Y-77151089D01*
X177478266Y-77151004D01*
X177534307Y-77149396D01*
X177593001Y-77145256D01*
X177641972Y-77139464D01*
X177643462Y-77139226D01*
X177722608Y-77120090D01*
X177783998Y-77090287D01*
X177830695Y-77047878D01*
X177860365Y-77001961D01*
X177878647Y-76951026D01*
X177877229Y-76903200D01*
X177856012Y-76851933D01*
X177814511Y-76798899D01*
X177757002Y-76759600D01*
X177682250Y-76733331D01*
X177632292Y-76724035D01*
X177575584Y-76717507D01*
X177515481Y-76712782D01*
X177464361Y-76710817D01*
X177461333Y-76710808D01*
X177385133Y-76710822D01*
X177239143Y-76710822D01*
X177239740Y-76686851D01*
X177244002Y-76640055D01*
X177252170Y-76606778D01*
X177265444Y-76584759D01*
X177285026Y-76571739D01*
X177312117Y-76565457D01*
X177347918Y-76563653D01*
X177393629Y-76564066D01*
X177393629Y-76564066D01*
G37*
X177393629Y-76564066D02*
X177433111Y-76564467D01*
X177548800Y-76567259D01*
X177645689Y-76575550D01*
X177727081Y-76590232D01*
X177796277Y-76612193D01*
X177856580Y-76642322D01*
X177911292Y-76681510D01*
X177930833Y-76698532D01*
X177963250Y-76738363D01*
X177992480Y-76792413D01*
X178015009Y-76852323D01*
X178027321Y-76909739D01*
X178028600Y-76930956D01*
X178020583Y-76989769D01*
X177999101Y-77054013D01*
X177968001Y-77114821D01*
X177931134Y-77163330D01*
X177925146Y-77169182D01*
X177874421Y-77210321D01*
X177818875Y-77242435D01*
X177755304Y-77266365D01*
X177680506Y-77282953D01*
X177591278Y-77293041D01*
X177484418Y-77297469D01*
X177435472Y-77297845D01*
X177373238Y-77297545D01*
X177329472Y-77296292D01*
X177300069Y-77293554D01*
X177280921Y-77288801D01*
X177267923Y-77281501D01*
X177260955Y-77275267D01*
X177254374Y-77267694D01*
X177249212Y-77257924D01*
X177245297Y-77243340D01*
X177242457Y-77221326D01*
X177240520Y-77189264D01*
X177239316Y-77144536D01*
X177238672Y-77084526D01*
X177238417Y-77006617D01*
X177238378Y-76930956D01*
X177238130Y-76830041D01*
X177238183Y-76749427D01*
X177239143Y-76710822D01*
X177385133Y-76710822D01*
X177385133Y-77151089D01*
X177478266Y-77151004D01*
X177534307Y-77149396D01*
X177593001Y-77145256D01*
X177641972Y-77139464D01*
X177643462Y-77139226D01*
X177722608Y-77120090D01*
X177783998Y-77090287D01*
X177830695Y-77047878D01*
X177860365Y-77001961D01*
X177878647Y-76951026D01*
X177877229Y-76903200D01*
X177856012Y-76851933D01*
X177814511Y-76798899D01*
X177757002Y-76759600D01*
X177682250Y-76733331D01*
X177632292Y-76724035D01*
X177575584Y-76717507D01*
X177515481Y-76712782D01*
X177464361Y-76710817D01*
X177461333Y-76710808D01*
X177385133Y-76710822D01*
X177239143Y-76710822D01*
X177239740Y-76686851D01*
X177244002Y-76640055D01*
X177252170Y-76606778D01*
X177265444Y-76584759D01*
X177285026Y-76571739D01*
X177312117Y-76565457D01*
X177347918Y-76563653D01*
X177393629Y-76564066D01*
G36*
X178802206Y-76564146D02*
X178871614Y-76564518D01*
X178924003Y-76565385D01*
X178962153Y-76566946D01*
X178988841Y-76569403D01*
X179006847Y-76572957D01*
X179018951Y-76577810D01*
X179027931Y-76584161D01*
X179031182Y-76587084D01*
X179050957Y-76618142D01*
X179054518Y-76653828D01*
X179041509Y-76685510D01*
X179035494Y-76691913D01*
X179025765Y-76698121D01*
X179010099Y-76702910D01*
X178985592Y-76706514D01*
X178949339Y-76709164D01*
X178898435Y-76711095D01*
X178829974Y-76712539D01*
X178767383Y-76713418D01*
X178519666Y-76716467D01*
X178516281Y-76781378D01*
X178512895Y-76846289D01*
X178681042Y-76846289D01*
X178754041Y-76846919D01*
X178807483Y-76849553D01*
X178844372Y-76855309D01*
X178867712Y-76865304D01*
X178880506Y-76880656D01*
X178885758Y-76902482D01*
X178886555Y-76922738D01*
X178884077Y-76947592D01*
X178874723Y-76965906D01*
X178855617Y-76978637D01*
X178823882Y-76986741D01*
X178776641Y-76991176D01*
X178711017Y-76992899D01*
X178675199Y-76993045D01*
X178514022Y-76993045D01*
X178514022Y-77151089D01*
X178762378Y-77151089D01*
X178843787Y-77151202D01*
X178905658Y-77151712D01*
X178951032Y-77152870D01*
X178982946Y-77154930D01*
X179004441Y-77158146D01*
X179018557Y-77162772D01*
X179028332Y-77169059D01*
X179033311Y-77173667D01*
X179050390Y-77200560D01*
X179055889Y-77224467D01*
X179048037Y-77253667D01*
X179033311Y-77275267D01*
X179025454Y-77282066D01*
X179015312Y-77287346D01*
X179000156Y-77291298D01*
X178977259Y-77294113D01*
X178943891Y-77295982D01*
X178897325Y-77297098D01*
X178834833Y-77297651D01*
X178753686Y-77297833D01*
X178711578Y-77297845D01*
X178621402Y-77297765D01*
X178551076Y-77297398D01*
X178497871Y-77296552D01*
X178459060Y-77295036D01*
X178431913Y-77292659D01*
X178413702Y-77289229D01*
X178401700Y-77284554D01*
X178393178Y-77278444D01*
X178389844Y-77275267D01*
X178383245Y-77267670D01*
X178378073Y-77257870D01*
X178374154Y-77243239D01*
X178371316Y-77221152D01*
X178369385Y-77188982D01*
X178368188Y-77144103D01*
X178367552Y-77083889D01*
X178367303Y-77005713D01*
X178367266Y-76932923D01*
X178367300Y-76839707D01*
X178367535Y-76766431D01*
X178368170Y-76710458D01*
X178369406Y-76669151D01*
X178371444Y-76639872D01*
X178374483Y-76619984D01*
X178378723Y-76606850D01*
X178384365Y-76597832D01*
X178391609Y-76590293D01*
X178393394Y-76588612D01*
X178402055Y-76581172D01*
X178412118Y-76575409D01*
X178426375Y-76571112D01*
X178447617Y-76568064D01*
X178478636Y-76566051D01*
X178522223Y-76564860D01*
X178581169Y-76564275D01*
X178658266Y-76564083D01*
X178712999Y-76564067D01*
X178802206Y-76564146D01*
X178802206Y-76564146D01*
G37*
X178802206Y-76564146D02*
X178871614Y-76564518D01*
X178924003Y-76565385D01*
X178962153Y-76566946D01*
X178988841Y-76569403D01*
X179006847Y-76572957D01*
X179018951Y-76577810D01*
X179027931Y-76584161D01*
X179031182Y-76587084D01*
X179050957Y-76618142D01*
X179054518Y-76653828D01*
X179041509Y-76685510D01*
X179035494Y-76691913D01*
X179025765Y-76698121D01*
X179010099Y-76702910D01*
X178985592Y-76706514D01*
X178949339Y-76709164D01*
X178898435Y-76711095D01*
X178829974Y-76712539D01*
X178767383Y-76713418D01*
X178519666Y-76716467D01*
X178516281Y-76781378D01*
X178512895Y-76846289D01*
X178681042Y-76846289D01*
X178754041Y-76846919D01*
X178807483Y-76849553D01*
X178844372Y-76855309D01*
X178867712Y-76865304D01*
X178880506Y-76880656D01*
X178885758Y-76902482D01*
X178886555Y-76922738D01*
X178884077Y-76947592D01*
X178874723Y-76965906D01*
X178855617Y-76978637D01*
X178823882Y-76986741D01*
X178776641Y-76991176D01*
X178711017Y-76992899D01*
X178675199Y-76993045D01*
X178514022Y-76993045D01*
X178514022Y-77151089D01*
X178762378Y-77151089D01*
X178843787Y-77151202D01*
X178905658Y-77151712D01*
X178951032Y-77152870D01*
X178982946Y-77154930D01*
X179004441Y-77158146D01*
X179018557Y-77162772D01*
X179028332Y-77169059D01*
X179033311Y-77173667D01*
X179050390Y-77200560D01*
X179055889Y-77224467D01*
X179048037Y-77253667D01*
X179033311Y-77275267D01*
X179025454Y-77282066D01*
X179015312Y-77287346D01*
X179000156Y-77291298D01*
X178977259Y-77294113D01*
X178943891Y-77295982D01*
X178897325Y-77297098D01*
X178834833Y-77297651D01*
X178753686Y-77297833D01*
X178711578Y-77297845D01*
X178621402Y-77297765D01*
X178551076Y-77297398D01*
X178497871Y-77296552D01*
X178459060Y-77295036D01*
X178431913Y-77292659D01*
X178413702Y-77289229D01*
X178401700Y-77284554D01*
X178393178Y-77278444D01*
X178389844Y-77275267D01*
X178383245Y-77267670D01*
X178378073Y-77257870D01*
X178374154Y-77243239D01*
X178371316Y-77221152D01*
X178369385Y-77188982D01*
X178368188Y-77144103D01*
X178367552Y-77083889D01*
X178367303Y-77005713D01*
X178367266Y-76932923D01*
X178367300Y-76839707D01*
X178367535Y-76766431D01*
X178368170Y-76710458D01*
X178369406Y-76669151D01*
X178371444Y-76639872D01*
X178374483Y-76619984D01*
X178378723Y-76606850D01*
X178384365Y-76597832D01*
X178391609Y-76590293D01*
X178393394Y-76588612D01*
X178402055Y-76581172D01*
X178412118Y-76575409D01*
X178426375Y-76571112D01*
X178447617Y-76568064D01*
X178478636Y-76566051D01*
X178522223Y-76564860D01*
X178581169Y-76564275D01*
X178658266Y-76564083D01*
X178712999Y-76564067D01*
X178802206Y-76564146D01*
G36*
X179823297Y-76565351D02*
X179898112Y-76570581D01*
X179967694Y-76578750D01*
X180027998Y-76589550D01*
X180074980Y-76602673D01*
X180104594Y-76617813D01*
X180109140Y-76622269D01*
X180124946Y-76656850D01*
X180120153Y-76692351D01*
X180095636Y-76722725D01*
X180094466Y-76723596D01*
X180080046Y-76732954D01*
X180064992Y-76737876D01*
X180043995Y-76738473D01*
X180011743Y-76734861D01*
X179962927Y-76727154D01*
X179959000Y-76726505D01*
X179886261Y-76717569D01*
X179807783Y-76713161D01*
X179729073Y-76713119D01*
X179655639Y-76717279D01*
X179592989Y-76725479D01*
X179546630Y-76737557D01*
X179543584Y-76738771D01*
X179509952Y-76757615D01*
X179498136Y-76776685D01*
X179507386Y-76795439D01*
X179536953Y-76813337D01*
X179586089Y-76829837D01*
X179654043Y-76844396D01*
X179699355Y-76851406D01*
X179793544Y-76864889D01*
X179868456Y-76877214D01*
X179927283Y-76889449D01*
X179973215Y-76902661D01*
X180009445Y-76917917D01*
X180039162Y-76936285D01*
X180065558Y-76958831D01*
X180086770Y-76980971D01*
X180111935Y-77011819D01*
X180124319Y-77038345D01*
X180128192Y-77071026D01*
X180128333Y-77082995D01*
X180125424Y-77122712D01*
X180113798Y-77152259D01*
X180093677Y-77178486D01*
X180052784Y-77218576D01*
X180007183Y-77249149D01*
X179953487Y-77271203D01*
X179888308Y-77285735D01*
X179808256Y-77293741D01*
X179709943Y-77296218D01*
X179693711Y-77296177D01*
X179628151Y-77294818D01*
X179563134Y-77291730D01*
X179505748Y-77287356D01*
X179463078Y-77282140D01*
X179459628Y-77281541D01*
X179417204Y-77271491D01*
X179381220Y-77258796D01*
X179360850Y-77247190D01*
X179341893Y-77216572D01*
X179340573Y-77180918D01*
X179356915Y-77149144D01*
X179360571Y-77145551D01*
X179375685Y-77134876D01*
X179394585Y-77130276D01*
X179423838Y-77131059D01*
X179459349Y-77135127D01*
X179499030Y-77138762D01*
X179554655Y-77141828D01*
X179619594Y-77144053D01*
X179687215Y-77145164D01*
X179705000Y-77145237D01*
X179772872Y-77144964D01*
X179822546Y-77143646D01*
X179858390Y-77140827D01*
X179884776Y-77136050D01*
X179906074Y-77128857D01*
X179918874Y-77122867D01*
X179947000Y-77106233D01*
X179964932Y-77091168D01*
X179967553Y-77086897D01*
X179962024Y-77069263D01*
X179935740Y-77052192D01*
X179890522Y-77036458D01*
X179828192Y-77022838D01*
X179809829Y-77019804D01*
X179713910Y-77004738D01*
X179637359Y-76992146D01*
X179577220Y-76981111D01*
X179530540Y-76970720D01*
X179494363Y-76960056D01*
X179465735Y-76948205D01*
X179441702Y-76934251D01*
X179419308Y-76917281D01*
X179395598Y-76896378D01*
X179387620Y-76889049D01*
X179359647Y-76861699D01*
X179344840Y-76840029D01*
X179339048Y-76815232D01*
X179338111Y-76783983D01*
X179348425Y-76722705D01*
X179379248Y-76670640D01*
X179430405Y-76627958D01*
X179501717Y-76594825D01*
X179552600Y-76579964D01*
X179607900Y-76570366D01*
X179674147Y-76564936D01*
X179747294Y-76563367D01*
X179823297Y-76565351D01*
X179823297Y-76565351D01*
G37*
X179823297Y-76565351D02*
X179898112Y-76570581D01*
X179967694Y-76578750D01*
X180027998Y-76589550D01*
X180074980Y-76602673D01*
X180104594Y-76617813D01*
X180109140Y-76622269D01*
X180124946Y-76656850D01*
X180120153Y-76692351D01*
X180095636Y-76722725D01*
X180094466Y-76723596D01*
X180080046Y-76732954D01*
X180064992Y-76737876D01*
X180043995Y-76738473D01*
X180011743Y-76734861D01*
X179962927Y-76727154D01*
X179959000Y-76726505D01*
X179886261Y-76717569D01*
X179807783Y-76713161D01*
X179729073Y-76713119D01*
X179655639Y-76717279D01*
X179592989Y-76725479D01*
X179546630Y-76737557D01*
X179543584Y-76738771D01*
X179509952Y-76757615D01*
X179498136Y-76776685D01*
X179507386Y-76795439D01*
X179536953Y-76813337D01*
X179586089Y-76829837D01*
X179654043Y-76844396D01*
X179699355Y-76851406D01*
X179793544Y-76864889D01*
X179868456Y-76877214D01*
X179927283Y-76889449D01*
X179973215Y-76902661D01*
X180009445Y-76917917D01*
X180039162Y-76936285D01*
X180065558Y-76958831D01*
X180086770Y-76980971D01*
X180111935Y-77011819D01*
X180124319Y-77038345D01*
X180128192Y-77071026D01*
X180128333Y-77082995D01*
X180125424Y-77122712D01*
X180113798Y-77152259D01*
X180093677Y-77178486D01*
X180052784Y-77218576D01*
X180007183Y-77249149D01*
X179953487Y-77271203D01*
X179888308Y-77285735D01*
X179808256Y-77293741D01*
X179709943Y-77296218D01*
X179693711Y-77296177D01*
X179628151Y-77294818D01*
X179563134Y-77291730D01*
X179505748Y-77287356D01*
X179463078Y-77282140D01*
X179459628Y-77281541D01*
X179417204Y-77271491D01*
X179381220Y-77258796D01*
X179360850Y-77247190D01*
X179341893Y-77216572D01*
X179340573Y-77180918D01*
X179356915Y-77149144D01*
X179360571Y-77145551D01*
X179375685Y-77134876D01*
X179394585Y-77130276D01*
X179423838Y-77131059D01*
X179459349Y-77135127D01*
X179499030Y-77138762D01*
X179554655Y-77141828D01*
X179619594Y-77144053D01*
X179687215Y-77145164D01*
X179705000Y-77145237D01*
X179772872Y-77144964D01*
X179822546Y-77143646D01*
X179858390Y-77140827D01*
X179884776Y-77136050D01*
X179906074Y-77128857D01*
X179918874Y-77122867D01*
X179947000Y-77106233D01*
X179964932Y-77091168D01*
X179967553Y-77086897D01*
X179962024Y-77069263D01*
X179935740Y-77052192D01*
X179890522Y-77036458D01*
X179828192Y-77022838D01*
X179809829Y-77019804D01*
X179713910Y-77004738D01*
X179637359Y-76992146D01*
X179577220Y-76981111D01*
X179530540Y-76970720D01*
X179494363Y-76960056D01*
X179465735Y-76948205D01*
X179441702Y-76934251D01*
X179419308Y-76917281D01*
X179395598Y-76896378D01*
X179387620Y-76889049D01*
X179359647Y-76861699D01*
X179344840Y-76840029D01*
X179339048Y-76815232D01*
X179338111Y-76783983D01*
X179348425Y-76722705D01*
X179379248Y-76670640D01*
X179430405Y-76627958D01*
X179501717Y-76594825D01*
X179552600Y-76579964D01*
X179607900Y-76570366D01*
X179674147Y-76564936D01*
X179747294Y-76563367D01*
X179823297Y-76565351D01*
G36*
X180591178Y-76586645D02*
X180597758Y-76594218D01*
X180602921Y-76603987D01*
X180606836Y-76618571D01*
X180609676Y-76640585D01*
X180611613Y-76672648D01*
X180612817Y-76717375D01*
X180613461Y-76777385D01*
X180613716Y-76855294D01*
X180613755Y-76930956D01*
X180613686Y-77024802D01*
X180613362Y-77098689D01*
X180612614Y-77155232D01*
X180611268Y-77197049D01*
X180609154Y-77226757D01*
X180606100Y-77246973D01*
X180601934Y-77260314D01*
X180596484Y-77269398D01*
X180591178Y-77275267D01*
X180558174Y-77294947D01*
X180523009Y-77293181D01*
X180491545Y-77271717D01*
X180484316Y-77263337D01*
X180478666Y-77253614D01*
X180474401Y-77239861D01*
X180471327Y-77219389D01*
X180469248Y-77189512D01*
X180467970Y-77147541D01*
X180467299Y-77090789D01*
X180467041Y-77016567D01*
X180467000Y-76932537D01*
X180467000Y-76619485D01*
X180494709Y-76591776D01*
X180528863Y-76568463D01*
X180561994Y-76567623D01*
X180591178Y-76586645D01*
X180591178Y-76586645D01*
G37*
X180591178Y-76586645D02*
X180597758Y-76594218D01*
X180602921Y-76603987D01*
X180606836Y-76618571D01*
X180609676Y-76640585D01*
X180611613Y-76672648D01*
X180612817Y-76717375D01*
X180613461Y-76777385D01*
X180613716Y-76855294D01*
X180613755Y-76930956D01*
X180613686Y-77024802D01*
X180613362Y-77098689D01*
X180612614Y-77155232D01*
X180611268Y-77197049D01*
X180609154Y-77226757D01*
X180606100Y-77246973D01*
X180601934Y-77260314D01*
X180596484Y-77269398D01*
X180591178Y-77275267D01*
X180558174Y-77294947D01*
X180523009Y-77293181D01*
X180491545Y-77271717D01*
X180484316Y-77263337D01*
X180478666Y-77253614D01*
X180474401Y-77239861D01*
X180471327Y-77219389D01*
X180469248Y-77189512D01*
X180467970Y-77147541D01*
X180467299Y-77090789D01*
X180467041Y-77016567D01*
X180467000Y-76932537D01*
X180467000Y-76619485D01*
X180494709Y-76591776D01*
X180528863Y-76568463D01*
X180561994Y-76567623D01*
X180591178Y-76586645D01*
G36*
X181564919Y-76569599D02*
X181633435Y-76581095D01*
X181686057Y-76598967D01*
X181720292Y-76622499D01*
X181729621Y-76635924D01*
X181739107Y-76667148D01*
X181732723Y-76695395D01*
X181712570Y-76722182D01*
X181681255Y-76734713D01*
X181635817Y-76733696D01*
X181600674Y-76726906D01*
X181522581Y-76713971D01*
X181442774Y-76712742D01*
X181353445Y-76723241D01*
X181328771Y-76727690D01*
X181245709Y-76751108D01*
X181180727Y-76785945D01*
X181134539Y-76831604D01*
X181107855Y-76887494D01*
X181102337Y-76916388D01*
X181105949Y-76975012D01*
X181129271Y-77026879D01*
X181170176Y-77070978D01*
X181226541Y-77106299D01*
X181296240Y-77131829D01*
X181377148Y-77146559D01*
X181467140Y-77149478D01*
X181564090Y-77139575D01*
X181569564Y-77138641D01*
X181608125Y-77131459D01*
X181629506Y-77124521D01*
X181638773Y-77114227D01*
X181640994Y-77096976D01*
X181641044Y-77087841D01*
X181641044Y-77049489D01*
X181572569Y-77049489D01*
X181512100Y-77045347D01*
X181470835Y-77032147D01*
X181446825Y-77008730D01*
X181438123Y-76973936D01*
X181438017Y-76969394D01*
X181443108Y-76939654D01*
X181460567Y-76918419D01*
X181493061Y-76904366D01*
X181543257Y-76896173D01*
X181591877Y-76893161D01*
X181662544Y-76891433D01*
X181713802Y-76894070D01*
X181748761Y-76903800D01*
X181770530Y-76923353D01*
X181782220Y-76955456D01*
X181786940Y-77002838D01*
X181787800Y-77065071D01*
X181786391Y-77134535D01*
X181782152Y-77181786D01*
X181775064Y-77207012D01*
X181773689Y-77208988D01*
X181734772Y-77240508D01*
X181677714Y-77265470D01*
X181606131Y-77283340D01*
X181523642Y-77293586D01*
X181433861Y-77295673D01*
X181340408Y-77289068D01*
X181285444Y-77280956D01*
X181199234Y-77256554D01*
X181119108Y-77216662D01*
X181052023Y-77164887D01*
X181041827Y-77154539D01*
X181008698Y-77111035D01*
X180978806Y-77057118D01*
X180955643Y-77000592D01*
X180942702Y-76949259D01*
X180941142Y-76929544D01*
X180947782Y-76888419D01*
X180965432Y-76837252D01*
X180990703Y-76783394D01*
X181020211Y-76734195D01*
X181046281Y-76701334D01*
X181107235Y-76652452D01*
X181186031Y-76613545D01*
X181279843Y-76585494D01*
X181385850Y-76569179D01*
X181483000Y-76565192D01*
X181564919Y-76569599D01*
X181564919Y-76569599D01*
G37*
X181564919Y-76569599D02*
X181633435Y-76581095D01*
X181686057Y-76598967D01*
X181720292Y-76622499D01*
X181729621Y-76635924D01*
X181739107Y-76667148D01*
X181732723Y-76695395D01*
X181712570Y-76722182D01*
X181681255Y-76734713D01*
X181635817Y-76733696D01*
X181600674Y-76726906D01*
X181522581Y-76713971D01*
X181442774Y-76712742D01*
X181353445Y-76723241D01*
X181328771Y-76727690D01*
X181245709Y-76751108D01*
X181180727Y-76785945D01*
X181134539Y-76831604D01*
X181107855Y-76887494D01*
X181102337Y-76916388D01*
X181105949Y-76975012D01*
X181129271Y-77026879D01*
X181170176Y-77070978D01*
X181226541Y-77106299D01*
X181296240Y-77131829D01*
X181377148Y-77146559D01*
X181467140Y-77149478D01*
X181564090Y-77139575D01*
X181569564Y-77138641D01*
X181608125Y-77131459D01*
X181629506Y-77124521D01*
X181638773Y-77114227D01*
X181640994Y-77096976D01*
X181641044Y-77087841D01*
X181641044Y-77049489D01*
X181572569Y-77049489D01*
X181512100Y-77045347D01*
X181470835Y-77032147D01*
X181446825Y-77008730D01*
X181438123Y-76973936D01*
X181438017Y-76969394D01*
X181443108Y-76939654D01*
X181460567Y-76918419D01*
X181493061Y-76904366D01*
X181543257Y-76896173D01*
X181591877Y-76893161D01*
X181662544Y-76891433D01*
X181713802Y-76894070D01*
X181748761Y-76903800D01*
X181770530Y-76923353D01*
X181782220Y-76955456D01*
X181786940Y-77002838D01*
X181787800Y-77065071D01*
X181786391Y-77134535D01*
X181782152Y-77181786D01*
X181775064Y-77207012D01*
X181773689Y-77208988D01*
X181734772Y-77240508D01*
X181677714Y-77265470D01*
X181606131Y-77283340D01*
X181523642Y-77293586D01*
X181433861Y-77295673D01*
X181340408Y-77289068D01*
X181285444Y-77280956D01*
X181199234Y-77256554D01*
X181119108Y-77216662D01*
X181052023Y-77164887D01*
X181041827Y-77154539D01*
X181008698Y-77111035D01*
X180978806Y-77057118D01*
X180955643Y-77000592D01*
X180942702Y-76949259D01*
X180941142Y-76929544D01*
X180947782Y-76888419D01*
X180965432Y-76837252D01*
X180990703Y-76783394D01*
X181020211Y-76734195D01*
X181046281Y-76701334D01*
X181107235Y-76652452D01*
X181186031Y-76613545D01*
X181279843Y-76585494D01*
X181385850Y-76569179D01*
X181483000Y-76565192D01*
X181564919Y-76569599D01*
G36*
X182214886Y-76568448D02*
X182238452Y-76582273D01*
X182269265Y-76604881D01*
X182308922Y-76637338D01*
X182359020Y-76680708D01*
X182421157Y-76736058D01*
X182496928Y-76804451D01*
X182583666Y-76883084D01*
X182764289Y-77046878D01*
X182769933Y-76827029D01*
X182771971Y-76751351D01*
X182773937Y-76694994D01*
X182776266Y-76654706D01*
X182779394Y-76627235D01*
X182783755Y-76609329D01*
X182789784Y-76597737D01*
X182797916Y-76589208D01*
X182802228Y-76585623D01*
X182836759Y-76566670D01*
X182869617Y-76569441D01*
X182895682Y-76585633D01*
X182922333Y-76607199D01*
X182925648Y-76922151D01*
X182926565Y-77014779D01*
X182927032Y-77087544D01*
X182926887Y-77143161D01*
X182925968Y-77184342D01*
X182924113Y-77213803D01*
X182921161Y-77234255D01*
X182916950Y-77248413D01*
X182911318Y-77258991D01*
X182905073Y-77267474D01*
X182891561Y-77283207D01*
X182878117Y-77293636D01*
X182862876Y-77297639D01*
X182843974Y-77294094D01*
X182819545Y-77281879D01*
X182787727Y-77259871D01*
X182746652Y-77226949D01*
X182694458Y-77181991D01*
X182629278Y-77123875D01*
X182555444Y-77057099D01*
X182290155Y-76816458D01*
X182284511Y-77035589D01*
X182282469Y-77111128D01*
X182280498Y-77167354D01*
X182278161Y-77207524D01*
X182275019Y-77234896D01*
X182270636Y-77252728D01*
X182264576Y-77264279D01*
X182256400Y-77272807D01*
X182252216Y-77276282D01*
X182215235Y-77295372D01*
X182180292Y-77292493D01*
X182149864Y-77268100D01*
X182142903Y-77258286D01*
X182137477Y-77246826D01*
X182133397Y-77230968D01*
X182130471Y-77207963D01*
X182128508Y-77175062D01*
X182127317Y-77129516D01*
X182126708Y-77068573D01*
X182126489Y-76989486D01*
X182126466Y-76930956D01*
X182126540Y-76839407D01*
X182126887Y-76767687D01*
X182127699Y-76713045D01*
X182129167Y-76672732D01*
X182131481Y-76643998D01*
X182134833Y-76624093D01*
X182139412Y-76610268D01*
X182145411Y-76599772D01*
X182149864Y-76593811D01*
X182161150Y-76579691D01*
X182171699Y-76569029D01*
X182183107Y-76562892D01*
X182196970Y-76562343D01*
X182214886Y-76568448D01*
X182214886Y-76568448D01*
G37*
X182214886Y-76568448D02*
X182238452Y-76582273D01*
X182269265Y-76604881D01*
X182308922Y-76637338D01*
X182359020Y-76680708D01*
X182421157Y-76736058D01*
X182496928Y-76804451D01*
X182583666Y-76883084D01*
X182764289Y-77046878D01*
X182769933Y-76827029D01*
X182771971Y-76751351D01*
X182773937Y-76694994D01*
X182776266Y-76654706D01*
X182779394Y-76627235D01*
X182783755Y-76609329D01*
X182789784Y-76597737D01*
X182797916Y-76589208D01*
X182802228Y-76585623D01*
X182836759Y-76566670D01*
X182869617Y-76569441D01*
X182895682Y-76585633D01*
X182922333Y-76607199D01*
X182925648Y-76922151D01*
X182926565Y-77014779D01*
X182927032Y-77087544D01*
X182926887Y-77143161D01*
X182925968Y-77184342D01*
X182924113Y-77213803D01*
X182921161Y-77234255D01*
X182916950Y-77248413D01*
X182911318Y-77258991D01*
X182905073Y-77267474D01*
X182891561Y-77283207D01*
X182878117Y-77293636D01*
X182862876Y-77297639D01*
X182843974Y-77294094D01*
X182819545Y-77281879D01*
X182787727Y-77259871D01*
X182746652Y-77226949D01*
X182694458Y-77181991D01*
X182629278Y-77123875D01*
X182555444Y-77057099D01*
X182290155Y-76816458D01*
X182284511Y-77035589D01*
X182282469Y-77111128D01*
X182280498Y-77167354D01*
X182278161Y-77207524D01*
X182275019Y-77234896D01*
X182270636Y-77252728D01*
X182264576Y-77264279D01*
X182256400Y-77272807D01*
X182252216Y-77276282D01*
X182215235Y-77295372D01*
X182180292Y-77292493D01*
X182149864Y-77268100D01*
X182142903Y-77258286D01*
X182137477Y-77246826D01*
X182133397Y-77230968D01*
X182130471Y-77207963D01*
X182128508Y-77175062D01*
X182127317Y-77129516D01*
X182126708Y-77068573D01*
X182126489Y-76989486D01*
X182126466Y-76930956D01*
X182126540Y-76839407D01*
X182126887Y-76767687D01*
X182127699Y-76713045D01*
X182129167Y-76672732D01*
X182131481Y-76643998D01*
X182134833Y-76624093D01*
X182139412Y-76610268D01*
X182145411Y-76599772D01*
X182149864Y-76593811D01*
X182161150Y-76579691D01*
X182171699Y-76569029D01*
X182183107Y-76562892D01*
X182196970Y-76562343D01*
X182214886Y-76568448D01*
G36*
X183745343Y-76564260D02*
X183821701Y-76565174D01*
X183880217Y-76567311D01*
X183923255Y-76571175D01*
X183953183Y-76577267D01*
X183972368Y-76586090D01*
X183983176Y-76598146D01*
X183987973Y-76613939D01*
X183989127Y-76633970D01*
X183989133Y-76636335D01*
X183988131Y-76658992D01*
X183983396Y-76676503D01*
X183972333Y-76689574D01*
X183952348Y-76698913D01*
X183920846Y-76705227D01*
X183875232Y-76709222D01*
X183812913Y-76711606D01*
X183731293Y-76713086D01*
X183706277Y-76713414D01*
X183464200Y-76716467D01*
X183460814Y-76781378D01*
X183457429Y-76846289D01*
X183625576Y-76846289D01*
X183691266Y-76846531D01*
X183738172Y-76847556D01*
X183770083Y-76849811D01*
X183790791Y-76853742D01*
X183804084Y-76859798D01*
X183813755Y-76868424D01*
X183813817Y-76868493D01*
X183831356Y-76902112D01*
X183830722Y-76938448D01*
X183812314Y-76969423D01*
X183808671Y-76972607D01*
X183795741Y-76980812D01*
X183778024Y-76986521D01*
X183751570Y-76990162D01*
X183712432Y-76992167D01*
X183656662Y-76992964D01*
X183620994Y-76993045D01*
X183458555Y-76993045D01*
X183458555Y-77151089D01*
X183705161Y-77151089D01*
X183786580Y-77151231D01*
X183848410Y-77151814D01*
X183893637Y-77153068D01*
X183925248Y-77155227D01*
X183946231Y-77158523D01*
X183959573Y-77163189D01*
X183968261Y-77169457D01*
X183970450Y-77171733D01*
X183986614Y-77203280D01*
X183987797Y-77239168D01*
X183974536Y-77270285D01*
X183964043Y-77280271D01*
X183953129Y-77285769D01*
X183936217Y-77290022D01*
X183910633Y-77293180D01*
X183873701Y-77295392D01*
X183822746Y-77296806D01*
X183755094Y-77297572D01*
X183668069Y-77297838D01*
X183648394Y-77297845D01*
X183559911Y-77297787D01*
X183491227Y-77297467D01*
X183439564Y-77296667D01*
X183402145Y-77295167D01*
X183376190Y-77292749D01*
X183358922Y-77289194D01*
X183347562Y-77284282D01*
X183339332Y-77277795D01*
X183334817Y-77273138D01*
X183328021Y-77264889D01*
X183322712Y-77254669D01*
X183318706Y-77239800D01*
X183315821Y-77217602D01*
X183313874Y-77185393D01*
X183312681Y-77140496D01*
X183312061Y-77080228D01*
X183311829Y-77001911D01*
X183311800Y-76935994D01*
X183311871Y-76843628D01*
X183312208Y-76771117D01*
X183312998Y-76715737D01*
X183314426Y-76674765D01*
X183316679Y-76645478D01*
X183319943Y-76625153D01*
X183324404Y-76611066D01*
X183330248Y-76600495D01*
X183335197Y-76593811D01*
X183358594Y-76564067D01*
X183648774Y-76564067D01*
X183745343Y-76564260D01*
X183745343Y-76564260D01*
G37*
X183745343Y-76564260D02*
X183821701Y-76565174D01*
X183880217Y-76567311D01*
X183923255Y-76571175D01*
X183953183Y-76577267D01*
X183972368Y-76586090D01*
X183983176Y-76598146D01*
X183987973Y-76613939D01*
X183989127Y-76633970D01*
X183989133Y-76636335D01*
X183988131Y-76658992D01*
X183983396Y-76676503D01*
X183972333Y-76689574D01*
X183952348Y-76698913D01*
X183920846Y-76705227D01*
X183875232Y-76709222D01*
X183812913Y-76711606D01*
X183731293Y-76713086D01*
X183706277Y-76713414D01*
X183464200Y-76716467D01*
X183460814Y-76781378D01*
X183457429Y-76846289D01*
X183625576Y-76846289D01*
X183691266Y-76846531D01*
X183738172Y-76847556D01*
X183770083Y-76849811D01*
X183790791Y-76853742D01*
X183804084Y-76859798D01*
X183813755Y-76868424D01*
X183813817Y-76868493D01*
X183831356Y-76902112D01*
X183830722Y-76938448D01*
X183812314Y-76969423D01*
X183808671Y-76972607D01*
X183795741Y-76980812D01*
X183778024Y-76986521D01*
X183751570Y-76990162D01*
X183712432Y-76992167D01*
X183656662Y-76992964D01*
X183620994Y-76993045D01*
X183458555Y-76993045D01*
X183458555Y-77151089D01*
X183705161Y-77151089D01*
X183786580Y-77151231D01*
X183848410Y-77151814D01*
X183893637Y-77153068D01*
X183925248Y-77155227D01*
X183946231Y-77158523D01*
X183959573Y-77163189D01*
X183968261Y-77169457D01*
X183970450Y-77171733D01*
X183986614Y-77203280D01*
X183987797Y-77239168D01*
X183974536Y-77270285D01*
X183964043Y-77280271D01*
X183953129Y-77285769D01*
X183936217Y-77290022D01*
X183910633Y-77293180D01*
X183873701Y-77295392D01*
X183822746Y-77296806D01*
X183755094Y-77297572D01*
X183668069Y-77297838D01*
X183648394Y-77297845D01*
X183559911Y-77297787D01*
X183491227Y-77297467D01*
X183439564Y-77296667D01*
X183402145Y-77295167D01*
X183376190Y-77292749D01*
X183358922Y-77289194D01*
X183347562Y-77284282D01*
X183339332Y-77277795D01*
X183334817Y-77273138D01*
X183328021Y-77264889D01*
X183322712Y-77254669D01*
X183318706Y-77239800D01*
X183315821Y-77217602D01*
X183313874Y-77185393D01*
X183312681Y-77140496D01*
X183312061Y-77080228D01*
X183311829Y-77001911D01*
X183311800Y-76935994D01*
X183311871Y-76843628D01*
X183312208Y-76771117D01*
X183312998Y-76715737D01*
X183314426Y-76674765D01*
X183316679Y-76645478D01*
X183319943Y-76625153D01*
X183324404Y-76611066D01*
X183330248Y-76600495D01*
X183335197Y-76593811D01*
X183358594Y-76564067D01*
X183648774Y-76564067D01*
X183745343Y-76564260D01*
G36*
X184533309Y-76564275D02*
X184662288Y-76568636D01*
X184771991Y-76581861D01*
X184864226Y-76604741D01*
X184940802Y-76638070D01*
X185003527Y-76682638D01*
X185054212Y-76739236D01*
X185094663Y-76808658D01*
X185095459Y-76810351D01*
X185119601Y-76872483D01*
X185128203Y-76927509D01*
X185121231Y-76982887D01*
X185098654Y-77046073D01*
X185094372Y-77055689D01*
X185065172Y-77111966D01*
X185032356Y-77155451D01*
X184990002Y-77192417D01*
X184932190Y-77229135D01*
X184928831Y-77231052D01*
X184878504Y-77255227D01*
X184821621Y-77273282D01*
X184754527Y-77285839D01*
X184673565Y-77293522D01*
X184575082Y-77296953D01*
X184540286Y-77297251D01*
X184374594Y-77297845D01*
X184351197Y-77268100D01*
X184344257Y-77258319D01*
X184338842Y-77246897D01*
X184334765Y-77231095D01*
X184331837Y-77208175D01*
X184329867Y-77175396D01*
X184329225Y-77151089D01*
X184485844Y-77151089D01*
X184579726Y-77151089D01*
X184634664Y-77149483D01*
X184691060Y-77145255D01*
X184737345Y-77139292D01*
X184740139Y-77138790D01*
X184822348Y-77116736D01*
X184886114Y-77083600D01*
X184933452Y-77037847D01*
X184966382Y-76977939D01*
X184972108Y-76962061D01*
X184977721Y-76937333D01*
X184975291Y-76912902D01*
X184963467Y-76880400D01*
X184956340Y-76864434D01*
X184933000Y-76822006D01*
X184904880Y-76792240D01*
X184873940Y-76771511D01*
X184811966Y-76744537D01*
X184732651Y-76724998D01*
X184640253Y-76713746D01*
X184573333Y-76711270D01*
X184485844Y-76710822D01*
X184485844Y-77151089D01*
X184329225Y-77151089D01*
X184328668Y-77130021D01*
X184328050Y-77069311D01*
X184327825Y-76990526D01*
X184327800Y-76928920D01*
X184327800Y-76619485D01*
X184355509Y-76591776D01*
X184367806Y-76580544D01*
X184381103Y-76572853D01*
X184399672Y-76568040D01*
X184427786Y-76565446D01*
X184469717Y-76564410D01*
X184529737Y-76564270D01*
X184533309Y-76564275D01*
X184533309Y-76564275D01*
G37*
X184533309Y-76564275D02*
X184662288Y-76568636D01*
X184771991Y-76581861D01*
X184864226Y-76604741D01*
X184940802Y-76638070D01*
X185003527Y-76682638D01*
X185054212Y-76739236D01*
X185094663Y-76808658D01*
X185095459Y-76810351D01*
X185119601Y-76872483D01*
X185128203Y-76927509D01*
X185121231Y-76982887D01*
X185098654Y-77046073D01*
X185094372Y-77055689D01*
X185065172Y-77111966D01*
X185032356Y-77155451D01*
X184990002Y-77192417D01*
X184932190Y-77229135D01*
X184928831Y-77231052D01*
X184878504Y-77255227D01*
X184821621Y-77273282D01*
X184754527Y-77285839D01*
X184673565Y-77293522D01*
X184575082Y-77296953D01*
X184540286Y-77297251D01*
X184374594Y-77297845D01*
X184351197Y-77268100D01*
X184344257Y-77258319D01*
X184338842Y-77246897D01*
X184334765Y-77231095D01*
X184331837Y-77208175D01*
X184329867Y-77175396D01*
X184329225Y-77151089D01*
X184485844Y-77151089D01*
X184579726Y-77151089D01*
X184634664Y-77149483D01*
X184691060Y-77145255D01*
X184737345Y-77139292D01*
X184740139Y-77138790D01*
X184822348Y-77116736D01*
X184886114Y-77083600D01*
X184933452Y-77037847D01*
X184966382Y-76977939D01*
X184972108Y-76962061D01*
X184977721Y-76937333D01*
X184975291Y-76912902D01*
X184963467Y-76880400D01*
X184956340Y-76864434D01*
X184933000Y-76822006D01*
X184904880Y-76792240D01*
X184873940Y-76771511D01*
X184811966Y-76744537D01*
X184732651Y-76724998D01*
X184640253Y-76713746D01*
X184573333Y-76711270D01*
X184485844Y-76710822D01*
X184485844Y-77151089D01*
X184329225Y-77151089D01*
X184328668Y-77130021D01*
X184328050Y-77069311D01*
X184327825Y-76990526D01*
X184327800Y-76928920D01*
X184327800Y-76619485D01*
X184355509Y-76591776D01*
X184367806Y-76580544D01*
X184381103Y-76572853D01*
X184399672Y-76568040D01*
X184427786Y-76565446D01*
X184469717Y-76564410D01*
X184529737Y-76564270D01*
X184533309Y-76564275D01*
G36*
X187259665Y-76566034D02*
X187279255Y-76573035D01*
X187280010Y-76573377D01*
X187306613Y-76593678D01*
X187321270Y-76614561D01*
X187324138Y-76624352D01*
X187323996Y-76637361D01*
X187319961Y-76655895D01*
X187311146Y-76682257D01*
X187296669Y-76718752D01*
X187275645Y-76767687D01*
X187247188Y-76831365D01*
X187210415Y-76912093D01*
X187190175Y-76956216D01*
X187153625Y-77034985D01*
X187119315Y-77107423D01*
X187088552Y-77170880D01*
X187062648Y-77222708D01*
X187042910Y-77260259D01*
X187030650Y-77280884D01*
X187028224Y-77283733D01*
X186997183Y-77296302D01*
X186962121Y-77294619D01*
X186934000Y-77279332D01*
X186932854Y-77278089D01*
X186921668Y-77261154D01*
X186902904Y-77228170D01*
X186878875Y-77183380D01*
X186851897Y-77131032D01*
X186842201Y-77111742D01*
X186769014Y-76965150D01*
X186689240Y-77124393D01*
X186660767Y-77179415D01*
X186634350Y-77227132D01*
X186612148Y-77263893D01*
X186596319Y-77286044D01*
X186590954Y-77290741D01*
X186549257Y-77297102D01*
X186514849Y-77283733D01*
X186504728Y-77269446D01*
X186487214Y-77237692D01*
X186463735Y-77191597D01*
X186435720Y-77134285D01*
X186404599Y-77068880D01*
X186371799Y-76998507D01*
X186338750Y-76926291D01*
X186306881Y-76855355D01*
X186277619Y-76788825D01*
X186252395Y-76729826D01*
X186232636Y-76681481D01*
X186219772Y-76646915D01*
X186215231Y-76629253D01*
X186215277Y-76628613D01*
X186226326Y-76606388D01*
X186248410Y-76583753D01*
X186249710Y-76582768D01*
X186276853Y-76567425D01*
X186301958Y-76567574D01*
X186311368Y-76570466D01*
X186322834Y-76576718D01*
X186335010Y-76589014D01*
X186349357Y-76609908D01*
X186367336Y-76641949D01*
X186390407Y-76687688D01*
X186420030Y-76749677D01*
X186446745Y-76806898D01*
X186477480Y-76873226D01*
X186505021Y-76932874D01*
X186527938Y-76982725D01*
X186544798Y-77019664D01*
X186554173Y-77040573D01*
X186555540Y-77043845D01*
X186561689Y-77038497D01*
X186575822Y-77016109D01*
X186596057Y-76979946D01*
X186620515Y-76933277D01*
X186630248Y-76914022D01*
X186663217Y-76849004D01*
X186688643Y-76801654D01*
X186708612Y-76769219D01*
X186725210Y-76748946D01*
X186740524Y-76738082D01*
X186756640Y-76733875D01*
X186767143Y-76733400D01*
X186785670Y-76735042D01*
X186801904Y-76741831D01*
X186818035Y-76756566D01*
X186836251Y-76782044D01*
X186858739Y-76821061D01*
X186887689Y-76876414D01*
X186903662Y-76907903D01*
X186929570Y-76958087D01*
X186952167Y-76999704D01*
X186969458Y-77029242D01*
X186979450Y-77043189D01*
X186980809Y-77043770D01*
X186987261Y-77032793D01*
X187001708Y-77004290D01*
X187022703Y-76961244D01*
X187048797Y-76906638D01*
X187078546Y-76843454D01*
X187093180Y-76812071D01*
X187131250Y-76731078D01*
X187161905Y-76668756D01*
X187186737Y-76623071D01*
X187207337Y-76591989D01*
X187225298Y-76573478D01*
X187242210Y-76565504D01*
X187259665Y-76566034D01*
X187259665Y-76566034D01*
G37*
X187259665Y-76566034D02*
X187279255Y-76573035D01*
X187280010Y-76573377D01*
X187306613Y-76593678D01*
X187321270Y-76614561D01*
X187324138Y-76624352D01*
X187323996Y-76637361D01*
X187319961Y-76655895D01*
X187311146Y-76682257D01*
X187296669Y-76718752D01*
X187275645Y-76767687D01*
X187247188Y-76831365D01*
X187210415Y-76912093D01*
X187190175Y-76956216D01*
X187153625Y-77034985D01*
X187119315Y-77107423D01*
X187088552Y-77170880D01*
X187062648Y-77222708D01*
X187042910Y-77260259D01*
X187030650Y-77280884D01*
X187028224Y-77283733D01*
X186997183Y-77296302D01*
X186962121Y-77294619D01*
X186934000Y-77279332D01*
X186932854Y-77278089D01*
X186921668Y-77261154D01*
X186902904Y-77228170D01*
X186878875Y-77183380D01*
X186851897Y-77131032D01*
X186842201Y-77111742D01*
X186769014Y-76965150D01*
X186689240Y-77124393D01*
X186660767Y-77179415D01*
X186634350Y-77227132D01*
X186612148Y-77263893D01*
X186596319Y-77286044D01*
X186590954Y-77290741D01*
X186549257Y-77297102D01*
X186514849Y-77283733D01*
X186504728Y-77269446D01*
X186487214Y-77237692D01*
X186463735Y-77191597D01*
X186435720Y-77134285D01*
X186404599Y-77068880D01*
X186371799Y-76998507D01*
X186338750Y-76926291D01*
X186306881Y-76855355D01*
X186277619Y-76788825D01*
X186252395Y-76729826D01*
X186232636Y-76681481D01*
X186219772Y-76646915D01*
X186215231Y-76629253D01*
X186215277Y-76628613D01*
X186226326Y-76606388D01*
X186248410Y-76583753D01*
X186249710Y-76582768D01*
X186276853Y-76567425D01*
X186301958Y-76567574D01*
X186311368Y-76570466D01*
X186322834Y-76576718D01*
X186335010Y-76589014D01*
X186349357Y-76609908D01*
X186367336Y-76641949D01*
X186390407Y-76687688D01*
X186420030Y-76749677D01*
X186446745Y-76806898D01*
X186477480Y-76873226D01*
X186505021Y-76932874D01*
X186527938Y-76982725D01*
X186544798Y-77019664D01*
X186554173Y-77040573D01*
X186555540Y-77043845D01*
X186561689Y-77038497D01*
X186575822Y-77016109D01*
X186596057Y-76979946D01*
X186620515Y-76933277D01*
X186630248Y-76914022D01*
X186663217Y-76849004D01*
X186688643Y-76801654D01*
X186708612Y-76769219D01*
X186725210Y-76748946D01*
X186740524Y-76738082D01*
X186756640Y-76733875D01*
X186767143Y-76733400D01*
X186785670Y-76735042D01*
X186801904Y-76741831D01*
X186818035Y-76756566D01*
X186836251Y-76782044D01*
X186858739Y-76821061D01*
X186887689Y-76876414D01*
X186903662Y-76907903D01*
X186929570Y-76958087D01*
X186952167Y-76999704D01*
X186969458Y-77029242D01*
X186979450Y-77043189D01*
X186980809Y-77043770D01*
X186987261Y-77032793D01*
X187001708Y-77004290D01*
X187022703Y-76961244D01*
X187048797Y-76906638D01*
X187078546Y-76843454D01*
X187093180Y-76812071D01*
X187131250Y-76731078D01*
X187161905Y-76668756D01*
X187186737Y-76623071D01*
X187207337Y-76591989D01*
X187225298Y-76573478D01*
X187242210Y-76565504D01*
X187259665Y-76566034D01*
G36*
X187703614Y-76570877D02*
X187727327Y-76585647D01*
X187753978Y-76607227D01*
X187753978Y-76928773D01*
X187753893Y-77022830D01*
X187753529Y-77096932D01*
X187752724Y-77153704D01*
X187751313Y-77195768D01*
X187749133Y-77225748D01*
X187746021Y-77246267D01*
X187741814Y-77259949D01*
X187736348Y-77269416D01*
X187732472Y-77274082D01*
X187701034Y-77294575D01*
X187665233Y-77293739D01*
X187633873Y-77276264D01*
X187607222Y-77254684D01*
X187607222Y-76607227D01*
X187633873Y-76585647D01*
X187659594Y-76569949D01*
X187680600Y-76564067D01*
X187703614Y-76570877D01*
X187703614Y-76570877D01*
G37*
X187703614Y-76570877D02*
X187727327Y-76585647D01*
X187753978Y-76607227D01*
X187753978Y-76928773D01*
X187753893Y-77022830D01*
X187753529Y-77096932D01*
X187752724Y-77153704D01*
X187751313Y-77195768D01*
X187749133Y-77225748D01*
X187746021Y-77246267D01*
X187741814Y-77259949D01*
X187736348Y-77269416D01*
X187732472Y-77274082D01*
X187701034Y-77294575D01*
X187665233Y-77293739D01*
X187633873Y-77276264D01*
X187607222Y-77254684D01*
X187607222Y-76607227D01*
X187633873Y-76585647D01*
X187659594Y-76569949D01*
X187680600Y-76564067D01*
X187703614Y-76570877D01*
G36*
X188478065Y-76564163D02*
X188556772Y-76564542D01*
X188617863Y-76565333D01*
X188663817Y-76566670D01*
X188697114Y-76568683D01*
X188720236Y-76571506D01*
X188735662Y-76575269D01*
X188745871Y-76580105D01*
X188750813Y-76583822D01*
X188776457Y-76616358D01*
X188779559Y-76650138D01*
X188763711Y-76680826D01*
X188753348Y-76693089D01*
X188742196Y-76701450D01*
X188726035Y-76706657D01*
X188700642Y-76709457D01*
X188661798Y-76710596D01*
X188605280Y-76710821D01*
X188594180Y-76710822D01*
X188448244Y-76710822D01*
X188448244Y-76981756D01*
X188448148Y-77067154D01*
X188447711Y-77132864D01*
X188446712Y-77181774D01*
X188444928Y-77216773D01*
X188442137Y-77240749D01*
X188438117Y-77256593D01*
X188432645Y-77267191D01*
X188425666Y-77275267D01*
X188392734Y-77295112D01*
X188358354Y-77293548D01*
X188327176Y-77270906D01*
X188324886Y-77268100D01*
X188317429Y-77257492D01*
X188311747Y-77245081D01*
X188307601Y-77227850D01*
X188304750Y-77202784D01*
X188302954Y-77166867D01*
X188301972Y-77117083D01*
X188301564Y-77050417D01*
X188301489Y-76974589D01*
X188301489Y-76710822D01*
X188162127Y-76710822D01*
X188102322Y-76710418D01*
X188060918Y-76708840D01*
X188033748Y-76705547D01*
X188016646Y-76699992D01*
X188005443Y-76691631D01*
X188004083Y-76690178D01*
X187987725Y-76656939D01*
X187989172Y-76619362D01*
X188007978Y-76586645D01*
X188015250Y-76580298D01*
X188024627Y-76575266D01*
X188038609Y-76571396D01*
X188059696Y-76568537D01*
X188090389Y-76566535D01*
X188133189Y-76565239D01*
X188190595Y-76564498D01*
X188265110Y-76564158D01*
X188359233Y-76564068D01*
X188379260Y-76564067D01*
X188478065Y-76564163D01*
X188478065Y-76564163D01*
G37*
X188478065Y-76564163D02*
X188556772Y-76564542D01*
X188617863Y-76565333D01*
X188663817Y-76566670D01*
X188697114Y-76568683D01*
X188720236Y-76571506D01*
X188735662Y-76575269D01*
X188745871Y-76580105D01*
X188750813Y-76583822D01*
X188776457Y-76616358D01*
X188779559Y-76650138D01*
X188763711Y-76680826D01*
X188753348Y-76693089D01*
X188742196Y-76701450D01*
X188726035Y-76706657D01*
X188700642Y-76709457D01*
X188661798Y-76710596D01*
X188605280Y-76710821D01*
X188594180Y-76710822D01*
X188448244Y-76710822D01*
X188448244Y-76981756D01*
X188448148Y-77067154D01*
X188447711Y-77132864D01*
X188446712Y-77181774D01*
X188444928Y-77216773D01*
X188442137Y-77240749D01*
X188438117Y-77256593D01*
X188432645Y-77267191D01*
X188425666Y-77275267D01*
X188392734Y-77295112D01*
X188358354Y-77293548D01*
X188327176Y-77270906D01*
X188324886Y-77268100D01*
X188317429Y-77257492D01*
X188311747Y-77245081D01*
X188307601Y-77227850D01*
X188304750Y-77202784D01*
X188302954Y-77166867D01*
X188301972Y-77117083D01*
X188301564Y-77050417D01*
X188301489Y-76974589D01*
X188301489Y-76710822D01*
X188162127Y-76710822D01*
X188102322Y-76710418D01*
X188060918Y-76708840D01*
X188033748Y-76705547D01*
X188016646Y-76699992D01*
X188005443Y-76691631D01*
X188004083Y-76690178D01*
X187987725Y-76656939D01*
X187989172Y-76619362D01*
X188007978Y-76586645D01*
X188015250Y-76580298D01*
X188024627Y-76575266D01*
X188038609Y-76571396D01*
X188059696Y-76568537D01*
X188090389Y-76566535D01*
X188133189Y-76565239D01*
X188190595Y-76564498D01*
X188265110Y-76564158D01*
X188359233Y-76564068D01*
X188379260Y-76564067D01*
X188478065Y-76564163D01*
G36*
X189743823Y-76569533D02*
X189775202Y-76591776D01*
X189802911Y-76619485D01*
X189802911Y-76928920D01*
X189802838Y-77020799D01*
X189802495Y-77092840D01*
X189801692Y-77147780D01*
X189800241Y-77188360D01*
X189797952Y-77217317D01*
X189794636Y-77237391D01*
X189790105Y-77251321D01*
X189784169Y-77261845D01*
X189779514Y-77268100D01*
X189748783Y-77292673D01*
X189713496Y-77295341D01*
X189681245Y-77280271D01*
X189670588Y-77271374D01*
X189663464Y-77259557D01*
X189659167Y-77240526D01*
X189656991Y-77209992D01*
X189656228Y-77163662D01*
X189656155Y-77127871D01*
X189656155Y-76993045D01*
X189159444Y-76993045D01*
X189159444Y-77115700D01*
X189158931Y-77171787D01*
X189156876Y-77210333D01*
X189152508Y-77236361D01*
X189145056Y-77254897D01*
X189136047Y-77268100D01*
X189105144Y-77292604D01*
X189070196Y-77295506D01*
X189036738Y-77278089D01*
X189027604Y-77268959D01*
X189021152Y-77256855D01*
X189016897Y-77238001D01*
X189014352Y-77208620D01*
X189013029Y-77164937D01*
X189012443Y-77103175D01*
X189012375Y-77089000D01*
X189011891Y-76972631D01*
X189011641Y-76876727D01*
X189011723Y-76799177D01*
X189012231Y-76737869D01*
X189013262Y-76690690D01*
X189014913Y-76655530D01*
X189017279Y-76630276D01*
X189020457Y-76612817D01*
X189024544Y-76601041D01*
X189029634Y-76592835D01*
X189035266Y-76586645D01*
X189067128Y-76566844D01*
X189100357Y-76569533D01*
X189131735Y-76591776D01*
X189144433Y-76606126D01*
X189152526Y-76621978D01*
X189157042Y-76644554D01*
X189159006Y-76679078D01*
X189159444Y-76730776D01*
X189159444Y-76846289D01*
X189656155Y-76846289D01*
X189656155Y-76727756D01*
X189656662Y-76673148D01*
X189658698Y-76636275D01*
X189663035Y-76612307D01*
X189670447Y-76596415D01*
X189678733Y-76586645D01*
X189710594Y-76566844D01*
X189743823Y-76569533D01*
X189743823Y-76569533D01*
G37*
X189743823Y-76569533D02*
X189775202Y-76591776D01*
X189802911Y-76619485D01*
X189802911Y-76928920D01*
X189802838Y-77020799D01*
X189802495Y-77092840D01*
X189801692Y-77147780D01*
X189800241Y-77188360D01*
X189797952Y-77217317D01*
X189794636Y-77237391D01*
X189790105Y-77251321D01*
X189784169Y-77261845D01*
X189779514Y-77268100D01*
X189748783Y-77292673D01*
X189713496Y-77295341D01*
X189681245Y-77280271D01*
X189670588Y-77271374D01*
X189663464Y-77259557D01*
X189659167Y-77240526D01*
X189656991Y-77209992D01*
X189656228Y-77163662D01*
X189656155Y-77127871D01*
X189656155Y-76993045D01*
X189159444Y-76993045D01*
X189159444Y-77115700D01*
X189158931Y-77171787D01*
X189156876Y-77210333D01*
X189152508Y-77236361D01*
X189145056Y-77254897D01*
X189136047Y-77268100D01*
X189105144Y-77292604D01*
X189070196Y-77295506D01*
X189036738Y-77278089D01*
X189027604Y-77268959D01*
X189021152Y-77256855D01*
X189016897Y-77238001D01*
X189014352Y-77208620D01*
X189013029Y-77164937D01*
X189012443Y-77103175D01*
X189012375Y-77089000D01*
X189011891Y-76972631D01*
X189011641Y-76876727D01*
X189011723Y-76799177D01*
X189012231Y-76737869D01*
X189013262Y-76690690D01*
X189014913Y-76655530D01*
X189017279Y-76630276D01*
X189020457Y-76612817D01*
X189024544Y-76601041D01*
X189029634Y-76592835D01*
X189035266Y-76586645D01*
X189067128Y-76566844D01*
X189100357Y-76569533D01*
X189131735Y-76591776D01*
X189144433Y-76606126D01*
X189152526Y-76621978D01*
X189157042Y-76644554D01*
X189159006Y-76679078D01*
X189159444Y-76730776D01*
X189159444Y-76846289D01*
X189656155Y-76846289D01*
X189656155Y-76727756D01*
X189656662Y-76673148D01*
X189658698Y-76636275D01*
X189663035Y-76612307D01*
X189670447Y-76596415D01*
X189678733Y-76586645D01*
X189710594Y-76566844D01*
X189743823Y-76569533D01*
G36*
X180568600Y-71784054D02*
X180579465Y-71897993D01*
X180611082Y-72005616D01*
X180661985Y-72104615D01*
X180730707Y-72192684D01*
X180815781Y-72267516D01*
X180912768Y-72325384D01*
X181019036Y-72365005D01*
X181126050Y-72383573D01*
X181231700Y-72382434D01*
X181333875Y-72362930D01*
X181430466Y-72326406D01*
X181519362Y-72274205D01*
X181598454Y-72207673D01*
X181665631Y-72128152D01*
X181718783Y-72036987D01*
X181755801Y-71935523D01*
X181774573Y-71825102D01*
X181776511Y-71775206D01*
X181776511Y-71687267D01*
X181828440Y-71687267D01*
X181864747Y-71690111D01*
X181891645Y-71701911D01*
X181918751Y-71725649D01*
X181957133Y-71764031D01*
X181957133Y-73955602D01*
X181957124Y-74217739D01*
X181957092Y-74458241D01*
X181957028Y-74678048D01*
X181956924Y-74878101D01*
X181956773Y-75059344D01*
X181956566Y-75222716D01*
X181956294Y-75369160D01*
X181955950Y-75499617D01*
X181955526Y-75615029D01*
X181955013Y-75716338D01*
X181954403Y-75804484D01*
X181953688Y-75880410D01*
X181952860Y-75945057D01*
X181951911Y-75999367D01*
X181950833Y-76044280D01*
X181949617Y-76080740D01*
X181948255Y-76109687D01*
X181946739Y-76132063D01*
X181945062Y-76148809D01*
X181943214Y-76160868D01*
X181941187Y-76169180D01*
X181938975Y-76174687D01*
X181937892Y-76176537D01*
X181933729Y-76183549D01*
X181930195Y-76189996D01*
X181926365Y-76195900D01*
X181921318Y-76201286D01*
X181914129Y-76206178D01*
X181903877Y-76210598D01*
X181889636Y-76214572D01*
X181870486Y-76218121D01*
X181845501Y-76221270D01*
X181813760Y-76224042D01*
X181774338Y-76226461D01*
X181726314Y-76228551D01*
X181668763Y-76230335D01*
X181600763Y-76231837D01*
X181521390Y-76233080D01*
X181429721Y-76234089D01*
X181324834Y-76234885D01*
X181205804Y-76235494D01*
X181071710Y-76235939D01*
X180921627Y-76236243D01*
X180754633Y-76236430D01*
X180569804Y-76236524D01*
X180366217Y-76236548D01*
X180142950Y-76236525D01*
X179899078Y-76236480D01*
X179633679Y-76236437D01*
X179595296Y-76236432D01*
X179328318Y-76236389D01*
X179082998Y-76236318D01*
X178858417Y-76236213D01*
X178653655Y-76236066D01*
X178467794Y-76235869D01*
X178299912Y-76235616D01*
X178149092Y-76235300D01*
X178014413Y-76234913D01*
X177894956Y-76234447D01*
X177789801Y-76233897D01*
X177698029Y-76233253D01*
X177618721Y-76232511D01*
X177550957Y-76231661D01*
X177493818Y-76230697D01*
X177446383Y-76229611D01*
X177407734Y-76228397D01*
X177376951Y-76227047D01*
X177353115Y-76225555D01*
X177335306Y-76223911D01*
X177322605Y-76222111D01*
X177314092Y-76220145D01*
X177309734Y-76218477D01*
X177301272Y-76214906D01*
X177293503Y-76212270D01*
X177286398Y-76209634D01*
X177279927Y-76206062D01*
X177274061Y-76200621D01*
X177268771Y-76192375D01*
X177264026Y-76180390D01*
X177259798Y-76163731D01*
X177256057Y-76141463D01*
X177252773Y-76112652D01*
X177249917Y-76076363D01*
X177247460Y-76031661D01*
X177245371Y-75977611D01*
X177243622Y-75913279D01*
X177242183Y-75837730D01*
X177241024Y-75750030D01*
X177240117Y-75649243D01*
X177239431Y-75534434D01*
X177238937Y-75404670D01*
X177238605Y-75259015D01*
X177238407Y-75096535D01*
X177238313Y-74916295D01*
X177238292Y-74717360D01*
X177238315Y-74498796D01*
X177238354Y-74259668D01*
X177238378Y-73999040D01*
X177238378Y-73956889D01*
X177238364Y-73693992D01*
X177238339Y-73452732D01*
X177238329Y-73232165D01*
X177238358Y-73031352D01*
X177238452Y-72849349D01*
X177238638Y-72685216D01*
X177238941Y-72538011D01*
X177239386Y-72406792D01*
X177239966Y-72296867D01*
X177542803Y-72296867D01*
X177582593Y-72354711D01*
X177593764Y-72370479D01*
X177603834Y-72384441D01*
X177612862Y-72397784D01*
X177620903Y-72411693D01*
X177628014Y-72427356D01*
X177634253Y-72445958D01*
X177639675Y-72468686D01*
X177644338Y-72496727D01*
X177648299Y-72531267D01*
X177651615Y-72573492D01*
X177654341Y-72624589D01*
X177656536Y-72685744D01*
X177658255Y-72758144D01*
X177659556Y-72842975D01*
X177660495Y-72941422D01*
X177661130Y-73054674D01*
X177661516Y-73183916D01*
X177661712Y-73330334D01*
X177661773Y-73495116D01*
X177661757Y-73679447D01*
X177661720Y-73884513D01*
X177661711Y-74007133D01*
X177661735Y-74224082D01*
X177661769Y-74419642D01*
X177661757Y-74594999D01*
X177661642Y-74751341D01*
X177661370Y-74889857D01*
X177660882Y-75011734D01*
X177660124Y-75118160D01*
X177659038Y-75210322D01*
X177657569Y-75289409D01*
X177655660Y-75356608D01*
X177653256Y-75413107D01*
X177650299Y-75460093D01*
X177646734Y-75498755D01*
X177642505Y-75530280D01*
X177637554Y-75555855D01*
X177631827Y-75576670D01*
X177625267Y-75593911D01*
X177617817Y-75608765D01*
X177609421Y-75622422D01*
X177600024Y-75636069D01*
X177589568Y-75650893D01*
X177583477Y-75659783D01*
X177544704Y-75717400D01*
X178076268Y-75717400D01*
X178199517Y-75717365D01*
X178302013Y-75717215D01*
X178385580Y-75716878D01*
X178452044Y-75716286D01*
X178503229Y-75715367D01*
X178540959Y-75714051D01*
X178567060Y-75712269D01*
X178583356Y-75709951D01*
X178591672Y-75707026D01*
X178593832Y-75703424D01*
X178591661Y-75699075D01*
X178590465Y-75697645D01*
X178565315Y-75660573D01*
X178539417Y-75607772D01*
X178515808Y-75545770D01*
X178507539Y-75519357D01*
X178502922Y-75501416D01*
X178499021Y-75480355D01*
X178495752Y-75454089D01*
X178493034Y-75420532D01*
X178490785Y-75377599D01*
X178488923Y-75323204D01*
X178487364Y-75255262D01*
X178486028Y-75171688D01*
X178484831Y-75070395D01*
X178483692Y-74949300D01*
X178483315Y-74904600D01*
X178482298Y-74779449D01*
X178481540Y-74675082D01*
X178481097Y-74589707D01*
X178481030Y-74521533D01*
X178481395Y-74468765D01*
X178482252Y-74429614D01*
X178483659Y-74402285D01*
X178485675Y-74384986D01*
X178488357Y-74375926D01*
X178491764Y-74373312D01*
X178495956Y-74375351D01*
X178500429Y-74379667D01*
X178510784Y-74392602D01*
X178532842Y-74421676D01*
X178565043Y-74464759D01*
X178605826Y-74519718D01*
X178653630Y-74584423D01*
X178706895Y-74656742D01*
X178764060Y-74734544D01*
X178823563Y-74815698D01*
X178883845Y-74898072D01*
X178943345Y-74979536D01*
X179000502Y-75057957D01*
X179053755Y-75131204D01*
X179101543Y-75197147D01*
X179142307Y-75253654D01*
X179174484Y-75298593D01*
X179196515Y-75329834D01*
X179201083Y-75336466D01*
X179224004Y-75373369D01*
X179250812Y-75421359D01*
X179276211Y-75470897D01*
X179279432Y-75477577D01*
X179301110Y-75525772D01*
X179313696Y-75563334D01*
X179319426Y-75599160D01*
X179320544Y-75641200D01*
X179319910Y-75717400D01*
X180474349Y-75717400D01*
X180383185Y-75623669D01*
X180336388Y-75573775D01*
X180286101Y-75517295D01*
X180240056Y-75463026D01*
X180219631Y-75437673D01*
X180189193Y-75398128D01*
X180149138Y-75344916D01*
X180100639Y-75279667D01*
X180044865Y-75204011D01*
X179982989Y-75119577D01*
X179916181Y-75027994D01*
X179845613Y-74930892D01*
X179772455Y-74829901D01*
X179697879Y-74726650D01*
X179623056Y-74622768D01*
X179549157Y-74519885D01*
X179477354Y-74419631D01*
X179408816Y-74323636D01*
X179344716Y-74233527D01*
X179286225Y-74150936D01*
X179234514Y-74077492D01*
X179190753Y-74014824D01*
X179156115Y-73964561D01*
X179131770Y-73928334D01*
X179118889Y-73907771D01*
X179117131Y-73903668D01*
X179125090Y-73892342D01*
X179145885Y-73865162D01*
X179178153Y-73823829D01*
X179220530Y-73770044D01*
X179271653Y-73705506D01*
X179330159Y-73631918D01*
X179394686Y-73550978D01*
X179463869Y-73464388D01*
X179536347Y-73373848D01*
X179610754Y-73281060D01*
X179670483Y-73206702D01*
X180681489Y-73206702D01*
X180687398Y-73219659D01*
X180701728Y-73241908D01*
X180702775Y-73243391D01*
X180721562Y-73273544D01*
X180741209Y-73310375D01*
X180745108Y-73318511D01*
X180748644Y-73326940D01*
X180751770Y-73337059D01*
X180754514Y-73350260D01*
X180756908Y-73367938D01*
X180758981Y-73391484D01*
X180760765Y-73422293D01*
X180762288Y-73461757D01*
X180763581Y-73511269D01*
X180764674Y-73572223D01*
X180765597Y-73646011D01*
X180766381Y-73734028D01*
X180767055Y-73837665D01*
X180767650Y-73958316D01*
X180768195Y-74097374D01*
X180768721Y-74256232D01*
X180769255Y-74435089D01*
X180769794Y-74620207D01*
X180770228Y-74784145D01*
X180770491Y-74928303D01*
X180770516Y-75054079D01*
X180770235Y-75162871D01*
X180769581Y-75256077D01*
X180768486Y-75335097D01*
X180766882Y-75401328D01*
X180764703Y-75456170D01*
X180761881Y-75501021D01*
X180758349Y-75537278D01*
X180754039Y-75566341D01*
X180748883Y-75589609D01*
X180742815Y-75608479D01*
X180735767Y-75624351D01*
X180727671Y-75638622D01*
X180718460Y-75652691D01*
X180709960Y-75665158D01*
X180692824Y-75691452D01*
X180682678Y-75709037D01*
X180681489Y-75712257D01*
X180692396Y-75713334D01*
X180723589Y-75714335D01*
X180772777Y-75715235D01*
X180837667Y-75716010D01*
X180915970Y-75716637D01*
X181005393Y-75717091D01*
X181103644Y-75717349D01*
X181172555Y-75717400D01*
X181277548Y-75717180D01*
X181374390Y-75716548D01*
X181460893Y-75715549D01*
X181534868Y-75714227D01*
X181594126Y-75712626D01*
X181636480Y-75710791D01*
X181659740Y-75708765D01*
X181663622Y-75707493D01*
X181655924Y-75692591D01*
X181647926Y-75684560D01*
X181634754Y-75667434D01*
X181617515Y-75637183D01*
X181605593Y-75612622D01*
X181578955Y-75553711D01*
X181575880Y-74376845D01*
X181572805Y-73199978D01*
X181127147Y-73199978D01*
X181029330Y-73200142D01*
X180938936Y-73200611D01*
X180858370Y-73201347D01*
X180790038Y-73202316D01*
X180736344Y-73203480D01*
X180699695Y-73204803D01*
X180682496Y-73206249D01*
X180681489Y-73206702D01*
X179670483Y-73206702D01*
X179685730Y-73187722D01*
X179759910Y-73095537D01*
X179831931Y-73006204D01*
X179900431Y-72921424D01*
X179964045Y-72842898D01*
X180021412Y-72772326D01*
X180071167Y-72711409D01*
X180111948Y-72661847D01*
X180129112Y-72641178D01*
X180215404Y-72540516D01*
X180292003Y-72457259D01*
X180360817Y-72389438D01*
X180423752Y-72335089D01*
X180433133Y-72327722D01*
X180472644Y-72297117D01*
X179340884Y-72296867D01*
X179346173Y-72344844D01*
X179342870Y-72402188D01*
X179321339Y-72470463D01*
X179281365Y-72550212D01*
X179236057Y-72622495D01*
X179219839Y-72645140D01*
X179191786Y-72682696D01*
X179153570Y-72733021D01*
X179106863Y-72793973D01*
X179053339Y-72863411D01*
X178994669Y-72939194D01*
X178932525Y-73019180D01*
X178868579Y-73101228D01*
X178804505Y-73183196D01*
X178741973Y-73262943D01*
X178682657Y-73338327D01*
X178628229Y-73407207D01*
X178580361Y-73467442D01*
X178540725Y-73516889D01*
X178510994Y-73553408D01*
X178492839Y-73574858D01*
X178489780Y-73578156D01*
X178486921Y-73570149D01*
X178484707Y-73539855D01*
X178483143Y-73487556D01*
X178482233Y-73413531D01*
X178481980Y-73318063D01*
X178482387Y-73201434D01*
X178483296Y-73081445D01*
X178484618Y-72949333D01*
X178486143Y-72837594D01*
X178488119Y-72744025D01*
X178490794Y-72666419D01*
X178494418Y-72602574D01*
X178499239Y-72550283D01*
X178505506Y-72507344D01*
X178513468Y-72471551D01*
X178523373Y-72440700D01*
X178535469Y-72412586D01*
X178550007Y-72385005D01*
X178564689Y-72359966D01*
X178602686Y-72296867D01*
X177542803Y-72296867D01*
X177239966Y-72296867D01*
X177239999Y-72290617D01*
X177240805Y-72188544D01*
X177241830Y-72099633D01*
X177243100Y-72022941D01*
X177244640Y-71957527D01*
X177246476Y-71902449D01*
X177248633Y-71856765D01*
X177251137Y-71819534D01*
X177254013Y-71789813D01*
X177257287Y-71766662D01*
X177260985Y-71749139D01*
X177265131Y-71736301D01*
X177269753Y-71727208D01*
X177274874Y-71720918D01*
X177280522Y-71716488D01*
X177286721Y-71712978D01*
X177293496Y-71709445D01*
X177299492Y-71705876D01*
X177304725Y-71703300D01*
X177312901Y-71700972D01*
X177325114Y-71698878D01*
X177342459Y-71697007D01*
X177366031Y-71695347D01*
X177396923Y-71693884D01*
X177436232Y-71692608D01*
X177485050Y-71691504D01*
X177544473Y-71690561D01*
X177615596Y-71689767D01*
X177699512Y-71689109D01*
X177797317Y-71688575D01*
X177910106Y-71688153D01*
X178038971Y-71687829D01*
X178185009Y-71687592D01*
X178349314Y-71687430D01*
X178532980Y-71687330D01*
X178737103Y-71687280D01*
X178948247Y-71687267D01*
X180568600Y-71687267D01*
X180568600Y-71784054D01*
X180568600Y-71784054D01*
G37*
X180568600Y-71784054D02*
X180579465Y-71897993D01*
X180611082Y-72005616D01*
X180661985Y-72104615D01*
X180730707Y-72192684D01*
X180815781Y-72267516D01*
X180912768Y-72325384D01*
X181019036Y-72365005D01*
X181126050Y-72383573D01*
X181231700Y-72382434D01*
X181333875Y-72362930D01*
X181430466Y-72326406D01*
X181519362Y-72274205D01*
X181598454Y-72207673D01*
X181665631Y-72128152D01*
X181718783Y-72036987D01*
X181755801Y-71935523D01*
X181774573Y-71825102D01*
X181776511Y-71775206D01*
X181776511Y-71687267D01*
X181828440Y-71687267D01*
X181864747Y-71690111D01*
X181891645Y-71701911D01*
X181918751Y-71725649D01*
X181957133Y-71764031D01*
X181957133Y-73955602D01*
X181957124Y-74217739D01*
X181957092Y-74458241D01*
X181957028Y-74678048D01*
X181956924Y-74878101D01*
X181956773Y-75059344D01*
X181956566Y-75222716D01*
X181956294Y-75369160D01*
X181955950Y-75499617D01*
X181955526Y-75615029D01*
X181955013Y-75716338D01*
X181954403Y-75804484D01*
X181953688Y-75880410D01*
X181952860Y-75945057D01*
X181951911Y-75999367D01*
X181950833Y-76044280D01*
X181949617Y-76080740D01*
X181948255Y-76109687D01*
X181946739Y-76132063D01*
X181945062Y-76148809D01*
X181943214Y-76160868D01*
X181941187Y-76169180D01*
X181938975Y-76174687D01*
X181937892Y-76176537D01*
X181933729Y-76183549D01*
X181930195Y-76189996D01*
X181926365Y-76195900D01*
X181921318Y-76201286D01*
X181914129Y-76206178D01*
X181903877Y-76210598D01*
X181889636Y-76214572D01*
X181870486Y-76218121D01*
X181845501Y-76221270D01*
X181813760Y-76224042D01*
X181774338Y-76226461D01*
X181726314Y-76228551D01*
X181668763Y-76230335D01*
X181600763Y-76231837D01*
X181521390Y-76233080D01*
X181429721Y-76234089D01*
X181324834Y-76234885D01*
X181205804Y-76235494D01*
X181071710Y-76235939D01*
X180921627Y-76236243D01*
X180754633Y-76236430D01*
X180569804Y-76236524D01*
X180366217Y-76236548D01*
X180142950Y-76236525D01*
X179899078Y-76236480D01*
X179633679Y-76236437D01*
X179595296Y-76236432D01*
X179328318Y-76236389D01*
X179082998Y-76236318D01*
X178858417Y-76236213D01*
X178653655Y-76236066D01*
X178467794Y-76235869D01*
X178299912Y-76235616D01*
X178149092Y-76235300D01*
X178014413Y-76234913D01*
X177894956Y-76234447D01*
X177789801Y-76233897D01*
X177698029Y-76233253D01*
X177618721Y-76232511D01*
X177550957Y-76231661D01*
X177493818Y-76230697D01*
X177446383Y-76229611D01*
X177407734Y-76228397D01*
X177376951Y-76227047D01*
X177353115Y-76225555D01*
X177335306Y-76223911D01*
X177322605Y-76222111D01*
X177314092Y-76220145D01*
X177309734Y-76218477D01*
X177301272Y-76214906D01*
X177293503Y-76212270D01*
X177286398Y-76209634D01*
X177279927Y-76206062D01*
X177274061Y-76200621D01*
X177268771Y-76192375D01*
X177264026Y-76180390D01*
X177259798Y-76163731D01*
X177256057Y-76141463D01*
X177252773Y-76112652D01*
X177249917Y-76076363D01*
X177247460Y-76031661D01*
X177245371Y-75977611D01*
X177243622Y-75913279D01*
X177242183Y-75837730D01*
X177241024Y-75750030D01*
X177240117Y-75649243D01*
X177239431Y-75534434D01*
X177238937Y-75404670D01*
X177238605Y-75259015D01*
X177238407Y-75096535D01*
X177238313Y-74916295D01*
X177238292Y-74717360D01*
X177238315Y-74498796D01*
X177238354Y-74259668D01*
X177238378Y-73999040D01*
X177238378Y-73956889D01*
X177238364Y-73693992D01*
X177238339Y-73452732D01*
X177238329Y-73232165D01*
X177238358Y-73031352D01*
X177238452Y-72849349D01*
X177238638Y-72685216D01*
X177238941Y-72538011D01*
X177239386Y-72406792D01*
X177239966Y-72296867D01*
X177542803Y-72296867D01*
X177582593Y-72354711D01*
X177593764Y-72370479D01*
X177603834Y-72384441D01*
X177612862Y-72397784D01*
X177620903Y-72411693D01*
X177628014Y-72427356D01*
X177634253Y-72445958D01*
X177639675Y-72468686D01*
X177644338Y-72496727D01*
X177648299Y-72531267D01*
X177651615Y-72573492D01*
X177654341Y-72624589D01*
X177656536Y-72685744D01*
X177658255Y-72758144D01*
X177659556Y-72842975D01*
X177660495Y-72941422D01*
X177661130Y-73054674D01*
X177661516Y-73183916D01*
X177661712Y-73330334D01*
X177661773Y-73495116D01*
X177661757Y-73679447D01*
X177661720Y-73884513D01*
X177661711Y-74007133D01*
X177661735Y-74224082D01*
X177661769Y-74419642D01*
X177661757Y-74594999D01*
X177661642Y-74751341D01*
X177661370Y-74889857D01*
X177660882Y-75011734D01*
X177660124Y-75118160D01*
X177659038Y-75210322D01*
X177657569Y-75289409D01*
X177655660Y-75356608D01*
X177653256Y-75413107D01*
X177650299Y-75460093D01*
X177646734Y-75498755D01*
X177642505Y-75530280D01*
X177637554Y-75555855D01*
X177631827Y-75576670D01*
X177625267Y-75593911D01*
X177617817Y-75608765D01*
X177609421Y-75622422D01*
X177600024Y-75636069D01*
X177589568Y-75650893D01*
X177583477Y-75659783D01*
X177544704Y-75717400D01*
X178076268Y-75717400D01*
X178199517Y-75717365D01*
X178302013Y-75717215D01*
X178385580Y-75716878D01*
X178452044Y-75716286D01*
X178503229Y-75715367D01*
X178540959Y-75714051D01*
X178567060Y-75712269D01*
X178583356Y-75709951D01*
X178591672Y-75707026D01*
X178593832Y-75703424D01*
X178591661Y-75699075D01*
X178590465Y-75697645D01*
X178565315Y-75660573D01*
X178539417Y-75607772D01*
X178515808Y-75545770D01*
X178507539Y-75519357D01*
X178502922Y-75501416D01*
X178499021Y-75480355D01*
X178495752Y-75454089D01*
X178493034Y-75420532D01*
X178490785Y-75377599D01*
X178488923Y-75323204D01*
X178487364Y-75255262D01*
X178486028Y-75171688D01*
X178484831Y-75070395D01*
X178483692Y-74949300D01*
X178483315Y-74904600D01*
X178482298Y-74779449D01*
X178481540Y-74675082D01*
X178481097Y-74589707D01*
X178481030Y-74521533D01*
X178481395Y-74468765D01*
X178482252Y-74429614D01*
X178483659Y-74402285D01*
X178485675Y-74384986D01*
X178488357Y-74375926D01*
X178491764Y-74373312D01*
X178495956Y-74375351D01*
X178500429Y-74379667D01*
X178510784Y-74392602D01*
X178532842Y-74421676D01*
X178565043Y-74464759D01*
X178605826Y-74519718D01*
X178653630Y-74584423D01*
X178706895Y-74656742D01*
X178764060Y-74734544D01*
X178823563Y-74815698D01*
X178883845Y-74898072D01*
X178943345Y-74979536D01*
X179000502Y-75057957D01*
X179053755Y-75131204D01*
X179101543Y-75197147D01*
X179142307Y-75253654D01*
X179174484Y-75298593D01*
X179196515Y-75329834D01*
X179201083Y-75336466D01*
X179224004Y-75373369D01*
X179250812Y-75421359D01*
X179276211Y-75470897D01*
X179279432Y-75477577D01*
X179301110Y-75525772D01*
X179313696Y-75563334D01*
X179319426Y-75599160D01*
X179320544Y-75641200D01*
X179319910Y-75717400D01*
X180474349Y-75717400D01*
X180383185Y-75623669D01*
X180336388Y-75573775D01*
X180286101Y-75517295D01*
X180240056Y-75463026D01*
X180219631Y-75437673D01*
X180189193Y-75398128D01*
X180149138Y-75344916D01*
X180100639Y-75279667D01*
X180044865Y-75204011D01*
X179982989Y-75119577D01*
X179916181Y-75027994D01*
X179845613Y-74930892D01*
X179772455Y-74829901D01*
X179697879Y-74726650D01*
X179623056Y-74622768D01*
X179549157Y-74519885D01*
X179477354Y-74419631D01*
X179408816Y-74323636D01*
X179344716Y-74233527D01*
X179286225Y-74150936D01*
X179234514Y-74077492D01*
X179190753Y-74014824D01*
X179156115Y-73964561D01*
X179131770Y-73928334D01*
X179118889Y-73907771D01*
X179117131Y-73903668D01*
X179125090Y-73892342D01*
X179145885Y-73865162D01*
X179178153Y-73823829D01*
X179220530Y-73770044D01*
X179271653Y-73705506D01*
X179330159Y-73631918D01*
X179394686Y-73550978D01*
X179463869Y-73464388D01*
X179536347Y-73373848D01*
X179610754Y-73281060D01*
X179670483Y-73206702D01*
X180681489Y-73206702D01*
X180687398Y-73219659D01*
X180701728Y-73241908D01*
X180702775Y-73243391D01*
X180721562Y-73273544D01*
X180741209Y-73310375D01*
X180745108Y-73318511D01*
X180748644Y-73326940D01*
X180751770Y-73337059D01*
X180754514Y-73350260D01*
X180756908Y-73367938D01*
X180758981Y-73391484D01*
X180760765Y-73422293D01*
X180762288Y-73461757D01*
X180763581Y-73511269D01*
X180764674Y-73572223D01*
X180765597Y-73646011D01*
X180766381Y-73734028D01*
X180767055Y-73837665D01*
X180767650Y-73958316D01*
X180768195Y-74097374D01*
X180768721Y-74256232D01*
X180769255Y-74435089D01*
X180769794Y-74620207D01*
X180770228Y-74784145D01*
X180770491Y-74928303D01*
X180770516Y-75054079D01*
X180770235Y-75162871D01*
X180769581Y-75256077D01*
X180768486Y-75335097D01*
X180766882Y-75401328D01*
X180764703Y-75456170D01*
X180761881Y-75501021D01*
X180758349Y-75537278D01*
X180754039Y-75566341D01*
X180748883Y-75589609D01*
X180742815Y-75608479D01*
X180735767Y-75624351D01*
X180727671Y-75638622D01*
X180718460Y-75652691D01*
X180709960Y-75665158D01*
X180692824Y-75691452D01*
X180682678Y-75709037D01*
X180681489Y-75712257D01*
X180692396Y-75713334D01*
X180723589Y-75714335D01*
X180772777Y-75715235D01*
X180837667Y-75716010D01*
X180915970Y-75716637D01*
X181005393Y-75717091D01*
X181103644Y-75717349D01*
X181172555Y-75717400D01*
X181277548Y-75717180D01*
X181374390Y-75716548D01*
X181460893Y-75715549D01*
X181534868Y-75714227D01*
X181594126Y-75712626D01*
X181636480Y-75710791D01*
X181659740Y-75708765D01*
X181663622Y-75707493D01*
X181655924Y-75692591D01*
X181647926Y-75684560D01*
X181634754Y-75667434D01*
X181617515Y-75637183D01*
X181605593Y-75612622D01*
X181578955Y-75553711D01*
X181575880Y-74376845D01*
X181572805Y-73199978D01*
X181127147Y-73199978D01*
X181029330Y-73200142D01*
X180938936Y-73200611D01*
X180858370Y-73201347D01*
X180790038Y-73202316D01*
X180736344Y-73203480D01*
X180699695Y-73204803D01*
X180682496Y-73206249D01*
X180681489Y-73206702D01*
X179670483Y-73206702D01*
X179685730Y-73187722D01*
X179759910Y-73095537D01*
X179831931Y-73006204D01*
X179900431Y-72921424D01*
X179964045Y-72842898D01*
X180021412Y-72772326D01*
X180071167Y-72711409D01*
X180111948Y-72661847D01*
X180129112Y-72641178D01*
X180215404Y-72540516D01*
X180292003Y-72457259D01*
X180360817Y-72389438D01*
X180423752Y-72335089D01*
X180433133Y-72327722D01*
X180472644Y-72297117D01*
X179340884Y-72296867D01*
X179346173Y-72344844D01*
X179342870Y-72402188D01*
X179321339Y-72470463D01*
X179281365Y-72550212D01*
X179236057Y-72622495D01*
X179219839Y-72645140D01*
X179191786Y-72682696D01*
X179153570Y-72733021D01*
X179106863Y-72793973D01*
X179053339Y-72863411D01*
X178994669Y-72939194D01*
X178932525Y-73019180D01*
X178868579Y-73101228D01*
X178804505Y-73183196D01*
X178741973Y-73262943D01*
X178682657Y-73338327D01*
X178628229Y-73407207D01*
X178580361Y-73467442D01*
X178540725Y-73516889D01*
X178510994Y-73553408D01*
X178492839Y-73574858D01*
X178489780Y-73578156D01*
X178486921Y-73570149D01*
X178484707Y-73539855D01*
X178483143Y-73487556D01*
X178482233Y-73413531D01*
X178481980Y-73318063D01*
X178482387Y-73201434D01*
X178483296Y-73081445D01*
X178484618Y-72949333D01*
X178486143Y-72837594D01*
X178488119Y-72744025D01*
X178490794Y-72666419D01*
X178494418Y-72602574D01*
X178499239Y-72550283D01*
X178505506Y-72507344D01*
X178513468Y-72471551D01*
X178523373Y-72440700D01*
X178535469Y-72412586D01*
X178550007Y-72385005D01*
X178564689Y-72359966D01*
X178602686Y-72296867D01*
X177542803Y-72296867D01*
X177239966Y-72296867D01*
X177239999Y-72290617D01*
X177240805Y-72188544D01*
X177241830Y-72099633D01*
X177243100Y-72022941D01*
X177244640Y-71957527D01*
X177246476Y-71902449D01*
X177248633Y-71856765D01*
X177251137Y-71819534D01*
X177254013Y-71789813D01*
X177257287Y-71766662D01*
X177260985Y-71749139D01*
X177265131Y-71736301D01*
X177269753Y-71727208D01*
X177274874Y-71720918D01*
X177280522Y-71716488D01*
X177286721Y-71712978D01*
X177293496Y-71709445D01*
X177299492Y-71705876D01*
X177304725Y-71703300D01*
X177312901Y-71700972D01*
X177325114Y-71698878D01*
X177342459Y-71697007D01*
X177366031Y-71695347D01*
X177396923Y-71693884D01*
X177436232Y-71692608D01*
X177485050Y-71691504D01*
X177544473Y-71690561D01*
X177615596Y-71689767D01*
X177699512Y-71689109D01*
X177797317Y-71688575D01*
X177910106Y-71688153D01*
X178038971Y-71687829D01*
X178185009Y-71687592D01*
X178349314Y-71687430D01*
X178532980Y-71687330D01*
X178737103Y-71687280D01*
X178948247Y-71687267D01*
X180568600Y-71687267D01*
X180568600Y-71784054D01*
G36*
X183843429Y-72244071D02*
X184003570Y-72265245D01*
X184167510Y-72305385D01*
X184337313Y-72364889D01*
X184515043Y-72444154D01*
X184526310Y-72449699D01*
X184584005Y-72477725D01*
X184635552Y-72501802D01*
X184677191Y-72520249D01*
X184705162Y-72531386D01*
X184714733Y-72533933D01*
X184733950Y-72538941D01*
X184738561Y-72543147D01*
X184733458Y-72553580D01*
X184717418Y-72579868D01*
X184692288Y-72619257D01*
X184659914Y-72668991D01*
X184622143Y-72726315D01*
X184580822Y-72788476D01*
X184537798Y-72852718D01*
X184494917Y-72916285D01*
X184454026Y-72976425D01*
X184416971Y-73030380D01*
X184385600Y-73075397D01*
X184361759Y-73108721D01*
X184347294Y-73127597D01*
X184345309Y-73129787D01*
X184335191Y-73125138D01*
X184312850Y-73107962D01*
X184282280Y-73081440D01*
X184266536Y-73066964D01*
X184170047Y-72991682D01*
X184063336Y-72936241D01*
X183947832Y-72901141D01*
X183824962Y-72886880D01*
X183755561Y-72888051D01*
X183634423Y-72905212D01*
X183525205Y-72941094D01*
X183427582Y-72995959D01*
X183341228Y-73070070D01*
X183265815Y-73163688D01*
X183201018Y-73277076D01*
X183163601Y-73363667D01*
X183119748Y-73499366D01*
X183087428Y-73646850D01*
X183066557Y-73802314D01*
X183057051Y-73961956D01*
X183058827Y-74121973D01*
X183071803Y-74278561D01*
X183095894Y-74427918D01*
X183131018Y-74566240D01*
X183177092Y-74689724D01*
X183193373Y-74723978D01*
X183261620Y-74838064D01*
X183342079Y-74934557D01*
X183433570Y-75012670D01*
X183534911Y-75071617D01*
X183644920Y-75110612D01*
X183762415Y-75128868D01*
X183803883Y-75130211D01*
X183925441Y-75119290D01*
X184045878Y-75086474D01*
X184163666Y-75032439D01*
X184277277Y-74957865D01*
X184368685Y-74879539D01*
X184415215Y-74835008D01*
X184596483Y-75132271D01*
X184641580Y-75206433D01*
X184682819Y-75274646D01*
X184718735Y-75334459D01*
X184747866Y-75383420D01*
X184768750Y-75419079D01*
X184779924Y-75438984D01*
X184781375Y-75442079D01*
X184773146Y-75451718D01*
X184747567Y-75468999D01*
X184707873Y-75492283D01*
X184657297Y-75519934D01*
X184599074Y-75550315D01*
X184536437Y-75581790D01*
X184472621Y-75612722D01*
X184410860Y-75641473D01*
X184354388Y-75666408D01*
X184306438Y-75685889D01*
X184282986Y-75694318D01*
X184149221Y-75732133D01*
X184011327Y-75757136D01*
X183863622Y-75770140D01*
X183736833Y-75772468D01*
X183668878Y-75771373D01*
X183603277Y-75769275D01*
X183545847Y-75766434D01*
X183502403Y-75763106D01*
X183488298Y-75761422D01*
X183349284Y-75732587D01*
X183207757Y-75687468D01*
X183070275Y-75628750D01*
X182943394Y-75559120D01*
X182865889Y-75506441D01*
X182738481Y-75398239D01*
X182620178Y-75271671D01*
X182513172Y-75129866D01*
X182419652Y-74975951D01*
X182341810Y-74813053D01*
X182297956Y-74695756D01*
X182247708Y-74512128D01*
X182214209Y-74317581D01*
X182197449Y-74116325D01*
X182197416Y-73912568D01*
X182214101Y-73710521D01*
X182247493Y-73514392D01*
X182297580Y-73328391D01*
X182301397Y-73316803D01*
X182364281Y-73154750D01*
X182441028Y-73006832D01*
X182534242Y-72868865D01*
X182646527Y-72736661D01*
X182690392Y-72691399D01*
X182826534Y-72567457D01*
X182966491Y-72464915D01*
X183112411Y-72382656D01*
X183266442Y-72319564D01*
X183430732Y-72274523D01*
X183526289Y-72257033D01*
X183685023Y-72241466D01*
X183843429Y-72244071D01*
X183843429Y-72244071D01*
G37*
X183843429Y-72244071D02*
X184003570Y-72265245D01*
X184167510Y-72305385D01*
X184337313Y-72364889D01*
X184515043Y-72444154D01*
X184526310Y-72449699D01*
X184584005Y-72477725D01*
X184635552Y-72501802D01*
X184677191Y-72520249D01*
X184705162Y-72531386D01*
X184714733Y-72533933D01*
X184733950Y-72538941D01*
X184738561Y-72543147D01*
X184733458Y-72553580D01*
X184717418Y-72579868D01*
X184692288Y-72619257D01*
X184659914Y-72668991D01*
X184622143Y-72726315D01*
X184580822Y-72788476D01*
X184537798Y-72852718D01*
X184494917Y-72916285D01*
X184454026Y-72976425D01*
X184416971Y-73030380D01*
X184385600Y-73075397D01*
X184361759Y-73108721D01*
X184347294Y-73127597D01*
X184345309Y-73129787D01*
X184335191Y-73125138D01*
X184312850Y-73107962D01*
X184282280Y-73081440D01*
X184266536Y-73066964D01*
X184170047Y-72991682D01*
X184063336Y-72936241D01*
X183947832Y-72901141D01*
X183824962Y-72886880D01*
X183755561Y-72888051D01*
X183634423Y-72905212D01*
X183525205Y-72941094D01*
X183427582Y-72995959D01*
X183341228Y-73070070D01*
X183265815Y-73163688D01*
X183201018Y-73277076D01*
X183163601Y-73363667D01*
X183119748Y-73499366D01*
X183087428Y-73646850D01*
X183066557Y-73802314D01*
X183057051Y-73961956D01*
X183058827Y-74121973D01*
X183071803Y-74278561D01*
X183095894Y-74427918D01*
X183131018Y-74566240D01*
X183177092Y-74689724D01*
X183193373Y-74723978D01*
X183261620Y-74838064D01*
X183342079Y-74934557D01*
X183433570Y-75012670D01*
X183534911Y-75071617D01*
X183644920Y-75110612D01*
X183762415Y-75128868D01*
X183803883Y-75130211D01*
X183925441Y-75119290D01*
X184045878Y-75086474D01*
X184163666Y-75032439D01*
X184277277Y-74957865D01*
X184368685Y-74879539D01*
X184415215Y-74835008D01*
X184596483Y-75132271D01*
X184641580Y-75206433D01*
X184682819Y-75274646D01*
X184718735Y-75334459D01*
X184747866Y-75383420D01*
X184768750Y-75419079D01*
X184779924Y-75438984D01*
X184781375Y-75442079D01*
X184773146Y-75451718D01*
X184747567Y-75468999D01*
X184707873Y-75492283D01*
X184657297Y-75519934D01*
X184599074Y-75550315D01*
X184536437Y-75581790D01*
X184472621Y-75612722D01*
X184410860Y-75641473D01*
X184354388Y-75666408D01*
X184306438Y-75685889D01*
X184282986Y-75694318D01*
X184149221Y-75732133D01*
X184011327Y-75757136D01*
X183863622Y-75770140D01*
X183736833Y-75772468D01*
X183668878Y-75771373D01*
X183603277Y-75769275D01*
X183545847Y-75766434D01*
X183502403Y-75763106D01*
X183488298Y-75761422D01*
X183349284Y-75732587D01*
X183207757Y-75687468D01*
X183070275Y-75628750D01*
X182943394Y-75559120D01*
X182865889Y-75506441D01*
X182738481Y-75398239D01*
X182620178Y-75271671D01*
X182513172Y-75129866D01*
X182419652Y-74975951D01*
X182341810Y-74813053D01*
X182297956Y-74695756D01*
X182247708Y-74512128D01*
X182214209Y-74317581D01*
X182197449Y-74116325D01*
X182197416Y-73912568D01*
X182214101Y-73710521D01*
X182247493Y-73514392D01*
X182297580Y-73328391D01*
X182301397Y-73316803D01*
X182364281Y-73154750D01*
X182441028Y-73006832D01*
X182534242Y-72868865D01*
X182646527Y-72736661D01*
X182690392Y-72691399D01*
X182826534Y-72567457D01*
X182966491Y-72464915D01*
X183112411Y-72382656D01*
X183266442Y-72319564D01*
X183430732Y-72274523D01*
X183526289Y-72257033D01*
X183685023Y-72241466D01*
X183843429Y-72244071D01*
G36*
X186188574Y-73161552D02*
X186340492Y-73181567D01*
X186475756Y-73215202D01*
X186595239Y-73262725D01*
X186699815Y-73324405D01*
X186777424Y-73387965D01*
X186846265Y-73462099D01*
X186900006Y-73541871D01*
X186942910Y-73634091D01*
X186958384Y-73677161D01*
X186971244Y-73716142D01*
X186982446Y-73752289D01*
X186992120Y-73787434D01*
X187000396Y-73823410D01*
X187007403Y-73862050D01*
X187013272Y-73905185D01*
X187018131Y-73954649D01*
X187022110Y-74012273D01*
X187025340Y-74079891D01*
X187027949Y-74159334D01*
X187030067Y-74252436D01*
X187031824Y-74361027D01*
X187033349Y-74486942D01*
X187034772Y-74632012D01*
X187036025Y-74774778D01*
X187037351Y-74930968D01*
X187038556Y-75066239D01*
X187039766Y-75182246D01*
X187041106Y-75280645D01*
X187042700Y-75363093D01*
X187044675Y-75431246D01*
X187047156Y-75486760D01*
X187050269Y-75531292D01*
X187054138Y-75566498D01*
X187058889Y-75594034D01*
X187064648Y-75615556D01*
X187071539Y-75632722D01*
X187079689Y-75647186D01*
X187089223Y-75660606D01*
X187100266Y-75674638D01*
X187104566Y-75680071D01*
X187120386Y-75702910D01*
X187127422Y-75718463D01*
X187127444Y-75718922D01*
X187116567Y-75721121D01*
X187085582Y-75723147D01*
X187036957Y-75724942D01*
X186973163Y-75726451D01*
X186896669Y-75727616D01*
X186809944Y-75728380D01*
X186715457Y-75728686D01*
X186704550Y-75728689D01*
X186281657Y-75728689D01*
X186278395Y-75632622D01*
X186275133Y-75536556D01*
X186213044Y-75587543D01*
X186115714Y-75655057D01*
X186005813Y-75709749D01*
X185919349Y-75739978D01*
X185850278Y-75754666D01*
X185766925Y-75764659D01*
X185677159Y-75769646D01*
X185588845Y-75769313D01*
X185509851Y-75763351D01*
X185473622Y-75757638D01*
X185333603Y-75719776D01*
X185207178Y-75664932D01*
X185095260Y-75593924D01*
X184998762Y-75507568D01*
X184918600Y-75406679D01*
X184855687Y-75292076D01*
X184811312Y-75165984D01*
X184798978Y-75109401D01*
X184791368Y-75047202D01*
X184787739Y-74972363D01*
X184787245Y-74938467D01*
X184787310Y-74935282D01*
X185547248Y-74935282D01*
X185556541Y-75010333D01*
X185584728Y-75074160D01*
X185633197Y-75129798D01*
X185638254Y-75134211D01*
X185686548Y-75169037D01*
X185738257Y-75191620D01*
X185798989Y-75203540D01*
X185874352Y-75206383D01*
X185892459Y-75205978D01*
X185946278Y-75203325D01*
X185986308Y-75197909D01*
X186021324Y-75187745D01*
X186060103Y-75170850D01*
X186070745Y-75165672D01*
X186131396Y-75129844D01*
X186178215Y-75087212D01*
X186190952Y-75071973D01*
X186235622Y-75015462D01*
X186235622Y-74819586D01*
X186235086Y-74740939D01*
X186233396Y-74682988D01*
X186230428Y-74643875D01*
X186226057Y-74621741D01*
X186221972Y-74615274D01*
X186206047Y-74612111D01*
X186172264Y-74609488D01*
X186125340Y-74607655D01*
X186069993Y-74606857D01*
X186061106Y-74606842D01*
X185940330Y-74612096D01*
X185837660Y-74628263D01*
X185751106Y-74655961D01*
X185678681Y-74695808D01*
X185623751Y-74742758D01*
X185579204Y-74800645D01*
X185554480Y-74863693D01*
X185547248Y-74935282D01*
X184787310Y-74935282D01*
X184789178Y-74844712D01*
X184797522Y-74765812D01*
X184813768Y-74694590D01*
X184839405Y-74623864D01*
X184863401Y-74571493D01*
X184922020Y-74476196D01*
X185000117Y-74388170D01*
X185095315Y-74309017D01*
X185205238Y-74240340D01*
X185327510Y-74183741D01*
X185459755Y-74140821D01*
X185524422Y-74125882D01*
X185660604Y-74103777D01*
X185809049Y-74089194D01*
X185960505Y-74082813D01*
X186087064Y-74084445D01*
X186248950Y-74091224D01*
X186241530Y-74032245D01*
X186222238Y-73933092D01*
X186191104Y-73852372D01*
X186147269Y-73789466D01*
X186089871Y-73743756D01*
X186018048Y-73714622D01*
X185930941Y-73701447D01*
X185827686Y-73703611D01*
X185789711Y-73707612D01*
X185648520Y-73732780D01*
X185511707Y-73773814D01*
X185417178Y-73811815D01*
X185372018Y-73831190D01*
X185333585Y-73846760D01*
X185307234Y-73856405D01*
X185299546Y-73858452D01*
X185289802Y-73849374D01*
X185273083Y-73820405D01*
X185249232Y-73771217D01*
X185218093Y-73701484D01*
X185179507Y-73610879D01*
X185172910Y-73595089D01*
X185142853Y-73522772D01*
X185115874Y-73457425D01*
X185093136Y-73401906D01*
X185075806Y-73359072D01*
X185065048Y-73331781D01*
X185061941Y-73322942D01*
X185071940Y-73318187D01*
X185098217Y-73312910D01*
X185126489Y-73309231D01*
X185156646Y-73304474D01*
X185204433Y-73295028D01*
X185265612Y-73281820D01*
X185335946Y-73265776D01*
X185411194Y-73247820D01*
X185439755Y-73240797D01*
X185544816Y-73215209D01*
X185632480Y-73195147D01*
X185707068Y-73179969D01*
X185772903Y-73169035D01*
X185834307Y-73161704D01*
X185895602Y-73157335D01*
X185961110Y-73155287D01*
X186019128Y-73154889D01*
X186188574Y-73161552D01*
X186188574Y-73161552D01*
G37*
X186188574Y-73161552D02*
X186340492Y-73181567D01*
X186475756Y-73215202D01*
X186595239Y-73262725D01*
X186699815Y-73324405D01*
X186777424Y-73387965D01*
X186846265Y-73462099D01*
X186900006Y-73541871D01*
X186942910Y-73634091D01*
X186958384Y-73677161D01*
X186971244Y-73716142D01*
X186982446Y-73752289D01*
X186992120Y-73787434D01*
X187000396Y-73823410D01*
X187007403Y-73862050D01*
X187013272Y-73905185D01*
X187018131Y-73954649D01*
X187022110Y-74012273D01*
X187025340Y-74079891D01*
X187027949Y-74159334D01*
X187030067Y-74252436D01*
X187031824Y-74361027D01*
X187033349Y-74486942D01*
X187034772Y-74632012D01*
X187036025Y-74774778D01*
X187037351Y-74930968D01*
X187038556Y-75066239D01*
X187039766Y-75182246D01*
X187041106Y-75280645D01*
X187042700Y-75363093D01*
X187044675Y-75431246D01*
X187047156Y-75486760D01*
X187050269Y-75531292D01*
X187054138Y-75566498D01*
X187058889Y-75594034D01*
X187064648Y-75615556D01*
X187071539Y-75632722D01*
X187079689Y-75647186D01*
X187089223Y-75660606D01*
X187100266Y-75674638D01*
X187104566Y-75680071D01*
X187120386Y-75702910D01*
X187127422Y-75718463D01*
X187127444Y-75718922D01*
X187116567Y-75721121D01*
X187085582Y-75723147D01*
X187036957Y-75724942D01*
X186973163Y-75726451D01*
X186896669Y-75727616D01*
X186809944Y-75728380D01*
X186715457Y-75728686D01*
X186704550Y-75728689D01*
X186281657Y-75728689D01*
X186278395Y-75632622D01*
X186275133Y-75536556D01*
X186213044Y-75587543D01*
X186115714Y-75655057D01*
X186005813Y-75709749D01*
X185919349Y-75739978D01*
X185850278Y-75754666D01*
X185766925Y-75764659D01*
X185677159Y-75769646D01*
X185588845Y-75769313D01*
X185509851Y-75763351D01*
X185473622Y-75757638D01*
X185333603Y-75719776D01*
X185207178Y-75664932D01*
X185095260Y-75593924D01*
X184998762Y-75507568D01*
X184918600Y-75406679D01*
X184855687Y-75292076D01*
X184811312Y-75165984D01*
X184798978Y-75109401D01*
X184791368Y-75047202D01*
X184787739Y-74972363D01*
X184787245Y-74938467D01*
X184787310Y-74935282D01*
X185547248Y-74935282D01*
X185556541Y-75010333D01*
X185584728Y-75074160D01*
X185633197Y-75129798D01*
X185638254Y-75134211D01*
X185686548Y-75169037D01*
X185738257Y-75191620D01*
X185798989Y-75203540D01*
X185874352Y-75206383D01*
X185892459Y-75205978D01*
X185946278Y-75203325D01*
X185986308Y-75197909D01*
X186021324Y-75187745D01*
X186060103Y-75170850D01*
X186070745Y-75165672D01*
X186131396Y-75129844D01*
X186178215Y-75087212D01*
X186190952Y-75071973D01*
X186235622Y-75015462D01*
X186235622Y-74819586D01*
X186235086Y-74740939D01*
X186233396Y-74682988D01*
X186230428Y-74643875D01*
X186226057Y-74621741D01*
X186221972Y-74615274D01*
X186206047Y-74612111D01*
X186172264Y-74609488D01*
X186125340Y-74607655D01*
X186069993Y-74606857D01*
X186061106Y-74606842D01*
X185940330Y-74612096D01*
X185837660Y-74628263D01*
X185751106Y-74655961D01*
X185678681Y-74695808D01*
X185623751Y-74742758D01*
X185579204Y-74800645D01*
X185554480Y-74863693D01*
X185547248Y-74935282D01*
X184787310Y-74935282D01*
X184789178Y-74844712D01*
X184797522Y-74765812D01*
X184813768Y-74694590D01*
X184839405Y-74623864D01*
X184863401Y-74571493D01*
X184922020Y-74476196D01*
X185000117Y-74388170D01*
X185095315Y-74309017D01*
X185205238Y-74240340D01*
X185327510Y-74183741D01*
X185459755Y-74140821D01*
X185524422Y-74125882D01*
X185660604Y-74103777D01*
X185809049Y-74089194D01*
X185960505Y-74082813D01*
X186087064Y-74084445D01*
X186248950Y-74091224D01*
X186241530Y-74032245D01*
X186222238Y-73933092D01*
X186191104Y-73852372D01*
X186147269Y-73789466D01*
X186089871Y-73743756D01*
X186018048Y-73714622D01*
X185930941Y-73701447D01*
X185827686Y-73703611D01*
X185789711Y-73707612D01*
X185648520Y-73732780D01*
X185511707Y-73773814D01*
X185417178Y-73811815D01*
X185372018Y-73831190D01*
X185333585Y-73846760D01*
X185307234Y-73856405D01*
X185299546Y-73858452D01*
X185289802Y-73849374D01*
X185273083Y-73820405D01*
X185249232Y-73771217D01*
X185218093Y-73701484D01*
X185179507Y-73610879D01*
X185172910Y-73595089D01*
X185142853Y-73522772D01*
X185115874Y-73457425D01*
X185093136Y-73401906D01*
X185075806Y-73359072D01*
X185065048Y-73331781D01*
X185061941Y-73322942D01*
X185071940Y-73318187D01*
X185098217Y-73312910D01*
X185126489Y-73309231D01*
X185156646Y-73304474D01*
X185204433Y-73295028D01*
X185265612Y-73281820D01*
X185335946Y-73265776D01*
X185411194Y-73247820D01*
X185439755Y-73240797D01*
X185544816Y-73215209D01*
X185632480Y-73195147D01*
X185707068Y-73179969D01*
X185772903Y-73169035D01*
X185834307Y-73161704D01*
X185895602Y-73157335D01*
X185961110Y-73155287D01*
X186019128Y-73154889D01*
X186188574Y-73161552D01*
G36*
X189701507Y-73767245D02*
X189701526Y-74001662D01*
X189701552Y-74214603D01*
X189701625Y-74407168D01*
X189701782Y-74580459D01*
X189702064Y-74735576D01*
X189702509Y-74873620D01*
X189703156Y-74995692D01*
X189704045Y-75102894D01*
X189705213Y-75196326D01*
X189706701Y-75277090D01*
X189708546Y-75346286D01*
X189710789Y-75405015D01*
X189713469Y-75454379D01*
X189716623Y-75495478D01*
X189720292Y-75529413D01*
X189724513Y-75557286D01*
X189729327Y-75580198D01*
X189734773Y-75599249D01*
X189740888Y-75615540D01*
X189747712Y-75630173D01*
X189755285Y-75644249D01*
X189763645Y-75658868D01*
X189768839Y-75667974D01*
X189803104Y-75728689D01*
X188944955Y-75728689D01*
X188944955Y-75632733D01*
X188944224Y-75589370D01*
X188942272Y-75556205D01*
X188939463Y-75538424D01*
X188938221Y-75536778D01*
X188926799Y-75543662D01*
X188904084Y-75561505D01*
X188881385Y-75580879D01*
X188826800Y-75621614D01*
X188757321Y-75662617D01*
X188680270Y-75700123D01*
X188602965Y-75730364D01*
X188572113Y-75740012D01*
X188503616Y-75754578D01*
X188420764Y-75764539D01*
X188331371Y-75769583D01*
X188243248Y-75769396D01*
X188164207Y-75763666D01*
X188126511Y-75757858D01*
X187988414Y-75719797D01*
X187861113Y-75662073D01*
X187745292Y-75585211D01*
X187641637Y-75489739D01*
X187550833Y-75376179D01*
X187484031Y-75265381D01*
X187429164Y-75148625D01*
X187387163Y-75029276D01*
X187357167Y-74903283D01*
X187338311Y-74766594D01*
X187329732Y-74615158D01*
X187329006Y-74537711D01*
X187331100Y-74480934D01*
X188160217Y-74480934D01*
X188160424Y-74574002D01*
X188163337Y-74661692D01*
X188169000Y-74738772D01*
X188177455Y-74800009D01*
X188180038Y-74812350D01*
X188211840Y-74919633D01*
X188253498Y-75006658D01*
X188305363Y-75073642D01*
X188367781Y-75120805D01*
X188441100Y-75148365D01*
X188525669Y-75156541D01*
X188621835Y-75145551D01*
X188685311Y-75129829D01*
X188734454Y-75111639D01*
X188788583Y-75085791D01*
X188829244Y-75062089D01*
X188899800Y-75015721D01*
X188899800Y-73865530D01*
X188832392Y-73821962D01*
X188753867Y-73781040D01*
X188669681Y-73754389D01*
X188584557Y-73742465D01*
X188503216Y-73745722D01*
X188430380Y-73764615D01*
X188398426Y-73780184D01*
X188340501Y-73823181D01*
X188291544Y-73879953D01*
X188250390Y-73952575D01*
X188215874Y-74043121D01*
X188186833Y-74153666D01*
X188185552Y-74159533D01*
X188175381Y-74221788D01*
X188167739Y-74299594D01*
X188162670Y-74387720D01*
X188160217Y-74480934D01*
X187331100Y-74480934D01*
X187336857Y-74324895D01*
X187358802Y-74129059D01*
X187394786Y-73950332D01*
X187444759Y-73788845D01*
X187508668Y-73644726D01*
X187586462Y-73518106D01*
X187678089Y-73409115D01*
X187783497Y-73317883D01*
X187828662Y-73286932D01*
X187929611Y-73230785D01*
X188032901Y-73191174D01*
X188142989Y-73167014D01*
X188264330Y-73157219D01*
X188356836Y-73158265D01*
X188486490Y-73169231D01*
X188599084Y-73191046D01*
X188697875Y-73224714D01*
X188786121Y-73271236D01*
X188834986Y-73305448D01*
X188864353Y-73327362D01*
X188886043Y-73342333D01*
X188894253Y-73346733D01*
X188895868Y-73335904D01*
X188897159Y-73305251D01*
X188898138Y-73257526D01*
X188898817Y-73195479D01*
X188899210Y-73121862D01*
X188899330Y-73039427D01*
X188899188Y-72950925D01*
X188898797Y-72859107D01*
X188898171Y-72766724D01*
X188897320Y-72676528D01*
X188896260Y-72591271D01*
X188895001Y-72513703D01*
X188893556Y-72446576D01*
X188891938Y-72392641D01*
X188890161Y-72354650D01*
X188889669Y-72347667D01*
X188882092Y-72277251D01*
X188870531Y-72222102D01*
X188852792Y-72174981D01*
X188826682Y-72128647D01*
X188820415Y-72119067D01*
X188795983Y-72082378D01*
X189701311Y-72082378D01*
X189701507Y-73767245D01*
X189701507Y-73767245D01*
G37*
X189701507Y-73767245D02*
X189701526Y-74001662D01*
X189701552Y-74214603D01*
X189701625Y-74407168D01*
X189701782Y-74580459D01*
X189702064Y-74735576D01*
X189702509Y-74873620D01*
X189703156Y-74995692D01*
X189704045Y-75102894D01*
X189705213Y-75196326D01*
X189706701Y-75277090D01*
X189708546Y-75346286D01*
X189710789Y-75405015D01*
X189713469Y-75454379D01*
X189716623Y-75495478D01*
X189720292Y-75529413D01*
X189724513Y-75557286D01*
X189729327Y-75580198D01*
X189734773Y-75599249D01*
X189740888Y-75615540D01*
X189747712Y-75630173D01*
X189755285Y-75644249D01*
X189763645Y-75658868D01*
X189768839Y-75667974D01*
X189803104Y-75728689D01*
X188944955Y-75728689D01*
X188944955Y-75632733D01*
X188944224Y-75589370D01*
X188942272Y-75556205D01*
X188939463Y-75538424D01*
X188938221Y-75536778D01*
X188926799Y-75543662D01*
X188904084Y-75561505D01*
X188881385Y-75580879D01*
X188826800Y-75621614D01*
X188757321Y-75662617D01*
X188680270Y-75700123D01*
X188602965Y-75730364D01*
X188572113Y-75740012D01*
X188503616Y-75754578D01*
X188420764Y-75764539D01*
X188331371Y-75769583D01*
X188243248Y-75769396D01*
X188164207Y-75763666D01*
X188126511Y-75757858D01*
X187988414Y-75719797D01*
X187861113Y-75662073D01*
X187745292Y-75585211D01*
X187641637Y-75489739D01*
X187550833Y-75376179D01*
X187484031Y-75265381D01*
X187429164Y-75148625D01*
X187387163Y-75029276D01*
X187357167Y-74903283D01*
X187338311Y-74766594D01*
X187329732Y-74615158D01*
X187329006Y-74537711D01*
X187331100Y-74480934D01*
X188160217Y-74480934D01*
X188160424Y-74574002D01*
X188163337Y-74661692D01*
X188169000Y-74738772D01*
X188177455Y-74800009D01*
X188180038Y-74812350D01*
X188211840Y-74919633D01*
X188253498Y-75006658D01*
X188305363Y-75073642D01*
X188367781Y-75120805D01*
X188441100Y-75148365D01*
X188525669Y-75156541D01*
X188621835Y-75145551D01*
X188685311Y-75129829D01*
X188734454Y-75111639D01*
X188788583Y-75085791D01*
X188829244Y-75062089D01*
X188899800Y-75015721D01*
X188899800Y-73865530D01*
X188832392Y-73821962D01*
X188753867Y-73781040D01*
X188669681Y-73754389D01*
X188584557Y-73742465D01*
X188503216Y-73745722D01*
X188430380Y-73764615D01*
X188398426Y-73780184D01*
X188340501Y-73823181D01*
X188291544Y-73879953D01*
X188250390Y-73952575D01*
X188215874Y-74043121D01*
X188186833Y-74153666D01*
X188185552Y-74159533D01*
X188175381Y-74221788D01*
X188167739Y-74299594D01*
X188162670Y-74387720D01*
X188160217Y-74480934D01*
X187331100Y-74480934D01*
X187336857Y-74324895D01*
X187358802Y-74129059D01*
X187394786Y-73950332D01*
X187444759Y-73788845D01*
X187508668Y-73644726D01*
X187586462Y-73518106D01*
X187678089Y-73409115D01*
X187783497Y-73317883D01*
X187828662Y-73286932D01*
X187929611Y-73230785D01*
X188032901Y-73191174D01*
X188142989Y-73167014D01*
X188264330Y-73157219D01*
X188356836Y-73158265D01*
X188486490Y-73169231D01*
X188599084Y-73191046D01*
X188697875Y-73224714D01*
X188786121Y-73271236D01*
X188834986Y-73305448D01*
X188864353Y-73327362D01*
X188886043Y-73342333D01*
X188894253Y-73346733D01*
X188895868Y-73335904D01*
X188897159Y-73305251D01*
X188898138Y-73257526D01*
X188898817Y-73195479D01*
X188899210Y-73121862D01*
X188899330Y-73039427D01*
X188899188Y-72950925D01*
X188898797Y-72859107D01*
X188898171Y-72766724D01*
X188897320Y-72676528D01*
X188896260Y-72591271D01*
X188895001Y-72513703D01*
X188893556Y-72446576D01*
X188891938Y-72392641D01*
X188890161Y-72354650D01*
X188889669Y-72347667D01*
X188882092Y-72277251D01*
X188870531Y-72222102D01*
X188852792Y-72174981D01*
X188826682Y-72128647D01*
X188820415Y-72119067D01*
X188795983Y-72082378D01*
X189701311Y-72082378D01*
X189701507Y-73767245D01*
G36*
X181241957Y-71321571D02*
X181338232Y-71345809D01*
X181424816Y-71388641D01*
X181499627Y-71448419D01*
X181560582Y-71523494D01*
X181605601Y-71612220D01*
X181631864Y-71708530D01*
X181637714Y-71805795D01*
X181622860Y-71899654D01*
X181589160Y-71987511D01*
X181538472Y-72066770D01*
X181472655Y-72134836D01*
X181393566Y-72189112D01*
X181303066Y-72227002D01*
X181251800Y-72239426D01*
X181207302Y-72246947D01*
X181173001Y-72249919D01*
X181140040Y-72248094D01*
X181099566Y-72241225D01*
X181066469Y-72234250D01*
X180973053Y-72202741D01*
X180889381Y-72151617D01*
X180817335Y-72082429D01*
X180758800Y-71996728D01*
X180744852Y-71969489D01*
X180728414Y-71933122D01*
X180718106Y-71902582D01*
X180712540Y-71870450D01*
X180710331Y-71829307D01*
X180710052Y-71783222D01*
X180714139Y-71698865D01*
X180727554Y-71629586D01*
X180752744Y-71568961D01*
X180792154Y-71510567D01*
X180830702Y-71466302D01*
X180902594Y-71400484D01*
X180977687Y-71355053D01*
X181060438Y-71327850D01*
X181138072Y-71317576D01*
X181241957Y-71321571D01*
X181241957Y-71321571D01*
G37*
X181241957Y-71321571D02*
X181338232Y-71345809D01*
X181424816Y-71388641D01*
X181499627Y-71448419D01*
X181560582Y-71523494D01*
X181605601Y-71612220D01*
X181631864Y-71708530D01*
X181637714Y-71805795D01*
X181622860Y-71899654D01*
X181589160Y-71987511D01*
X181538472Y-72066770D01*
X181472655Y-72134836D01*
X181393566Y-72189112D01*
X181303066Y-72227002D01*
X181251800Y-72239426D01*
X181207302Y-72246947D01*
X181173001Y-72249919D01*
X181140040Y-72248094D01*
X181099566Y-72241225D01*
X181066469Y-72234250D01*
X180973053Y-72202741D01*
X180889381Y-72151617D01*
X180817335Y-72082429D01*
X180758800Y-71996728D01*
X180744852Y-71969489D01*
X180728414Y-71933122D01*
X180718106Y-71902582D01*
X180712540Y-71870450D01*
X180710331Y-71829307D01*
X180710052Y-71783222D01*
X180714139Y-71698865D01*
X180727554Y-71629586D01*
X180752744Y-71568961D01*
X180792154Y-71510567D01*
X180830702Y-71466302D01*
X180902594Y-71400484D01*
X180977687Y-71355053D01*
X181060438Y-71327850D01*
X181138072Y-71317576D01*
X181241957Y-71321571D01*
D11*
X160020000Y-106680000D02*
X160020000Y-78740000D01*
X160020000Y-78740000D02*
X180340000Y-78740000D01*
X180340000Y-78740000D02*
X180340000Y-106680000D01*
X180340000Y-106680000D02*
X160020000Y-106680000D01*
X139700000Y-106680000D02*
X139700000Y-78740000D01*
X139700000Y-78740000D02*
X160020000Y-78740000D01*
X160020000Y-78740000D02*
X160020000Y-106680000D01*
X160020000Y-106680000D02*
X139700000Y-106680000D01*
X180340000Y-106680000D02*
X180340000Y-78740000D01*
X180340000Y-78740000D02*
X200660000Y-78740000D01*
X200660000Y-78740000D02*
X200660000Y-106680000D01*
X200660000Y-106680000D02*
X180340000Y-106680000D01*
X119380000Y-106680000D02*
X119380000Y-78740000D01*
X119380000Y-78740000D02*
X139700000Y-78740000D01*
X139700000Y-78740000D02*
X139700000Y-106680000D01*
X139700000Y-106680000D02*
X119380000Y-106680000D01*
X175093334Y-126182381D02*
X174760000Y-125706190D01*
X174521905Y-126182381D02*
X174521905Y-125182381D01*
X174902858Y-125182381D01*
X174998096Y-125230000D01*
X175045715Y-125277619D01*
X175093334Y-125372857D01*
X175093334Y-125515714D01*
X175045715Y-125610952D01*
X174998096Y-125658571D01*
X174902858Y-125706190D01*
X174521905Y-125706190D01*
X175474286Y-125277619D02*
X175521905Y-125230000D01*
X175617143Y-125182381D01*
X175855239Y-125182381D01*
X175950477Y-125230000D01*
X175998096Y-125277619D01*
X176045715Y-125372857D01*
X176045715Y-125468095D01*
X175998096Y-125610952D01*
X175426667Y-126182381D01*
X176045715Y-126182381D01*
X124801334Y-122717143D02*
X124753715Y-122764762D01*
X124610858Y-122812381D01*
X124515620Y-122812381D01*
X124372762Y-122764762D01*
X124277524Y-122669524D01*
X124229905Y-122574286D01*
X124182286Y-122383810D01*
X124182286Y-122240952D01*
X124229905Y-122050476D01*
X124277524Y-121955238D01*
X124372762Y-121860000D01*
X124515620Y-121812381D01*
X124610858Y-121812381D01*
X124753715Y-121860000D01*
X124801334Y-121907619D01*
X125753715Y-122812381D02*
X125182286Y-122812381D01*
X125468000Y-122812381D02*
X125468000Y-121812381D01*
X125372762Y-121955238D01*
X125277524Y-122050476D01*
X125182286Y-122098095D01*
X130897334Y-126917143D02*
X130849715Y-126964762D01*
X130706858Y-127012381D01*
X130611620Y-127012381D01*
X130468762Y-126964762D01*
X130373524Y-126869524D01*
X130325905Y-126774286D01*
X130278286Y-126583810D01*
X130278286Y-126440952D01*
X130325905Y-126250476D01*
X130373524Y-126155238D01*
X130468762Y-126060000D01*
X130611620Y-126012381D01*
X130706858Y-126012381D01*
X130849715Y-126060000D01*
X130897334Y-126107619D01*
X131278286Y-126107619D02*
X131325905Y-126060000D01*
X131421143Y-126012381D01*
X131659239Y-126012381D01*
X131754477Y-126060000D01*
X131802096Y-126107619D01*
X131849715Y-126202857D01*
X131849715Y-126298095D01*
X131802096Y-126440952D01*
X131230667Y-127012381D01*
X131849715Y-127012381D01*
X157959143Y-117641666D02*
X158006762Y-117689285D01*
X158054381Y-117832142D01*
X158054381Y-117927380D01*
X158006762Y-118070238D01*
X157911524Y-118165476D01*
X157816286Y-118213095D01*
X157625810Y-118260714D01*
X157482952Y-118260714D01*
X157292476Y-118213095D01*
X157197238Y-118165476D01*
X157102000Y-118070238D01*
X157054381Y-117927380D01*
X157054381Y-117832142D01*
X157102000Y-117689285D01*
X157149619Y-117641666D01*
X157054381Y-117308333D02*
X157054381Y-116689285D01*
X157435333Y-117022619D01*
X157435333Y-116879761D01*
X157482952Y-116784523D01*
X157530571Y-116736904D01*
X157625810Y-116689285D01*
X157863905Y-116689285D01*
X157959143Y-116736904D01*
X158006762Y-116784523D01*
X158054381Y-116879761D01*
X158054381Y-117165476D01*
X158006762Y-117260714D01*
X157959143Y-117308333D01*
X192757143Y-113831666D02*
X192804762Y-113879285D01*
X192852381Y-114022142D01*
X192852381Y-114117380D01*
X192804762Y-114260238D01*
X192709524Y-114355476D01*
X192614286Y-114403095D01*
X192423810Y-114450714D01*
X192280952Y-114450714D01*
X192090476Y-114403095D01*
X191995238Y-114355476D01*
X191900000Y-114260238D01*
X191852381Y-114117380D01*
X191852381Y-114022142D01*
X191900000Y-113879285D01*
X191947619Y-113831666D01*
X192185714Y-112974523D02*
X192852381Y-112974523D01*
X191804762Y-113212619D02*
X192519048Y-113450714D01*
X192519048Y-112831666D01*
X146518334Y-107037143D02*
X146470715Y-107084762D01*
X146327858Y-107132381D01*
X146232620Y-107132381D01*
X146089762Y-107084762D01*
X145994524Y-106989524D01*
X145946905Y-106894286D01*
X145899286Y-106703810D01*
X145899286Y-106560952D01*
X145946905Y-106370476D01*
X145994524Y-106275238D01*
X146089762Y-106180000D01*
X146232620Y-106132381D01*
X146327858Y-106132381D01*
X146470715Y-106180000D01*
X146518334Y-106227619D01*
X147423096Y-106132381D02*
X146946905Y-106132381D01*
X146899286Y-106608571D01*
X146946905Y-106560952D01*
X147042143Y-106513333D01*
X147280239Y-106513333D01*
X147375477Y-106560952D01*
X147423096Y-106608571D01*
X147470715Y-106703810D01*
X147470715Y-106941905D01*
X147423096Y-107037143D01*
X147375477Y-107084762D01*
X147280239Y-107132381D01*
X147042143Y-107132381D01*
X146946905Y-107084762D01*
X146899286Y-107037143D01*
X138147143Y-115736666D02*
X138194762Y-115784285D01*
X138242381Y-115927142D01*
X138242381Y-116022380D01*
X138194762Y-116165238D01*
X138099524Y-116260476D01*
X138004286Y-116308095D01*
X137813810Y-116355714D01*
X137670952Y-116355714D01*
X137480476Y-116308095D01*
X137385238Y-116260476D01*
X137290000Y-116165238D01*
X137242381Y-116022380D01*
X137242381Y-115927142D01*
X137290000Y-115784285D01*
X137337619Y-115736666D01*
X137242381Y-114879523D02*
X137242381Y-115070000D01*
X137290000Y-115165238D01*
X137337619Y-115212857D01*
X137480476Y-115308095D01*
X137670952Y-115355714D01*
X138051905Y-115355714D01*
X138147143Y-115308095D01*
X138194762Y-115260476D01*
X138242381Y-115165238D01*
X138242381Y-114974761D01*
X138194762Y-114879523D01*
X138147143Y-114831904D01*
X138051905Y-114784285D01*
X137813810Y-114784285D01*
X137718571Y-114831904D01*
X137670952Y-114879523D01*
X137623333Y-114974761D01*
X137623333Y-115165238D01*
X137670952Y-115260476D01*
X137718571Y-115308095D01*
X137813810Y-115355714D01*
X145883334Y-124822143D02*
X145835715Y-124869762D01*
X145692858Y-124917381D01*
X145597620Y-124917381D01*
X145454762Y-124869762D01*
X145359524Y-124774524D01*
X145311905Y-124679286D01*
X145264286Y-124488810D01*
X145264286Y-124345952D01*
X145311905Y-124155476D01*
X145359524Y-124060238D01*
X145454762Y-123965000D01*
X145597620Y-123917381D01*
X145692858Y-123917381D01*
X145835715Y-123965000D01*
X145883334Y-124012619D01*
X146216667Y-123917381D02*
X146883334Y-123917381D01*
X146454762Y-124917381D01*
X185142143Y-113831666D02*
X185189762Y-113879285D01*
X185237381Y-114022142D01*
X185237381Y-114117380D01*
X185189762Y-114260238D01*
X185094524Y-114355476D01*
X184999286Y-114403095D01*
X184808810Y-114450714D01*
X184665952Y-114450714D01*
X184475476Y-114403095D01*
X184380238Y-114355476D01*
X184285000Y-114260238D01*
X184237381Y-114117380D01*
X184237381Y-114022142D01*
X184285000Y-113879285D01*
X184332619Y-113831666D01*
X184665952Y-113260238D02*
X184618333Y-113355476D01*
X184570714Y-113403095D01*
X184475476Y-113450714D01*
X184427857Y-113450714D01*
X184332619Y-113403095D01*
X184285000Y-113355476D01*
X184237381Y-113260238D01*
X184237381Y-113069761D01*
X184285000Y-112974523D01*
X184332619Y-112926904D01*
X184427857Y-112879285D01*
X184475476Y-112879285D01*
X184570714Y-112926904D01*
X184618333Y-112974523D01*
X184665952Y-113069761D01*
X184665952Y-113260238D01*
X184713571Y-113355476D01*
X184761190Y-113403095D01*
X184856429Y-113450714D01*
X185046905Y-113450714D01*
X185142143Y-113403095D01*
X185189762Y-113355476D01*
X185237381Y-113260238D01*
X185237381Y-113069761D01*
X185189762Y-112974523D01*
X185142143Y-112926904D01*
X185046905Y-112879285D01*
X184856429Y-112879285D01*
X184761190Y-112926904D01*
X184713571Y-112974523D01*
X184665952Y-113069761D01*
X145073810Y-114117381D02*
X145073810Y-113117381D01*
X146121429Y-114022143D02*
X146073810Y-114069762D01*
X145930953Y-114117381D01*
X145835715Y-114117381D01*
X145692857Y-114069762D01*
X145597619Y-113974524D01*
X145550000Y-113879286D01*
X145502381Y-113688810D01*
X145502381Y-113545952D01*
X145550000Y-113355476D01*
X145597619Y-113260238D01*
X145692857Y-113165000D01*
X145835715Y-113117381D01*
X145930953Y-113117381D01*
X146073810Y-113165000D01*
X146121429Y-113212619D01*
X147073810Y-114117381D02*
X146502381Y-114117381D01*
X146788095Y-114117381D02*
X146788095Y-113117381D01*
X146692857Y-113260238D01*
X146597619Y-113355476D01*
X146502381Y-113403095D01*
X113561905Y-107747381D02*
X113561905Y-106747381D01*
X113942858Y-106747381D01*
X114038096Y-106795000D01*
X114085715Y-106842619D01*
X114133334Y-106937857D01*
X114133334Y-107080714D01*
X114085715Y-107175952D01*
X114038096Y-107223571D01*
X113942858Y-107271190D01*
X113561905Y-107271190D01*
X115085715Y-107747381D02*
X114514286Y-107747381D01*
X114800000Y-107747381D02*
X114800000Y-106747381D01*
X114704762Y-106890238D01*
X114609524Y-106985476D01*
X114514286Y-107033095D01*
X118542381Y-114403095D02*
X117542381Y-114403095D01*
X117542381Y-114022142D01*
X117590000Y-113926904D01*
X117637619Y-113879285D01*
X117732857Y-113831666D01*
X117875714Y-113831666D01*
X117970952Y-113879285D01*
X118018571Y-113926904D01*
X118066190Y-114022142D01*
X118066190Y-114403095D01*
X117637619Y-113450714D02*
X117590000Y-113403095D01*
X117542381Y-113307857D01*
X117542381Y-113069761D01*
X117590000Y-112974523D01*
X117637619Y-112926904D01*
X117732857Y-112879285D01*
X117828095Y-112879285D01*
X117970952Y-112926904D01*
X118542381Y-113498333D01*
X118542381Y-112879285D01*
X194841905Y-106477381D02*
X194841905Y-105477381D01*
X195222858Y-105477381D01*
X195318096Y-105525000D01*
X195365715Y-105572619D01*
X195413334Y-105667857D01*
X195413334Y-105810714D01*
X195365715Y-105905952D01*
X195318096Y-105953571D01*
X195222858Y-106001190D01*
X194841905Y-106001190D01*
X195746667Y-105477381D02*
X196365715Y-105477381D01*
X196032381Y-105858333D01*
X196175239Y-105858333D01*
X196270477Y-105905952D01*
X196318096Y-105953571D01*
X196365715Y-106048810D01*
X196365715Y-106286905D01*
X196318096Y-106382143D01*
X196270477Y-106429762D01*
X196175239Y-106477381D01*
X195889524Y-106477381D01*
X195794286Y-106429762D01*
X195746667Y-106382143D01*
X107211905Y-124297381D02*
X107211905Y-123297381D01*
X107592858Y-123297381D01*
X107688096Y-123345000D01*
X107735715Y-123392619D01*
X107783334Y-123487857D01*
X107783334Y-123630714D01*
X107735715Y-123725952D01*
X107688096Y-123773571D01*
X107592858Y-123821190D01*
X107211905Y-123821190D01*
X108640477Y-123630714D02*
X108640477Y-124297381D01*
X108402381Y-123249762D02*
X108164286Y-123964048D01*
X108783334Y-123964048D01*
X192629762Y-98337619D02*
X192534524Y-98290000D01*
X192439286Y-98194762D01*
X192296429Y-98051905D01*
X192201190Y-98004286D01*
X192105952Y-98004286D01*
X192153571Y-98242381D02*
X192058333Y-98194762D01*
X191963095Y-98099524D01*
X191915476Y-97909048D01*
X191915476Y-97575714D01*
X191963095Y-97385238D01*
X192058333Y-97290000D01*
X192153571Y-97242381D01*
X192344048Y-97242381D01*
X192439286Y-97290000D01*
X192534524Y-97385238D01*
X192582143Y-97575714D01*
X192582143Y-97909048D01*
X192534524Y-98099524D01*
X192439286Y-98194762D01*
X192344048Y-98242381D01*
X192153571Y-98242381D01*
X193534524Y-98242381D02*
X192963095Y-98242381D01*
X193248809Y-98242381D02*
X193248809Y-97242381D01*
X193153571Y-97385238D01*
X193058333Y-97480476D01*
X192963095Y-97528095D01*
X171039762Y-98337619D02*
X170944524Y-98290000D01*
X170849286Y-98194762D01*
X170706429Y-98051905D01*
X170611190Y-98004286D01*
X170515952Y-98004286D01*
X170563571Y-98242381D02*
X170468333Y-98194762D01*
X170373095Y-98099524D01*
X170325476Y-97909048D01*
X170325476Y-97575714D01*
X170373095Y-97385238D01*
X170468333Y-97290000D01*
X170563571Y-97242381D01*
X170754048Y-97242381D01*
X170849286Y-97290000D01*
X170944524Y-97385238D01*
X170992143Y-97575714D01*
X170992143Y-97909048D01*
X170944524Y-98099524D01*
X170849286Y-98194762D01*
X170754048Y-98242381D01*
X170563571Y-98242381D01*
X171373095Y-97337619D02*
X171420714Y-97290000D01*
X171515952Y-97242381D01*
X171754048Y-97242381D01*
X171849286Y-97290000D01*
X171896905Y-97337619D01*
X171944524Y-97432857D01*
X171944524Y-97528095D01*
X171896905Y-97670952D01*
X171325476Y-98242381D01*
X171944524Y-98242381D01*
X132939762Y-98337619D02*
X132844524Y-98290000D01*
X132749286Y-98194762D01*
X132606429Y-98051905D01*
X132511190Y-98004286D01*
X132415952Y-98004286D01*
X132463571Y-98242381D02*
X132368333Y-98194762D01*
X132273095Y-98099524D01*
X132225476Y-97909048D01*
X132225476Y-97575714D01*
X132273095Y-97385238D01*
X132368333Y-97290000D01*
X132463571Y-97242381D01*
X132654048Y-97242381D01*
X132749286Y-97290000D01*
X132844524Y-97385238D01*
X132892143Y-97575714D01*
X132892143Y-97909048D01*
X132844524Y-98099524D01*
X132749286Y-98194762D01*
X132654048Y-98242381D01*
X132463571Y-98242381D01*
X133225476Y-97242381D02*
X133844524Y-97242381D01*
X133511190Y-97623333D01*
X133654048Y-97623333D01*
X133749286Y-97670952D01*
X133796905Y-97718571D01*
X133844524Y-97813810D01*
X133844524Y-98051905D01*
X133796905Y-98147143D01*
X133749286Y-98194762D01*
X133654048Y-98242381D01*
X133368333Y-98242381D01*
X133273095Y-98194762D01*
X133225476Y-98147143D01*
X152624762Y-98337619D02*
X152529524Y-98290000D01*
X152434286Y-98194762D01*
X152291429Y-98051905D01*
X152196190Y-98004286D01*
X152100952Y-98004286D01*
X152148571Y-98242381D02*
X152053333Y-98194762D01*
X151958095Y-98099524D01*
X151910476Y-97909048D01*
X151910476Y-97575714D01*
X151958095Y-97385238D01*
X152053333Y-97290000D01*
X152148571Y-97242381D01*
X152339048Y-97242381D01*
X152434286Y-97290000D01*
X152529524Y-97385238D01*
X152577143Y-97575714D01*
X152577143Y-97909048D01*
X152529524Y-98099524D01*
X152434286Y-98194762D01*
X152339048Y-98242381D01*
X152148571Y-98242381D01*
X153434286Y-97575714D02*
X153434286Y-98242381D01*
X153196190Y-97194762D02*
X152958095Y-97909048D01*
X153577143Y-97909048D01*
X107219762Y-98337619D02*
X107124524Y-98290000D01*
X107029286Y-98194762D01*
X106886429Y-98051905D01*
X106791190Y-98004286D01*
X106695952Y-98004286D01*
X106743571Y-98242381D02*
X106648333Y-98194762D01*
X106553095Y-98099524D01*
X106505476Y-97909048D01*
X106505476Y-97575714D01*
X106553095Y-97385238D01*
X106648333Y-97290000D01*
X106743571Y-97242381D01*
X106934048Y-97242381D01*
X107029286Y-97290000D01*
X107124524Y-97385238D01*
X107172143Y-97575714D01*
X107172143Y-97909048D01*
X107124524Y-98099524D01*
X107029286Y-98194762D01*
X106934048Y-98242381D01*
X106743571Y-98242381D01*
X108076905Y-97242381D02*
X107600714Y-97242381D01*
X107553095Y-97718571D01*
X107600714Y-97670952D01*
X107695952Y-97623333D01*
X107934048Y-97623333D01*
X108029286Y-97670952D01*
X108076905Y-97718571D01*
X108124524Y-97813810D01*
X108124524Y-98051905D01*
X108076905Y-98147143D01*
X108029286Y-98194762D01*
X107934048Y-98242381D01*
X107695952Y-98242381D01*
X107600714Y-98194762D01*
X107553095Y-98147143D01*
X134453334Y-108280381D02*
X134120000Y-107804190D01*
X133881905Y-108280381D02*
X133881905Y-107280381D01*
X134262858Y-107280381D01*
X134358096Y-107328000D01*
X134405715Y-107375619D01*
X134453334Y-107470857D01*
X134453334Y-107613714D01*
X134405715Y-107708952D01*
X134358096Y-107756571D01*
X134262858Y-107804190D01*
X133881905Y-107804190D01*
X135405715Y-108280381D02*
X134834286Y-108280381D01*
X135120000Y-108280381D02*
X135120000Y-107280381D01*
X135024762Y-107423238D01*
X134929524Y-107518476D01*
X134834286Y-107566095D01*
X172553334Y-126182381D02*
X172220000Y-125706190D01*
X171981905Y-126182381D02*
X171981905Y-125182381D01*
X172362858Y-125182381D01*
X172458096Y-125230000D01*
X172505715Y-125277619D01*
X172553334Y-125372857D01*
X172553334Y-125515714D01*
X172505715Y-125610952D01*
X172458096Y-125658571D01*
X172362858Y-125706190D01*
X171981905Y-125706190D01*
X172886667Y-125182381D02*
X173505715Y-125182381D01*
X173172381Y-125563333D01*
X173315239Y-125563333D01*
X173410477Y-125610952D01*
X173458096Y-125658571D01*
X173505715Y-125753810D01*
X173505715Y-125991905D01*
X173458096Y-126087143D01*
X173410477Y-126134762D01*
X173315239Y-126182381D01*
X173029524Y-126182381D01*
X172934286Y-126134762D01*
X172886667Y-126087143D01*
X170013334Y-126182381D02*
X169680000Y-125706190D01*
X169441905Y-126182381D02*
X169441905Y-125182381D01*
X169822858Y-125182381D01*
X169918096Y-125230000D01*
X169965715Y-125277619D01*
X170013334Y-125372857D01*
X170013334Y-125515714D01*
X169965715Y-125610952D01*
X169918096Y-125658571D01*
X169822858Y-125706190D01*
X169441905Y-125706190D01*
X170870477Y-125515714D02*
X170870477Y-126182381D01*
X170632381Y-125134762D02*
X170394286Y-125849048D01*
X171013334Y-125849048D01*
X167473334Y-126182381D02*
X167140000Y-125706190D01*
X166901905Y-126182381D02*
X166901905Y-125182381D01*
X167282858Y-125182381D01*
X167378096Y-125230000D01*
X167425715Y-125277619D01*
X167473334Y-125372857D01*
X167473334Y-125515714D01*
X167425715Y-125610952D01*
X167378096Y-125658571D01*
X167282858Y-125706190D01*
X166901905Y-125706190D01*
X168378096Y-125182381D02*
X167901905Y-125182381D01*
X167854286Y-125658571D01*
X167901905Y-125610952D01*
X167997143Y-125563333D01*
X168235239Y-125563333D01*
X168330477Y-125610952D01*
X168378096Y-125658571D01*
X168425715Y-125753810D01*
X168425715Y-125991905D01*
X168378096Y-126087143D01*
X168330477Y-126134762D01*
X168235239Y-126182381D01*
X167997143Y-126182381D01*
X167901905Y-126134762D01*
X167854286Y-126087143D01*
X164933334Y-126182381D02*
X164600000Y-125706190D01*
X164361905Y-126182381D02*
X164361905Y-125182381D01*
X164742858Y-125182381D01*
X164838096Y-125230000D01*
X164885715Y-125277619D01*
X164933334Y-125372857D01*
X164933334Y-125515714D01*
X164885715Y-125610952D01*
X164838096Y-125658571D01*
X164742858Y-125706190D01*
X164361905Y-125706190D01*
X165790477Y-125182381D02*
X165600000Y-125182381D01*
X165504762Y-125230000D01*
X165457143Y-125277619D01*
X165361905Y-125420476D01*
X165314286Y-125610952D01*
X165314286Y-125991905D01*
X165361905Y-126087143D01*
X165409524Y-126134762D01*
X165504762Y-126182381D01*
X165695239Y-126182381D01*
X165790477Y-126134762D01*
X165838096Y-126087143D01*
X165885715Y-125991905D01*
X165885715Y-125753810D01*
X165838096Y-125658571D01*
X165790477Y-125610952D01*
X165695239Y-125563333D01*
X165504762Y-125563333D01*
X165409524Y-125610952D01*
X165361905Y-125658571D01*
X165314286Y-125753810D01*
X162393334Y-126182381D02*
X162060000Y-125706190D01*
X161821905Y-126182381D02*
X161821905Y-125182381D01*
X162202858Y-125182381D01*
X162298096Y-125230000D01*
X162345715Y-125277619D01*
X162393334Y-125372857D01*
X162393334Y-125515714D01*
X162345715Y-125610952D01*
X162298096Y-125658571D01*
X162202858Y-125706190D01*
X161821905Y-125706190D01*
X162726667Y-125182381D02*
X163393334Y-125182381D01*
X162964762Y-126182381D01*
X159853334Y-126182381D02*
X159520000Y-125706190D01*
X159281905Y-126182381D02*
X159281905Y-125182381D01*
X159662858Y-125182381D01*
X159758096Y-125230000D01*
X159805715Y-125277619D01*
X159853334Y-125372857D01*
X159853334Y-125515714D01*
X159805715Y-125610952D01*
X159758096Y-125658571D01*
X159662858Y-125706190D01*
X159281905Y-125706190D01*
X160424762Y-125610952D02*
X160329524Y-125563333D01*
X160281905Y-125515714D01*
X160234286Y-125420476D01*
X160234286Y-125372857D01*
X160281905Y-125277619D01*
X160329524Y-125230000D01*
X160424762Y-125182381D01*
X160615239Y-125182381D01*
X160710477Y-125230000D01*
X160758096Y-125277619D01*
X160805715Y-125372857D01*
X160805715Y-125420476D01*
X160758096Y-125515714D01*
X160710477Y-125563333D01*
X160615239Y-125610952D01*
X160424762Y-125610952D01*
X160329524Y-125658571D01*
X160281905Y-125706190D01*
X160234286Y-125801429D01*
X160234286Y-125991905D01*
X160281905Y-126087143D01*
X160329524Y-126134762D01*
X160424762Y-126182381D01*
X160615239Y-126182381D01*
X160710477Y-126134762D01*
X160758096Y-126087143D01*
X160805715Y-125991905D01*
X160805715Y-125801429D01*
X160758096Y-125706190D01*
X160710477Y-125658571D01*
X160615239Y-125610952D01*
X157313334Y-126182381D02*
X156980000Y-125706190D01*
X156741905Y-126182381D02*
X156741905Y-125182381D01*
X157122858Y-125182381D01*
X157218096Y-125230000D01*
X157265715Y-125277619D01*
X157313334Y-125372857D01*
X157313334Y-125515714D01*
X157265715Y-125610952D01*
X157218096Y-125658571D01*
X157122858Y-125706190D01*
X156741905Y-125706190D01*
X157789524Y-126182381D02*
X157980000Y-126182381D01*
X158075239Y-126134762D01*
X158122858Y-126087143D01*
X158218096Y-125944286D01*
X158265715Y-125753810D01*
X158265715Y-125372857D01*
X158218096Y-125277619D01*
X158170477Y-125230000D01*
X158075239Y-125182381D01*
X157884762Y-125182381D01*
X157789524Y-125230000D01*
X157741905Y-125277619D01*
X157694286Y-125372857D01*
X157694286Y-125610952D01*
X157741905Y-125706190D01*
X157789524Y-125753810D01*
X157884762Y-125801429D01*
X158075239Y-125801429D01*
X158170477Y-125753810D01*
X158218096Y-125706190D01*
X158265715Y-125610952D01*
X177792143Y-126182381D02*
X177458809Y-125706190D01*
X177220714Y-126182381D02*
X177220714Y-125182381D01*
X177601667Y-125182381D01*
X177696905Y-125230000D01*
X177744524Y-125277619D01*
X177792143Y-125372857D01*
X177792143Y-125515714D01*
X177744524Y-125610952D01*
X177696905Y-125658571D01*
X177601667Y-125706190D01*
X177220714Y-125706190D01*
X178744524Y-126182381D02*
X178173095Y-126182381D01*
X178458809Y-126182381D02*
X178458809Y-125182381D01*
X178363571Y-125325238D01*
X178268333Y-125420476D01*
X178173095Y-125468095D01*
X179363571Y-125182381D02*
X179458810Y-125182381D01*
X179554048Y-125230000D01*
X179601667Y-125277619D01*
X179649286Y-125372857D01*
X179696905Y-125563333D01*
X179696905Y-125801429D01*
X179649286Y-125991905D01*
X179601667Y-126087143D01*
X179554048Y-126134762D01*
X179458810Y-126182381D01*
X179363571Y-126182381D01*
X179268333Y-126134762D01*
X179220714Y-126087143D01*
X179173095Y-125991905D01*
X179125476Y-125801429D01*
X179125476Y-125563333D01*
X179173095Y-125372857D01*
X179220714Y-125277619D01*
X179268333Y-125230000D01*
X179363571Y-125182381D01*
X159377143Y-117927381D02*
X159043809Y-117451190D01*
X158805714Y-117927381D02*
X158805714Y-116927381D01*
X159186667Y-116927381D01*
X159281905Y-116975000D01*
X159329524Y-117022619D01*
X159377143Y-117117857D01*
X159377143Y-117260714D01*
X159329524Y-117355952D01*
X159281905Y-117403571D01*
X159186667Y-117451190D01*
X158805714Y-117451190D01*
X160329524Y-117927381D02*
X159758095Y-117927381D01*
X160043809Y-117927381D02*
X160043809Y-116927381D01*
X159948571Y-117070238D01*
X159853333Y-117165476D01*
X159758095Y-117213095D01*
X161281905Y-117927381D02*
X160710476Y-117927381D01*
X160996190Y-117927381D02*
X160996190Y-116927381D01*
X160900952Y-117070238D01*
X160805714Y-117165476D01*
X160710476Y-117213095D01*
X161917143Y-116657381D02*
X161583809Y-116181190D01*
X161345714Y-116657381D02*
X161345714Y-115657381D01*
X161726667Y-115657381D01*
X161821905Y-115705000D01*
X161869524Y-115752619D01*
X161917143Y-115847857D01*
X161917143Y-115990714D01*
X161869524Y-116085952D01*
X161821905Y-116133571D01*
X161726667Y-116181190D01*
X161345714Y-116181190D01*
X162869524Y-116657381D02*
X162298095Y-116657381D01*
X162583809Y-116657381D02*
X162583809Y-115657381D01*
X162488571Y-115800238D01*
X162393333Y-115895476D01*
X162298095Y-115943095D01*
X163250476Y-115752619D02*
X163298095Y-115705000D01*
X163393333Y-115657381D01*
X163631429Y-115657381D01*
X163726667Y-115705000D01*
X163774286Y-115752619D01*
X163821905Y-115847857D01*
X163821905Y-115943095D01*
X163774286Y-116085952D01*
X163202857Y-116657381D01*
X163821905Y-116657381D01*
X164457143Y-117927381D02*
X164123809Y-117451190D01*
X163885714Y-117927381D02*
X163885714Y-116927381D01*
X164266667Y-116927381D01*
X164361905Y-116975000D01*
X164409524Y-117022619D01*
X164457143Y-117117857D01*
X164457143Y-117260714D01*
X164409524Y-117355952D01*
X164361905Y-117403571D01*
X164266667Y-117451190D01*
X163885714Y-117451190D01*
X165409524Y-117927381D02*
X164838095Y-117927381D01*
X165123809Y-117927381D02*
X165123809Y-116927381D01*
X165028571Y-117070238D01*
X164933333Y-117165476D01*
X164838095Y-117213095D01*
X165742857Y-116927381D02*
X166361905Y-116927381D01*
X166028571Y-117308333D01*
X166171429Y-117308333D01*
X166266667Y-117355952D01*
X166314286Y-117403571D01*
X166361905Y-117498810D01*
X166361905Y-117736905D01*
X166314286Y-117832143D01*
X166266667Y-117879762D01*
X166171429Y-117927381D01*
X165885714Y-117927381D01*
X165790476Y-117879762D01*
X165742857Y-117832143D01*
X166997143Y-116657381D02*
X166663809Y-116181190D01*
X166425714Y-116657381D02*
X166425714Y-115657381D01*
X166806667Y-115657381D01*
X166901905Y-115705000D01*
X166949524Y-115752619D01*
X166997143Y-115847857D01*
X166997143Y-115990714D01*
X166949524Y-116085952D01*
X166901905Y-116133571D01*
X166806667Y-116181190D01*
X166425714Y-116181190D01*
X167949524Y-116657381D02*
X167378095Y-116657381D01*
X167663809Y-116657381D02*
X167663809Y-115657381D01*
X167568571Y-115800238D01*
X167473333Y-115895476D01*
X167378095Y-115943095D01*
X168806667Y-115990714D02*
X168806667Y-116657381D01*
X168568571Y-115609762D02*
X168330476Y-116324048D01*
X168949524Y-116324048D01*
X169537143Y-117927381D02*
X169203809Y-117451190D01*
X168965714Y-117927381D02*
X168965714Y-116927381D01*
X169346667Y-116927381D01*
X169441905Y-116975000D01*
X169489524Y-117022619D01*
X169537143Y-117117857D01*
X169537143Y-117260714D01*
X169489524Y-117355952D01*
X169441905Y-117403571D01*
X169346667Y-117451190D01*
X168965714Y-117451190D01*
X170489524Y-117927381D02*
X169918095Y-117927381D01*
X170203809Y-117927381D02*
X170203809Y-116927381D01*
X170108571Y-117070238D01*
X170013333Y-117165476D01*
X169918095Y-117213095D01*
X171394286Y-116927381D02*
X170918095Y-116927381D01*
X170870476Y-117403571D01*
X170918095Y-117355952D01*
X171013333Y-117308333D01*
X171251429Y-117308333D01*
X171346667Y-117355952D01*
X171394286Y-117403571D01*
X171441905Y-117498810D01*
X171441905Y-117736905D01*
X171394286Y-117832143D01*
X171346667Y-117879762D01*
X171251429Y-117927381D01*
X171013333Y-117927381D01*
X170918095Y-117879762D01*
X170870476Y-117832143D01*
X172077143Y-116657381D02*
X171743809Y-116181190D01*
X171505714Y-116657381D02*
X171505714Y-115657381D01*
X171886667Y-115657381D01*
X171981905Y-115705000D01*
X172029524Y-115752619D01*
X172077143Y-115847857D01*
X172077143Y-115990714D01*
X172029524Y-116085952D01*
X171981905Y-116133571D01*
X171886667Y-116181190D01*
X171505714Y-116181190D01*
X173029524Y-116657381D02*
X172458095Y-116657381D01*
X172743809Y-116657381D02*
X172743809Y-115657381D01*
X172648571Y-115800238D01*
X172553333Y-115895476D01*
X172458095Y-115943095D01*
X173886667Y-115657381D02*
X173696190Y-115657381D01*
X173600952Y-115705000D01*
X173553333Y-115752619D01*
X173458095Y-115895476D01*
X173410476Y-116085952D01*
X173410476Y-116466905D01*
X173458095Y-116562143D01*
X173505714Y-116609762D01*
X173600952Y-116657381D01*
X173791429Y-116657381D01*
X173886667Y-116609762D01*
X173934286Y-116562143D01*
X173981905Y-116466905D01*
X173981905Y-116228810D01*
X173934286Y-116133571D01*
X173886667Y-116085952D01*
X173791429Y-116038333D01*
X173600952Y-116038333D01*
X173505714Y-116085952D01*
X173458095Y-116133571D01*
X173410476Y-116228810D01*
X174617143Y-117927381D02*
X174283809Y-117451190D01*
X174045714Y-117927381D02*
X174045714Y-116927381D01*
X174426667Y-116927381D01*
X174521905Y-116975000D01*
X174569524Y-117022619D01*
X174617143Y-117117857D01*
X174617143Y-117260714D01*
X174569524Y-117355952D01*
X174521905Y-117403571D01*
X174426667Y-117451190D01*
X174045714Y-117451190D01*
X175569524Y-117927381D02*
X174998095Y-117927381D01*
X175283809Y-117927381D02*
X175283809Y-116927381D01*
X175188571Y-117070238D01*
X175093333Y-117165476D01*
X174998095Y-117213095D01*
X175902857Y-116927381D02*
X176569524Y-116927381D01*
X176140952Y-117927381D01*
X177157143Y-116657381D02*
X176823809Y-116181190D01*
X176585714Y-116657381D02*
X176585714Y-115657381D01*
X176966667Y-115657381D01*
X177061905Y-115705000D01*
X177109524Y-115752619D01*
X177157143Y-115847857D01*
X177157143Y-115990714D01*
X177109524Y-116085952D01*
X177061905Y-116133571D01*
X176966667Y-116181190D01*
X176585714Y-116181190D01*
X178109524Y-116657381D02*
X177538095Y-116657381D01*
X177823809Y-116657381D02*
X177823809Y-115657381D01*
X177728571Y-115800238D01*
X177633333Y-115895476D01*
X177538095Y-115943095D01*
X178680952Y-116085952D02*
X178585714Y-116038333D01*
X178538095Y-115990714D01*
X178490476Y-115895476D01*
X178490476Y-115847857D01*
X178538095Y-115752619D01*
X178585714Y-115705000D01*
X178680952Y-115657381D01*
X178871429Y-115657381D01*
X178966667Y-115705000D01*
X179014286Y-115752619D01*
X179061905Y-115847857D01*
X179061905Y-115895476D01*
X179014286Y-115990714D01*
X178966667Y-116038333D01*
X178871429Y-116085952D01*
X178680952Y-116085952D01*
X178585714Y-116133571D01*
X178538095Y-116181190D01*
X178490476Y-116276429D01*
X178490476Y-116466905D01*
X178538095Y-116562143D01*
X178585714Y-116609762D01*
X178680952Y-116657381D01*
X178871429Y-116657381D01*
X178966667Y-116609762D01*
X179014286Y-116562143D01*
X179061905Y-116466905D01*
X179061905Y-116276429D01*
X179014286Y-116181190D01*
X178966667Y-116133571D01*
X178871429Y-116085952D01*
X182697381Y-108592857D02*
X182221190Y-108926191D01*
X182697381Y-109164286D02*
X181697381Y-109164286D01*
X181697381Y-108783333D01*
X181745000Y-108688095D01*
X181792619Y-108640476D01*
X181887857Y-108592857D01*
X182030714Y-108592857D01*
X182125952Y-108640476D01*
X182173571Y-108688095D01*
X182221190Y-108783333D01*
X182221190Y-109164286D01*
X182697381Y-107640476D02*
X182697381Y-108211905D01*
X182697381Y-107926191D02*
X181697381Y-107926191D01*
X181840238Y-108021429D01*
X181935476Y-108116667D01*
X181983095Y-108211905D01*
X182697381Y-107164286D02*
X182697381Y-106973810D01*
X182649762Y-106878571D01*
X182602143Y-106830952D01*
X182459286Y-106735714D01*
X182268810Y-106688095D01*
X181887857Y-106688095D01*
X181792619Y-106735714D01*
X181745000Y-106783333D01*
X181697381Y-106878571D01*
X181697381Y-107069048D01*
X181745000Y-107164286D01*
X181792619Y-107211905D01*
X181887857Y-107259524D01*
X182125952Y-107259524D01*
X182221190Y-107211905D01*
X182268810Y-107164286D01*
X182316429Y-107069048D01*
X182316429Y-106878571D01*
X182268810Y-106783333D01*
X182221190Y-106735714D01*
X182125952Y-106688095D01*
X160012143Y-109032381D02*
X159678809Y-108556190D01*
X159440714Y-109032381D02*
X159440714Y-108032381D01*
X159821667Y-108032381D01*
X159916905Y-108080000D01*
X159964524Y-108127619D01*
X160012143Y-108222857D01*
X160012143Y-108365714D01*
X159964524Y-108460952D01*
X159916905Y-108508571D01*
X159821667Y-108556190D01*
X159440714Y-108556190D01*
X160393095Y-108127619D02*
X160440714Y-108080000D01*
X160535952Y-108032381D01*
X160774048Y-108032381D01*
X160869286Y-108080000D01*
X160916905Y-108127619D01*
X160964524Y-108222857D01*
X160964524Y-108318095D01*
X160916905Y-108460952D01*
X160345476Y-109032381D01*
X160964524Y-109032381D01*
X161583571Y-108032381D02*
X161678810Y-108032381D01*
X161774048Y-108080000D01*
X161821667Y-108127619D01*
X161869286Y-108222857D01*
X161916905Y-108413333D01*
X161916905Y-108651429D01*
X161869286Y-108841905D01*
X161821667Y-108937143D01*
X161774048Y-108984762D01*
X161678810Y-109032381D01*
X161583571Y-109032381D01*
X161488333Y-108984762D01*
X161440714Y-108937143D01*
X161393095Y-108841905D01*
X161345476Y-108651429D01*
X161345476Y-108413333D01*
X161393095Y-108222857D01*
X161440714Y-108127619D01*
X161488333Y-108080000D01*
X161583571Y-108032381D01*
X126992143Y-105222381D02*
X126658809Y-104746190D01*
X126420714Y-105222381D02*
X126420714Y-104222381D01*
X126801667Y-104222381D01*
X126896905Y-104270000D01*
X126944524Y-104317619D01*
X126992143Y-104412857D01*
X126992143Y-104555714D01*
X126944524Y-104650952D01*
X126896905Y-104698571D01*
X126801667Y-104746190D01*
X126420714Y-104746190D01*
X127373095Y-104317619D02*
X127420714Y-104270000D01*
X127515952Y-104222381D01*
X127754048Y-104222381D01*
X127849286Y-104270000D01*
X127896905Y-104317619D01*
X127944524Y-104412857D01*
X127944524Y-104508095D01*
X127896905Y-104650952D01*
X127325476Y-105222381D01*
X127944524Y-105222381D01*
X128896905Y-105222381D02*
X128325476Y-105222381D01*
X128611190Y-105222381D02*
X128611190Y-104222381D01*
X128515952Y-104365238D01*
X128420714Y-104460476D01*
X128325476Y-104508095D01*
X147312143Y-105222381D02*
X146978809Y-104746190D01*
X146740714Y-105222381D02*
X146740714Y-104222381D01*
X147121667Y-104222381D01*
X147216905Y-104270000D01*
X147264524Y-104317619D01*
X147312143Y-104412857D01*
X147312143Y-104555714D01*
X147264524Y-104650952D01*
X147216905Y-104698571D01*
X147121667Y-104746190D01*
X146740714Y-104746190D01*
X147693095Y-104317619D02*
X147740714Y-104270000D01*
X147835952Y-104222381D01*
X148074048Y-104222381D01*
X148169286Y-104270000D01*
X148216905Y-104317619D01*
X148264524Y-104412857D01*
X148264524Y-104508095D01*
X148216905Y-104650952D01*
X147645476Y-105222381D01*
X148264524Y-105222381D01*
X148645476Y-104317619D02*
X148693095Y-104270000D01*
X148788333Y-104222381D01*
X149026429Y-104222381D01*
X149121667Y-104270000D01*
X149169286Y-104317619D01*
X149216905Y-104412857D01*
X149216905Y-104508095D01*
X149169286Y-104650952D01*
X148597857Y-105222381D01*
X149216905Y-105222381D01*
X105021143Y-105105381D02*
X104687809Y-104629190D01*
X104449714Y-105105381D02*
X104449714Y-104105381D01*
X104830667Y-104105381D01*
X104925905Y-104153000D01*
X104973524Y-104200619D01*
X105021143Y-104295857D01*
X105021143Y-104438714D01*
X104973524Y-104533952D01*
X104925905Y-104581571D01*
X104830667Y-104629190D01*
X104449714Y-104629190D01*
X105402095Y-104200619D02*
X105449714Y-104153000D01*
X105544952Y-104105381D01*
X105783048Y-104105381D01*
X105878286Y-104153000D01*
X105925905Y-104200619D01*
X105973524Y-104295857D01*
X105973524Y-104391095D01*
X105925905Y-104533952D01*
X105354476Y-105105381D01*
X105973524Y-105105381D01*
X106306857Y-104105381D02*
X106925905Y-104105381D01*
X106592571Y-104486333D01*
X106735429Y-104486333D01*
X106830667Y-104533952D01*
X106878286Y-104581571D01*
X106925905Y-104676810D01*
X106925905Y-104914905D01*
X106878286Y-105010143D01*
X106830667Y-105057762D01*
X106735429Y-105105381D01*
X106449714Y-105105381D01*
X106354476Y-105057762D01*
X106306857Y-105010143D01*
X127995476Y-117867381D02*
X128662143Y-118867381D01*
X128662143Y-117867381D02*
X127995476Y-118867381D01*
X129566905Y-118867381D02*
X128995476Y-118867381D01*
X129281190Y-118867381D02*
X129281190Y-117867381D01*
X129185952Y-118010238D01*
X129090714Y-118105476D01*
X128995476Y-118153095D01*
X189166667Y-128722381D02*
X188833333Y-128246190D01*
X188595238Y-128722381D02*
X188595238Y-127722381D01*
X188976191Y-127722381D01*
X189071429Y-127770000D01*
X189119048Y-127817619D01*
X189166667Y-127912857D01*
X189166667Y-128055714D01*
X189119048Y-128150952D01*
X189071429Y-128198571D01*
X188976191Y-128246190D01*
X188595238Y-128246190D01*
X189595238Y-128198571D02*
X189928572Y-128198571D01*
X190071429Y-128722381D02*
X189595238Y-128722381D01*
X189595238Y-127722381D01*
X190071429Y-127722381D01*
X190833334Y-128198571D02*
X190500000Y-128198571D01*
X190500000Y-128722381D02*
X190500000Y-127722381D01*
X190976191Y-127722381D01*
X191500000Y-127722381D02*
X191500000Y-127960476D01*
X191261905Y-127865238D02*
X191500000Y-127960476D01*
X191738096Y-127865238D01*
X191357143Y-128150952D02*
X191500000Y-127960476D01*
X191642858Y-128150952D01*
X192261905Y-127722381D02*
X192261905Y-127960476D01*
X192023810Y-127865238D02*
X192261905Y-127960476D01*
X192500001Y-127865238D01*
X192119048Y-128150952D02*
X192261905Y-127960476D01*
X192404763Y-128150952D01*
X108521667Y-128722381D02*
X108188333Y-128246190D01*
X107950238Y-128722381D02*
X107950238Y-127722381D01*
X108331191Y-127722381D01*
X108426429Y-127770000D01*
X108474048Y-127817619D01*
X108521667Y-127912857D01*
X108521667Y-128055714D01*
X108474048Y-128150952D01*
X108426429Y-128198571D01*
X108331191Y-128246190D01*
X107950238Y-128246190D01*
X108950238Y-128198571D02*
X109283572Y-128198571D01*
X109426429Y-128722381D02*
X108950238Y-128722381D01*
X108950238Y-127722381D01*
X109426429Y-127722381D01*
X110188334Y-128198571D02*
X109855000Y-128198571D01*
X109855000Y-128722381D02*
X109855000Y-127722381D01*
X110331191Y-127722381D01*
X110855000Y-127722381D02*
X110855000Y-127960476D01*
X110616905Y-127865238D02*
X110855000Y-127960476D01*
X111093096Y-127865238D01*
X110712143Y-128150952D02*
X110855000Y-127960476D01*
X110997858Y-128150952D01*
X111616905Y-127722381D02*
X111616905Y-127960476D01*
X111378810Y-127865238D02*
X111616905Y-127960476D01*
X111855001Y-127865238D01*
X111474048Y-128150952D02*
X111616905Y-127960476D01*
X111759763Y-128150952D01*
X107886667Y-71572381D02*
X107553333Y-71096190D01*
X107315238Y-71572381D02*
X107315238Y-70572381D01*
X107696191Y-70572381D01*
X107791429Y-70620000D01*
X107839048Y-70667619D01*
X107886667Y-70762857D01*
X107886667Y-70905714D01*
X107839048Y-71000952D01*
X107791429Y-71048571D01*
X107696191Y-71096190D01*
X107315238Y-71096190D01*
X108315238Y-71048571D02*
X108648572Y-71048571D01*
X108791429Y-71572381D02*
X108315238Y-71572381D01*
X108315238Y-70572381D01*
X108791429Y-70572381D01*
X109553334Y-71048571D02*
X109220000Y-71048571D01*
X109220000Y-71572381D02*
X109220000Y-70572381D01*
X109696191Y-70572381D01*
X110220000Y-70572381D02*
X110220000Y-70810476D01*
X109981905Y-70715238D02*
X110220000Y-70810476D01*
X110458096Y-70715238D01*
X110077143Y-71000952D02*
X110220000Y-70810476D01*
X110362858Y-71000952D01*
X110981905Y-70572381D02*
X110981905Y-70810476D01*
X110743810Y-70715238D02*
X110981905Y-70810476D01*
X111220001Y-70715238D01*
X110839048Y-71000952D02*
X110981905Y-70810476D01*
X111124763Y-71000952D01*
X189166667Y-71572381D02*
X188833333Y-71096190D01*
X188595238Y-71572381D02*
X188595238Y-70572381D01*
X188976191Y-70572381D01*
X189071429Y-70620000D01*
X189119048Y-70667619D01*
X189166667Y-70762857D01*
X189166667Y-70905714D01*
X189119048Y-71000952D01*
X189071429Y-71048571D01*
X188976191Y-71096190D01*
X188595238Y-71096190D01*
X189595238Y-71048571D02*
X189928572Y-71048571D01*
X190071429Y-71572381D02*
X189595238Y-71572381D01*
X189595238Y-70572381D01*
X190071429Y-70572381D01*
X190833334Y-71048571D02*
X190500000Y-71048571D01*
X190500000Y-71572381D02*
X190500000Y-70572381D01*
X190976191Y-70572381D01*
X191500000Y-70572381D02*
X191500000Y-70810476D01*
X191261905Y-70715238D02*
X191500000Y-70810476D01*
X191738096Y-70715238D01*
X191357143Y-71000952D02*
X191500000Y-70810476D01*
X191642858Y-71000952D01*
X192261905Y-70572381D02*
X192261905Y-70810476D01*
X192023810Y-70715238D02*
X192261905Y-70810476D01*
X192500001Y-70715238D01*
X192119048Y-71000952D02*
X192261905Y-70810476D01*
X192404763Y-71000952D01*
X118006905Y-117907381D02*
X118006905Y-116907381D01*
X118387858Y-116907381D01*
X118483096Y-116955000D01*
X118530715Y-117002619D01*
X118578334Y-117097857D01*
X118578334Y-117240714D01*
X118530715Y-117335952D01*
X118483096Y-117383571D01*
X118387858Y-117431190D01*
X118006905Y-117431190D01*
X119483096Y-116907381D02*
X119006905Y-116907381D01*
X118959286Y-117383571D01*
X119006905Y-117335952D01*
X119102143Y-117288333D01*
X119340239Y-117288333D01*
X119435477Y-117335952D01*
X119483096Y-117383571D01*
X119530715Y-117478810D01*
X119530715Y-117716905D01*
X119483096Y-117812143D01*
X119435477Y-117859762D01*
X119340239Y-117907381D01*
X119102143Y-117907381D01*
X119006905Y-117859762D01*
X118959286Y-117812143D01*
M02*
