G04 #@! TF.FileFunction,Soldermask,Bot*
%FSLAX46Y46*%
G04 Gerber Fmt 4.6, Leading zero omitted, Abs format (unit mm)*
G04 Created by KiCad (PCBNEW 4.0.4+e1-6308~48~ubuntu16.04.1-stable) date Tue Nov 15 20:45:07 2016*
%MOMM*%
%LPD*%
G01*
G04 APERTURE LIST*
%ADD10C,0.100000*%
%ADD11O,2.600000X2.166000*%
%ADD12R,2.600000X2.166000*%
%ADD13R,2.432000X2.127200*%
%ADD14O,2.432000X2.127200*%
%ADD15R,2.127200X2.127200*%
%ADD16O,2.127200X2.127200*%
%ADD17C,3.600000*%
%ADD18R,2.432000X2.432000*%
%ADD19O,2.432000X2.432000*%
%ADD20O,2.800000X2.166000*%
%ADD21R,2.800000X2.166000*%
G04 APERTURE END LIST*
D10*
D11*
X101600000Y-102870000D03*
X101600000Y-100330000D03*
X101600000Y-97790000D03*
X101600000Y-95250000D03*
X101600000Y-92710000D03*
X101600000Y-90170000D03*
X101600000Y-87630000D03*
X101600000Y-85090000D03*
X101600000Y-82550000D03*
X116840000Y-102870000D03*
X116840000Y-100330000D03*
X116840000Y-97790000D03*
X116840000Y-95250000D03*
X116840000Y-92710000D03*
X116840000Y-90170000D03*
X116840000Y-87630000D03*
X116840000Y-85090000D03*
D12*
X116840000Y-82550000D03*
D13*
X114300000Y-112395000D03*
D14*
X114300000Y-114935000D03*
X114300000Y-117475000D03*
X114300000Y-120015000D03*
X114300000Y-122555000D03*
X114300000Y-125095000D03*
D15*
X123190000Y-113665000D03*
D16*
X123190000Y-111125000D03*
X125730000Y-113665000D03*
X125730000Y-111125000D03*
X128270000Y-113665000D03*
X128270000Y-111125000D03*
D13*
X195580000Y-111125000D03*
D14*
X195580000Y-113665000D03*
X195580000Y-116205000D03*
X195580000Y-118745000D03*
D13*
X107950000Y-118745000D03*
D14*
X107950000Y-116205000D03*
X107950000Y-113665000D03*
X107950000Y-111125000D03*
D17*
X195580000Y-125730000D03*
X104140000Y-125730000D03*
X104140000Y-74295000D03*
X195580000Y-74295000D03*
D18*
X118745000Y-122555000D03*
D19*
X118745000Y-125095000D03*
D20*
X162560000Y-102870000D03*
X162560000Y-100330000D03*
X162560000Y-97790000D03*
X162560000Y-95250000D03*
X162560000Y-92710000D03*
X162560000Y-90170000D03*
X162560000Y-87630000D03*
X162560000Y-85090000D03*
X162560000Y-82550000D03*
X177800000Y-102870000D03*
X177800000Y-100330000D03*
X177800000Y-97790000D03*
X177800000Y-95250000D03*
X177800000Y-92710000D03*
X177800000Y-90170000D03*
X177800000Y-87630000D03*
X177800000Y-85090000D03*
D21*
X177800000Y-82550000D03*
D20*
X142240000Y-102870000D03*
X142240000Y-100330000D03*
X142240000Y-97790000D03*
X142240000Y-95250000D03*
X142240000Y-92710000D03*
X142240000Y-90170000D03*
X142240000Y-87630000D03*
X142240000Y-85090000D03*
X142240000Y-82550000D03*
X157480000Y-102870000D03*
X157480000Y-100330000D03*
X157480000Y-97790000D03*
X157480000Y-95250000D03*
X157480000Y-92710000D03*
X157480000Y-90170000D03*
X157480000Y-87630000D03*
X157480000Y-85090000D03*
D21*
X157480000Y-82550000D03*
D20*
X182880000Y-102870000D03*
X182880000Y-100330000D03*
X182880000Y-97790000D03*
X182880000Y-95250000D03*
X182880000Y-92710000D03*
X182880000Y-90170000D03*
X182880000Y-87630000D03*
X182880000Y-85090000D03*
X182880000Y-82550000D03*
X198120000Y-102870000D03*
X198120000Y-100330000D03*
X198120000Y-97790000D03*
X198120000Y-95250000D03*
X198120000Y-92710000D03*
X198120000Y-90170000D03*
X198120000Y-87630000D03*
X198120000Y-85090000D03*
D21*
X198120000Y-82550000D03*
D20*
X121920000Y-102870000D03*
X121920000Y-100330000D03*
X121920000Y-97790000D03*
X121920000Y-95250000D03*
X121920000Y-92710000D03*
X121920000Y-90170000D03*
X121920000Y-87630000D03*
X121920000Y-85090000D03*
X121920000Y-82550000D03*
X137160000Y-102870000D03*
X137160000Y-100330000D03*
X137160000Y-97790000D03*
X137160000Y-95250000D03*
X137160000Y-92710000D03*
X137160000Y-90170000D03*
X137160000Y-87630000D03*
X137160000Y-85090000D03*
D21*
X137160000Y-82550000D03*
M02*
