M48
;DRILL file {KiCad 4.0.4+e1-6308~48~ubuntu16.04.1-stable} date Tue Nov 15 20:45:20 2016
;FORMAT={-:-/ absolute / inch / decimal}
FMAT,2
INCH,TZ
T1C0.020
T2C0.040
%
G90
G05
M72
T1
X4.3Y-4.16
X4.9Y-4.055
X5.315Y-4.2
X5.395Y-4.385
X5.395Y-4.445
X5.415Y-4.505
X5.42Y-4.795
X5.43Y-4.735
X5.435Y-4.85
X5.4693Y-4.275
X5.535Y-4.92
X5.575Y-4.96
X5.6Y-4.215
X5.615Y-5.005
X5.625Y-4.69
X5.665Y-5.025
X5.7Y-4.055
X5.715Y-4.745
X5.82Y-4.64
X5.9Y-4.55
X6.21Y-4.695
X6.3Y-4.325
X6.3Y-4.7
X6.4Y-4.7
X6.405Y-4.325
X6.455Y-4.2
X6.5Y-4.325
X6.5Y-4.7
X6.58Y-4.075
X6.6Y-4.325
X6.6Y-4.7
X6.7Y-4.325
X6.7Y-4.7
X6.8Y-4.325
X6.8Y-4.7
X6.9Y-4.325
X6.9Y-4.7
X7.Y-4.325
X7.Y-4.7
X7.1Y-4.375
X7.125Y-4.82
X7.45Y-4.06
T2
X4.Y-3.25
X4.Y-3.35
X4.Y-3.45
X4.Y-3.55
X4.Y-3.65
X4.Y-3.75
X4.Y-3.85
X4.Y-3.95
X4.Y-4.05
X4.25Y-4.375
X4.25Y-4.475
X4.25Y-4.575
X4.25Y-4.675
X4.5Y-4.425
X4.5Y-4.525
X4.5Y-4.625
X4.5Y-4.725
X4.5Y-4.825
X4.5Y-4.925
X4.6Y-3.25
X4.6Y-3.35
X4.6Y-3.45
X4.6Y-3.55
X4.6Y-3.65
X4.6Y-3.75
X4.6Y-3.85
X4.6Y-3.95
X4.6Y-4.05
X4.675Y-4.825
X4.675Y-4.925
X4.8Y-3.25
X4.8Y-3.35
X4.8Y-3.45
X4.8Y-3.55
X4.8Y-3.65
X4.8Y-3.75
X4.8Y-3.85
X4.8Y-3.95
X4.8Y-4.05
X4.85Y-4.375
X4.85Y-4.475
X4.95Y-4.375
X4.95Y-4.475
X5.05Y-4.375
X5.05Y-4.475
X5.4Y-3.25
X5.4Y-3.35
X5.4Y-3.45
X5.4Y-3.55
X5.4Y-3.65
X5.4Y-3.75
X5.4Y-3.85
X5.4Y-3.95
X5.4Y-4.05
X5.6Y-3.25
X5.6Y-3.35
X5.6Y-3.45
X5.6Y-3.55
X5.6Y-3.65
X5.6Y-3.75
X5.6Y-3.85
X5.6Y-3.95
X5.6Y-4.05
X6.2Y-3.25
X6.2Y-3.35
X6.2Y-3.45
X6.2Y-3.55
X6.2Y-3.65
X6.2Y-3.75
X6.2Y-3.85
X6.2Y-3.95
X6.2Y-4.05
X6.4Y-3.25
X6.4Y-3.35
X6.4Y-3.45
X6.4Y-3.55
X6.4Y-3.65
X6.4Y-3.75
X6.4Y-3.85
X6.4Y-3.95
X6.4Y-4.05
X7.Y-3.25
X7.Y-3.35
X7.Y-3.45
X7.Y-3.55
X7.Y-3.65
X7.Y-3.75
X7.Y-3.85
X7.Y-3.95
X7.Y-4.05
X7.2Y-3.25
X7.2Y-3.35
X7.2Y-3.45
X7.2Y-3.55
X7.2Y-3.65
X7.2Y-3.75
X7.2Y-3.85
X7.2Y-3.95
X7.2Y-4.05
X7.7Y-4.375
X7.7Y-4.475
X7.7Y-4.575
X7.7Y-4.675
X7.8Y-3.25
X7.8Y-3.35
X7.8Y-3.45
X7.8Y-3.55
X7.8Y-3.65
X7.8Y-3.75
X7.8Y-3.85
X7.8Y-3.95
X7.8Y-4.05
T0
M30
